<svg width="28" height="28" viewBox="0 0 28 28" fill="none" xmlns="http://www.w3.org/2000/svg">
<path d="M7.87533 25.6669C7.00033 25.6669 6.24705 25.3702 5.61549 24.7768C4.98394 24.1833 4.66777 23.4495 4.66699 22.5753V6.30026C4.66699 5.56137 4.89566 4.90026 5.35299 4.31693C5.81033 3.73359 6.40805 3.36415 7.14616 3.20859L18.667 0.933594V19.6003L7.61283 21.8169C7.43783 21.8558 7.29199 21.9484 7.17533 22.0946C7.05866 22.2408 7.00033 22.401 7.00033 22.5753C7.00033 22.7892 7.08783 22.9692 7.26283 23.1154C7.43783 23.2616 7.64199 23.3344 7.87533 23.3336H21.0003V4.66693H23.3337V25.6669H7.87533ZM10.5003 18.8711L16.3337 17.7336V3.79193L10.5003 4.92943V18.8711ZM8.16699 19.3378V5.39609L7.72949 5.48359C7.5156 5.52248 7.3406 5.61504 7.20449 5.76126C7.06838 5.90748 7.00033 6.08715 7.00033 6.30026V19.6294C7.09755 19.5905 7.19983 19.5567 7.30716 19.5279C7.41449 19.4991 7.51638 19.4746 7.61283 19.4544L8.16699 19.3378Z" fill="black"/>
</svg>
