<svg width="110" height="154" viewBox="0 0 110 154" fill="none" xmlns="http://www.w3.org/2000/svg">
<defs>
<linearGradient id="flameGold" x1="32" y1="68" x2="60" y2="137" gradientUnits="userSpaceOnUse">
<stop offset="0" stop-color="#FFFBE3"/>
<stop offset="0.3" stop-color="#FFD758"/>
<stop offset="0.55" stop-color="#FFF3C0"/>
<stop offset="0.78" stop-color="#EFB63C"/>
<stop offset="1" stop-color="#D89C2A"/>
</linearGradient>
</defs>
<path d="M77.8755 141.976V142.426C77.8806 142.743 78.1206 143.236 78.4181 143.347C78.4431 143.352 78.4656 143.352 78.4881 143.352C78.5357 143.352 78.5807 143.345 78.6207 143.327C78.7432 143.277 78.8257 143.153 78.8357 142.977C78.8457 142.781 78.7607 142.567 78.6207 142.403C78.5407 142.308 78.4431 142.23 78.3356 142.182L77.873 141.976" fill="#F4E7D4"/>
<path fill-rule="evenodd" clip-rule="evenodd" d="M109.999 32.1755V123.611C109.999 125.481 108.731 126.447 107.176 125.775L47.5187 99.9419C45.9435 99.2599 44.6758 97.1962 44.6758 95.3238V3.88817C44.6758 2.01829 45.9435 1.04685 47.5187 1.72887L107.176 27.5625C108.731 28.2369 109.999 30.3031 109.999 32.1755Z" fill="#523230"/>
<mask id="mask0_979_2447" style="mask-type:luminance" maskUnits="userSpaceOnUse" x="44" y="1" width="66" height="125">
<path d="M109.999 32.1755V123.611C109.999 125.481 108.731 126.447 107.176 125.775L47.5187 99.9419C45.9435 99.2599 44.6758 97.1962 44.6758 95.3238V3.88817C44.6758 2.01829 45.9435 1.04685 47.5187 1.72887L107.176 27.5625C108.731 28.2369 109.999 30.3031 109.999 32.1755Z" fill="white"/>
</mask>
<g mask="url(#mask0_979_2447)">
<path fill-rule="evenodd" clip-rule="evenodd" d="M45.8613 8.48145L101.01 32.2539V154L45.8613 130.228V8.48145Z" fill="#3A2E2B"/>
<path fill-rule="evenodd" clip-rule="evenodd" d="M45.7333 0.470617L45.6133 13.4491L46.7785 12.7696L46.6484 0L45.7333 0.470617Z" fill="#412725"/>
</g>
<path fill-rule="evenodd" clip-rule="evenodd" d="M46.7517 2.1514V21.5927C46.7517 22.1035 46.4016 22.6597 45.969 22.8384L15.4567 35.2884C15.0141 35.4696 14.6641 35.1978 14.6641 34.6869V15.2456C14.6641 14.7347 15.0141 14.176 15.4567 13.9948L45.969 1.54488C46.4041 1.36871 46.7517 1.64051 46.7517 2.1514Z" fill="#523230"/>
<mask id="mask1_979_2447" style="mask-type:luminance" maskUnits="userSpaceOnUse" x="14" y="1" width="33" height="35">
<path d="M46.7517 2.1514V21.5927C46.7517 22.1035 46.4016 22.6597 45.969 22.8384L15.4567 35.2884C15.0141 35.4696 14.6641 35.1978 14.6641 34.6869V15.2456C14.6641 14.7347 15.0141 14.176 15.4567 13.9948L45.969 1.54488C46.4041 1.36871 46.7517 1.64051 46.7517 2.1514Z" fill="white"/>
</mask>
<g mask="url(#mask1_979_2447)">
<path fill-rule="evenodd" clip-rule="evenodd" d="M0.750119 28.8357L61.6748 2.44336V123.654L0 148.785L0.750119 28.8357Z" fill="#3A2E2B"/>
<path fill-rule="evenodd" clip-rule="evenodd" d="M46.0397 0.470617L45.8047 13.4466L48.6076 12.7671L47.8575 0L46.0397 0.470617Z" fill="#3A2E2B"/>
</g>
<path fill-rule="evenodd" clip-rule="evenodd" d="M74.9023 40.9907L89.9272 29.4492L99.4463 33.3702L82.0885 47.3075L74.9023 40.9907Z" fill="#3A2E2B"/>
<path fill-rule="evenodd" clip-rule="evenodd" d="M99.4475 34.7071L99.8426 122.169C99.8426 122.468 99.6501 122.843 99.415 122.982L80.4695 134.123C80.2295 134.264 80.0369 134.116 80.0369 133.816L79.6094 43.8653C79.6094 43.5532 79.8019 43.1858 80.0369 43.0473L99.015 34.3975C99.255 34.2566 99.4475 34.3975 99.4475 34.7071Z" fill="#C08A63"/>
<path fill-rule="evenodd" clip-rule="evenodd" d="M46.6448 10.7959L98.9156 33.1364C99.0931 33.2119 99.0981 33.4661 98.9206 33.5466L76.5646 43.7693L23.8262 21.23L46.6448 10.7959Z" fill="#F4E7D4"/>
<path fill-rule="evenodd" clip-rule="evenodd" d="M83.3853 47.1296V143.916C83.3853 145.911 82.0526 146.928 80.4149 146.191L80.2048 146.095L78.6221 145.383L19.8027 118.872L18.22 118.158L17.6274 117.891C14.1493 116.323 14.6344 117.063 14.6344 112.93V16.1419C14.6344 14.1487 15.9696 13.1319 17.6274 13.8794L80.4149 42.1793C82.0526 42.9167 83.3853 45.1364 83.3853 47.1296Z" fill="#523230"/>
<path fill-rule="evenodd" clip-rule="evenodd" d="M80.2064 49.7898V51.3829C80.2064 51.4256 80.1889 51.4508 80.1514 51.4332L18.2816 23.5183C18.2641 23.5107 18.2266 23.4604 18.2266 23.4176V21.8246C18.2266 21.7818 18.2641 21.7642 18.2816 21.7742L80.1514 49.6917C80.1889 49.7093 80.2064 49.7495 80.2064 49.7923" fill="#3A2E2B"/>
<path fill-rule="evenodd" clip-rule="evenodd" d="M80.2058 49.9786V144.082L78.623 143.37V50.6933C78.623 50.6656 78.6531 50.6228 78.6931 50.6052L80.1383 49.9534C80.1758 49.9358 80.2058 49.9534 80.2058 49.9786Z" fill="#3A2E2B"/>
<path fill-rule="evenodd" clip-rule="evenodd" d="M19.802 22.6846V117.11L17.7441 116.181L18.2192 23.3968C18.2192 23.3692 18.2492 23.3264 18.2892 23.3088L19.7345 22.6595C19.772 22.6418 19.802 22.6595 19.802 22.6846Z" fill="#3A2E2B"/>
<path d="M18.755 115.55V115.925C18.755 116.046 18.76 116.169 18.7475 116.287C18.735 116.398 18.7575 116.516 18.81 116.617C18.91 116.806 19.1051 116.851 19.2851 116.932L78.2845 143.301C78.357 143.334 78.427 143.349 78.492 143.349C78.6846 143.349 78.8271 143.208 78.8396 142.974C78.8571 142.667 78.632 142.31 78.3395 142.179L19.8502 116.036V116.313C19.8477 116.557 19.6952 116.708 19.4876 116.708C19.4276 116.708 19.3651 116.695 19.3001 116.67C19.0001 116.552 18.755 116.202 18.7575 115.887V115.545" fill="#F4E7D4"/>
<path d="M19.776 24.1445C19.5685 24.1445 19.4185 24.2955 19.4135 24.5396L18.7559 115.55L19.3385 115.809L19.8485 116.036L20.5061 25.2116C20.5061 24.897 20.2661 24.5497 19.9661 24.4314C19.8985 24.4063 19.836 24.3937 19.776 24.3937" fill="#F4E7D4"/>
<path d="M18.7584 115.553V115.892C18.7559 116.207 18.9984 116.557 19.2984 116.675C19.3635 116.7 19.4285 116.713 19.486 116.713C19.6935 116.713 19.846 116.562 19.846 116.318V116.041L19.3385 115.814L18.7559 115.555" fill="#F4E7D4"/>
<mask id="mask2_979_2447" style="mask-type:luminance" maskUnits="userSpaceOnUse" x="77" y="52" width="2" height="92">
<path d="M78.6219 143.326C78.5819 143.344 78.5369 143.351 78.4894 143.351C78.4669 143.351 78.4418 143.351 78.4193 143.346C78.4619 143.361 78.5044 143.369 78.5444 143.369C78.5719 143.369 78.5994 143.366 78.6244 143.359V143.326M77.6367 52.1875L77.8768 141.977L78.3393 142.184C78.4468 142.231 78.5444 142.309 78.6244 142.405V52.7337L77.6367 52.185" fill="white"/>
</mask>
<g mask="url(#mask2_979_2447)">
<path d="M78.623 51.5332H77.6328V143.366H78.623V51.5332Z" fill="#EFE1CC"/>
</g>
<path d="M78.6216 52.7344V142.403C78.7617 142.567 78.8467 142.781 78.8367 142.977C78.8292 143.153 78.7467 143.277 78.6216 143.327V143.36C78.8242 143.309 78.9692 143.07 78.9642 142.829L78.7242 52.7948L78.6191 52.7369" fill="#EFE1CC"/>
<path d="M19.7123 24.089C19.5098 24.0839 19.4398 24.2551 19.4248 24.4413C19.3998 24.7458 19.8649 25.2039 20.1699 25.3473L77.6366 51.2766L78.2417 51.5458C78.3242 51.5836 78.4042 51.6037 78.4767 51.6037C78.5892 51.6037 78.6842 51.5609 78.7517 51.4804L78.7642 50.884C78.6767 50.6952 78.5192 50.5266 78.3342 50.441L77.1465 49.91L20.2599 24.2425C20.2599 24.2425 19.9574 24.094 19.7098 24.089" fill="#F4E7D4"/>
<path fill-rule="evenodd" clip-rule="evenodd" d="M32.764 124.701V93.9021C32.764 91.6169 35.9345 90.4945 35.9345 90.4945C35.9345 90.4945 32.2739 85.9796 32.3914 83.4931C33.1066 68.3302 45.9736 68.8864 45.9736 68.8864C45.9736 68.8864 58.8482 79.9321 59.5633 95.7393C59.6808 98.3339 56.0202 99.547 56.0202 99.547C56.0202 99.547 59.1907 103.526 59.1907 105.811V136.61L32.7665 124.699H32.764V124.701Z" fill="url(#flameGold)"/>
<mask id="mask3_979_2447" style="mask-type:luminance" maskUnits="userSpaceOnUse" x="32" y="68" width="28" height="69">
<path d="M32.764 124.701V93.9021C32.764 91.6169 35.9345 90.4945 35.9345 90.4945C35.9345 90.4945 32.2739 85.9796 32.3914 83.4931C33.1066 68.3302 45.9736 68.8864 45.9736 68.8864C45.9736 68.8864 58.8482 79.932 59.5633 95.7392C59.6808 98.3339 56.0202 99.547 56.0202 99.547C56.0202 99.547 59.1907 103.526 59.1907 105.811V136.623L32.7665 124.699" fill="white"/>
</mask>
<g mask="url(#mask3_979_2447)">
<path fill-rule="evenodd" clip-rule="evenodd" d="M37.4242 128.972V95.4904C37.4242 93.0064 40.5947 91.6625 40.5947 91.6625C40.5947 91.6625 36.9341 86.8984 37.0516 84.1905C37.7667 67.6786 50.6338 67.7793 50.6338 67.7793C50.6338 67.7793 63.5083 79.283 64.2234 96.4391C64.3409 99.2553 60.6804 100.717 60.6804 100.717C60.6804 100.717 63.8509 104.92 63.8509 107.404V140.886L37.4267 128.975H37.4242V128.972Z" fill="url(#flameGold)"/>
</g>
<path d="M77.1465 49.9102L78.3342 50.4412C78.4442 50.4915 78.5467 50.5746 78.6292 50.6727C78.6392 50.6475 78.6642 50.6199 78.6942 50.6048C78.6542 50.5469 78.5967 50.5016 78.5292 50.4739L77.1465 49.9102Z" fill="#EFE1CC"/>
<path d="M78.6939 50.6045C78.6639 50.6171 78.6389 50.6473 78.6289 50.6724C78.6839 50.7379 78.7289 50.8083 78.7639 50.8838V50.831C78.7639 50.7479 78.7389 50.6699 78.6939 50.6045Z" fill="#EFE1CC"/>
<path d="M78.6232 51.5762C78.6232 51.5762 78.6105 51.5813 78.6055 51.5838C78.6131 51.594 78.6182 51.6067 78.6232 51.6169V51.5762Z" fill="#EFE1CC"/>
<path d="M78.7525 51.4802C78.7175 51.523 78.675 51.5532 78.625 51.5759V51.6161C78.6875 51.7319 78.725 51.8603 78.7275 51.9811V52.7914H78.73L78.7525 51.4802Z" fill="#EFE1CC"/>
<path d="M77.6348 51.2764V51.5331C77.6398 51.445 77.6673 51.3695 77.7098 51.3091L77.6348 51.2764Z" fill="#EFE1CC"/>
<path d="M77.7098 51.3096C77.6673 51.3675 77.6423 51.443 77.6348 51.5336V52.1854L78.6224 52.734V51.6166C78.6224 51.6166 78.6099 51.594 78.6049 51.5839C78.5649 51.5965 78.5224 51.604 78.4774 51.604C78.4049 51.604 78.3249 51.5864 78.2424 51.5461L77.7123 51.3096" fill="#F4E7D4"/>
<path d="M78.623 51.6162V52.7336L78.7281 52.7915V51.9811C78.7256 51.8578 78.6881 51.732 78.623 51.6162Z" fill="#F4E7D4"/>
<path d="M77.1451 49.9102L77.7202 51.1182L77.6352 51.239V51.2767L77.7102 51.3094L78.2403 51.546C78.3228 51.5837 78.4028 51.6039 78.4753 51.6039C78.5203 51.6039 78.5628 51.5963 78.6028 51.5837C78.6103 51.5837 78.6153 51.5787 78.6203 51.5762C78.6703 51.5561 78.7128 51.5233 78.7478 51.4806L78.7603 50.8841C78.7253 50.8086 78.6803 50.7356 78.6253 50.6727C78.5428 50.5746 78.4428 50.494 78.3303 50.4412L77.1426 49.9102" fill="#F4E7D4"/>
</svg>
