<svg xmlns="http://www.w3.org/2000/svg" width="275.48199" height="171.81799" viewBox="0 0 275.48199 171.81799">
  <path d="M50.56854,168.96669q-1.65381-3.03075-5.78906-1.65429a26.79078,26.79078,0,0,0-6.89161,5.51367,22.96458,22.96458,0,0,0-4.54882,7.167q-1.51758,3.86425-3.44532,7.71875-.82763,1.65381-1.92968,4.13477a30.70989,30.70989,0,0,1-2.48145,4.54883,15.44521,15.44521,0,0,1-3.30762,3.584,6.5714,6.5714,0,0,1-4.13476,1.51562,7.16828,7.16828,0,0,1-6.20313-3.44531,43.6789,43.6789,0,0,1-3.7207-6.47851A36.33027,36.33027,0,0,1,5.35955,174.204q.271-3.85694.55079-7.58008a25.34375,25.34375,0,0,1,1.65429-7.30566.79662.79662,0,0,1,.27539-.55078c.18164-.18164,0-.36622-.55078-.55176A4.45017,4.45017,0,0,1,4.53241,156.286a8.49521,8.49521,0,0,1-1.10254-3.03223,29.98939,29.98939,0,0,1-.27539-7.02929A48.0104,48.0104,0,0,1,4.257,139.19472,42.38522,42.38522,0,0,1,6.73748,130.787a69.07482,69.07482,0,0,1,3.85938-7.85645,1.58626,1.58626,0,0,0,.55176-1.10254c.18066,0,.27539-.043.27539-.13769,0-.09082.09082-.13819.27539-.13819a3.88,3.88,0,0,1-.27539,1.6543q-1.38282,4.41285-2.75684,8.68311A46.74159,46.74159,0,0,0,6.73748,140.849a14.72247,14.72247,0,0,0,.55176,7.99463,2.93885,2.93885,0,0,0,2.48047,1.791,3.72464,3.72464,0,0,0,3.03223-1.24023,12.6412,12.6412,0,0,0,1.792-2.20508,15.8171,15.8171,0,0,0,1.24023-2.481.88759.88759,0,0,1,.55176.82666,45.56456,45.56456,0,0,1-2.48047,8.5459,16.95586,16.95586,0,0,1-1.792,2.48047,5.833,5.833,0,0,1-2.61914,1.6543,1.121,1.121,0,0,0-.27539.82715l-.82715,5.78906a6.52263,6.52263,0,0,0-.41406,3.03223,10.97772,10.97772,0,0,1-.1377,3.03222c0,1.47266.043,2.80371.1377,3.99707q.13623,1.79591.41406,3.99707a19.42637,19.42637,0,0,0,1.6543,7.71875q1.9248,5.23975,6.33984,6.06446a3.88071,3.88071,0,0,0,3.03223-.1377,8.37931,8.37931,0,0,0,2.75683-1.792,19.04462,19.04462,0,0,0,3.584-4.96192q1.37548-2.75244,2.75586-5.51269,1.65527-3.85841,3.44629-7.30567,1.79-3.44384,3.99707-7.02929a10.09361,10.09361,0,0,0,.96484-1.10254,10.41535,10.41535,0,0,1,.96484-1.10254,39.05121,39.05121,0,0,1,4.82422-4.54883,9.36609,9.36609,0,0,1,5.92676-2.34277q2.48145,0,4.68652,2.75586a27.70929,27.70929,0,0,1,3.583,5.78906,21.74386,21.74386,0,0,0,3.584,5.51367,15.62831,15.62831,0,0,0,5.78906,4.41016,15.098,15.098,0,0,0,3.85937,1.10351,29.59312,29.59312,0,0,1,3.85938.82618,75.557,75.557,0,0,0,11.43945,1.92968q5.9253.55665,11.44043,1.10352h2.89453a15.02113,15.02113,0,0,1,2.89453.27539h10.751q3.30762-.271,6.75391-.41406,3.44385-.13478,6.7539-.41309,6.06006-.54931,13.64551-1.6543,7.57764-1.09863,15.29883-2.75683,7.71387-1.65381,15.16211-3.99707a88.15283,88.15283,0,0,0,12.95605-5.09961,19.45664,19.45664,0,0,0,3.16993-1.37793c1.00781-.55176,2.06738-1.10254,3.16992-1.6543q1.377-.82617,1.3789.82715a13.92385,13.92385,0,0,0-.27636,2.75684v2.75683a6.95756,6.95756,0,0,0,2.75683,5.92676,10.27919,10.27919,0,0,0,6.34082,2.06738,10.79313,10.79313,0,0,0,9.37207-4.68652,11.74028,11.74028,0,0,0,1.37891-5.23731,36.79815,36.79815,0,0,0,.41309-7.03027q-.14209-3.44238-.1377-7.0293v-12.1289a45.64772,45.64772,0,0,0,0-7.0293q-.27832-3.44385-.27539-7.02978,0-2.48072-.13867-4.96192-.14209-2.48071-.41309-5.23779-.27832-3.03-.41308-5.92676-.1421-2.89454-.41407-5.92676-.55517-4.68383-1.24023-8.959-.69141-4.27075-1.5166-8.68359a5.02448,5.02448,0,0,1,.13769-2.61866,21.68814,21.68814,0,0,0,.68946-2.61865A14.79345,14.79345,0,0,0,208.8,79.37587a8.54733,8.54733,0,0,1,1.10254-3.03271,3.26028,3.26028,0,0,1,.96485,1.92969,17.89165,17.89165,0,0,0,.41406,2.20556,57.20588,57.20588,0,0,1,1.791,6.75391q.68556,3.4497,1.24122,7.0293a17.67773,17.67773,0,0,1,.55078,4.273,17.41408,17.41408,0,0,0,.55175,4.27246,55.0648,55.0648,0,0,1,.68848,6.7539q.13623,3.45045.41406,6.75391v2.06738a12.08578,12.08578,0,0,0,.27539,2.34326,61.16281,61.16281,0,0,1,.1377,7.0293,64.90784,64.90784,0,0,0,.1377,7.30518,41.90748,41.90748,0,0,1,.13867,5.78906,40.54432,40.54432,0,0,0,.13769,5.78906,140.5438,140.5438,0,0,0,.82715,14.33447,39.118,39.118,0,0,0,3.583,13.50782,10.37144,10.37144,0,0,0,2.20508,3.30761q1.377,1.38282,3.0332,2.75684a3.36316,3.36316,0,0,1,.82617.55078q.27246.27832.82715.82715-.55518-1.09863-.82715-1.792a8.741,8.741,0,0,0-.82617-1.51563,15.75606,15.75606,0,0,1-2.206-8.82129,32.04249,32.04249,0,0,1,.27636-4.27343,19.39322,19.39322,0,0,1,1.10254-4.27247,19.94208,19.94208,0,0,1,7.167-9.92382,18.83292,18.83292,0,0,1,11.30274-3.5835,39.84441,39.84441,0,0,1,9.64746,1.103,30.65113,30.65113,0,0,1,9.09766,4.13476c.73144.55078,1.46875,1.10254,2.20507,1.65332q1.09865.82764,2.20508,1.6543c.36621.37012.457.64648.27539.82715q0,1.1045-.82617.27539c-1.47363-.36621-2.75684-.73242-3.85937-1.10254-1.47364-.36621-2.89454-.73242-4.27344-1.10254a16.57333,16.57333,0,0,0-4.27246-.55176,60.547,60.547,0,0,0-11.30274,1.10352,41.14922,41.14922,0,0,0-10.751,3.583l-2.48047,1.65429a.89564.89564,0,0,0-.27539,1.10254,37.37,37.37,0,0,0,.96484,5.78907,20.1469,20.1469,0,0,0,2.34277,5.51367,24.47047,24.47047,0,0,0,4.68653,6.33984,18.172,18.172,0,0,0,14.334,5.23731,17.61736,17.61736,0,0,0,6.8916-2.20508,63.13478,63.13478,0,0,0,14.61035-8.82129l3.3086-2.48047a1.60062,1.60062,0,0,1,1.10254-.27637,1.617,1.617,0,0,1,.27539,1.10254,42.93327,42.93327,0,0,1-1.792,4.13574q-.96826,1.93066-2.06739,4.13477a6.40279,6.40279,0,0,1-1.37793.82715,87.06539,87.06539,0,0,1-15.4375,10.6123,37.38005,37.38005,0,0,1-17.918,4.27344,24.607,24.607,0,0,1-13.92089-4.54883,27.42081,27.42081,0,0,1-9.78614-10.88867,25.44213,25.44213,0,0,1-2.206-10.47559,14.13218,14.13218,0,0,0-.68848,3.44629,19.05025,19.05025,0,0,1-.68945,3.72168,45.59375,45.59375,0,0,1-2.75684,5.23731,12.20008,12.20008,0,0,1-4.96191,3.85937,11.58393,11.58393,0,0,1-5.23731,1.10254,13.0164,13.0164,0,0,1-5.65136-1.24023,13.07843,13.07843,0,0,1-6.61621-7.85645,19.4188,19.4188,0,0,1-.68848-5.2373,9.4416,9.4416,0,0,0-1.92969.68847,15.4959,15.4959,0,0,0-1.65429.96485,145.56081,145.56081,0,0,1-38.73145,12.40527,236.057,236.057,0,0,1-40.66016,3.583q-6.61523,0-13.23144-.41309a92.89368,92.89368,0,0,1-13.23242-1.792,72.74108,72.74108,0,0,1-9.64844-2.89453,31.025,31.025,0,0,1-6.75391-3.583,23.50871,23.50871,0,0,1-5.2373-5.23828A75.08192,75.08192,0,0,1,50.56854,168.96669Zm180.56055-23.707q2.48-.8269,4.54785-1.65429c1.3789-.55127,2.7998-1.10254,4.27343-1.65381q6.88623-2.48072,13.50782-4.96192,6.61522-2.4807,13.50683-4.96191h1.10254a.347.347,0,0,1,0,.55127.79851.79851,0,0,0-.27539.55127,3.45973,3.45973,0,0,1-1.92969,2.481q-1.38281.5559-2.75683,1.10253-5.23976,1.93213-10.33692,3.85938-5.105,1.93214-10.33789,4.13525-4.13524,1.65381-8.40722,3.30811-4.27735,1.65381-8.6836,3.30762c-.37011.37011-.64648.46093-.82715.27539V150.497a5.94564,5.94564,0,0,1,1.10254-2.20508l1.92969-2.481q1.09863-1.37622,2.06738-2.75683.96241-1.37622,1.792-2.75635a34.78719,34.78719,0,0,1,1.792-3.17041,35.4293,35.4293,0,0,0,1.792-3.16992,39.2757,39.2757,0,0,0,3.16992-10.062,70.00621,70.00621,0,0,0,.68946-10.33741q-.27832-3.85694-.68946-7.71875a33.59809,33.59809,0,0,0-1.792-7.71826,61.2828,61.2828,0,0,0-5.375-12.543,97.79428,97.79428,0,0,0-8.82129-13.23193,104.10956,104.10956,0,0,0-10.88867-11.85352,58.03758,58.03758,0,0,0-11.30274-8.40771c-.92187-.91748-1.37792-.73242-1.37792.55127a25.33171,25.33171,0,0,1,.13769,4.54834,24.441,24.441,0,0,0,.1377,4.54883v.55127q.54932,14.614,1.24023,29.08252.68555,14.47264.1377,29.08251a49.26318,49.26318,0,0,1-.96485,8.5459,49.8226,49.8226,0,0,1-2.89453,9.92383,27.15971,27.15971,0,0,1-5.09961,8.13184,10.238,10.238,0,0,1-7.85644,3.4458,10.34737,10.34737,0,0,1-7.71875-3.99707,25.66122,25.66122,0,0,1-4.41016-7.58057,5.0447,5.0447,0,0,0-1.6543,2.75635q-1.38281,2.20971-2.75683,3.99756a13.44006,13.44006,0,0,1-3.583,3.17041,10.19329,10.19329,0,0,1-5.78906,1.65332,8.03943,8.03943,0,0,1-7.0293-3.30762,12.56172,12.56172,0,0,1-2.34375-7.44336.44437.44437,0,0,1-.1377-.55127c.09082-.18066.043-.27539-.13769-.27539-.18555,0-.46094.18506-.82715.55127a38.12574,38.12574,0,0,1-7.99414,7.85645,17.248,17.248,0,0,1-10.47559,3.44531,14.17043,14.17043,0,0,1-7.71875-2.48047,8.90145,8.90145,0,0,1-3.03222-5.51318q0-.54931-.1377-2.481a5.18259,5.18259,0,0,0-.41308-2.20557c-.3711-.18066-.82715,0-1.37891.55127a19.1725,19.1725,0,0,0-2.06738,1.792q-.96827.969-2.06739,2.06739a30.21588,30.21588,0,0,1-6.8916,5.51367,16.40819,16.40819,0,0,1-8.5459,2.48047q-9.09667,0-12.2666-5.37549-3.17284-5.37525-3.16992-13.36963a1.60928,1.60928,0,0,0-.27637-1.10254,52.24089,52.24089,0,0,1-1.37793,8.13233,53.70919,53.70919,0,0,1-2.89453,8.6831,26.19894,26.19894,0,0,1-4.68652,7.30567,12.66518,12.66518,0,0,1-7.0293,3.99707,13.74018,13.74018,0,0,1-8.5459-.55176,14.2668,14.2668,0,0,1-4.96191-3.584,24.36965,24.36965,0,0,1-5.5127-11.57763,26.38229,26.38229,0,0,1-.27539-6.61573,4.20051,4.20051,0,0,1,.55079-1.65429,3.57224,3.57224,0,0,1,1.24023,1.37842,5.18362,5.18362,0,0,0,.96484,1.37841,4.45129,4.45129,0,0,1,.68946,1.51612,4.25433,4.25433,0,0,0,.68945,1.51611,4.69258,4.69258,0,0,0,6.06445,1.92969,12.74048,12.74048,0,0,0,4.68653-2.481q6.33837-4.96216,6.06445-12.12939A14.3263,14.3263,0,0,0,65.04119,123.62a41.12435,41.12435,0,0,0-2.34375-4.27294,57.539,57.539,0,0,0-6.61621-7.71875q-2.75829-3.03-5.51269-6.06446-2.7583-3.03-5.78906-6.06445Q36.78142,91.50722,29.756,83.09707A94.0101,94.0101,0,0,1,17.76385,64.76552a11.5403,11.5403,0,0,0-3.583-5.23779q-1.38281-.8269-1.24023-1.92969a20.48869,20.48869,0,0,0,.13769-2.48095,14.85164,14.85164,0,0,0,.27539-3.30811v-.82666a2.47448,2.47448,0,0,0,.2754-1.103,1.58351,1.58351,0,0,1,.55175-1.10254.769.769,0,0,1,.96485.1377,3.55622,3.55622,0,0,0,.96484.68945A44.79446,44.79446,0,0,0,20.65838,53.601,46.81621,46.81621,0,0,1,25.20721,57.598,12.25611,12.25611,0,0,1,27.55,59.39q.96387.969,2.06836,2.06739c.55078.55127.73145.92187.55078,1.10254a2.1778,2.1778,0,0,1-1.37793.27588A11.92158,11.92158,0,0,1,26.17205,62.56a16.40377,16.40377,0,0,1-2.61914-.82666,31.535,31.535,0,0,0,3.85938,5.78857q2.75244,3.86352,5.65137,7.30518,2.89452,3.45044,6.20214,6.7539l8.27051,9.09717q2.75244,3.03661,5.375,6.06445,2.61768,3.03663,5.376,6.06446a49.22793,49.22793,0,0,1,4.96191,6.478,50.60249,50.60249,0,0,1,3.85938,7.30518,16.51234,16.51234,0,0,1,1.92969,6.75391q.271,3.72143.27539,7.30517a19.5481,19.5481,0,0,1-2.75684,9.78613,10.19978,10.19978,0,0,1-8.26953,5.37549,6.73824,6.73824,0,0,1-3.3086.27539q-1.6538-.271-3.30761-.55127a5.54026,5.54026,0,0,0,3.16992,3.99707,13.1896,13.1896,0,0,0,5.09961.96485q6.8877,0,11.57812-6.06446a23.13722,23.13722,0,0,0,5.78907-11.57812,123.90967,123.90967,0,0,0,1.92968-12.956q0-3.03.1377-6.34034.13623-3.30761.41406-6.34033.271-6.616.1377-13.23193-.14209-6.616-.1377-13.23194a33.99475,33.99475,0,0,0,0-6.06445q-.27833-3.03-.55176-6.06445a84.12494,84.12494,0,0,0-2.20507-18.74561A8.04106,8.04106,0,0,1,76.757,46.2958a14.327,14.327,0,0,1,.82617-3.03223q.54931-1.37622.96484-2.481c.27637-.73242.59473-1.55908.96484-2.48095.36622-.73243.64258-1.10254.82715-1.10254.18067,0,.457.37011.82715,1.10254a38.00865,38.00865,0,0,1,.82715,4.41064,35.74247,35.74247,0,0,0,.82715,4.41064q.54931,2.75831.82715,5.37549.271,2.62281.82617,5.37549v1.79151a5.57071,5.57071,0,0,0,.27637,1.792q.82617,9.09668.82714,18.19384,0,9.09669-.27636,18.46973v7.85645q0,3.999-.27539,7.85644a24.21458,24.21458,0,0,1-.1377,2.61865,8.3746,8.3746,0,0,0,.1377,2.61866,26.85331,26.85331,0,0,1,.27539,6.61621,14.71759,14.71759,0,0,0,.82715,6.34033c.36621,1.10254.68945,2.16211.96484,3.16992a6.53569,6.53569,0,0,0,1.792,2.89453,9.36975,9.36975,0,0,0,2.75684,1.37842,15.14578,15.14578,0,0,0,2.75586.82715,8.33812,8.33812,0,0,0,3.0332,0,23.98967,23.98967,0,0,0,12.95605-4.96191q2.20313-1.65454,4.41016-3.584,2.20313-1.92553,4.41113-3.85937c.36621-.36573.64161-.55127.82715-.55127q1.09717-.54932,1.65332,0c.36621.3706.36621.82714,0,1.37841-.18457.73633-.37011,1.42579-.55078,2.06739a7.45831,7.45831,0,0,0-.27637,2.06738,6.20261,6.20261,0,0,0,3.584,5.78906,18.29914,18.29914,0,0,0,7.167,1.6543,18.852,18.852,0,0,0,7.99512-1.92969,18.38249,18.38249,0,0,0,6.61523-4.96191,56.53016,56.53016,0,0,1,6.06446-5.2378c0-.55126.18164-.6416.55175-.27587.36621.3706.457.64648.27539.82714a2.4493,2.4493,0,0,0-.27539,1.10254,2.47447,2.47447,0,0,1-.27539,1.103,6.03849,6.03849,0,0,0,.68848,6.20215,6.57665,6.57665,0,0,0,5.65137,2.89453,13.26223,13.26223,0,0,0,8.82129-3.5835,24.88062,24.88062,0,0,0,2.89453-3.4458q1.24071-1.79,2.61914-3.99707l.55078-.55175a2.75659,2.75659,0,0,0,.68945-.96436c.09082-.27588.41309-.22852.96485.1377.36621.37011.5039.689.41308.96484a2.97975,2.97975,0,0,0-.13769.96484,20.86045,20.86045,0,0,0-.27539,3.4458,4.91618,4.91618,0,0,0,1.10253,3.16993q1.65381,2.759,6.06446,3.85937a10.86715,10.86715,0,0,0,7.168-.82715,16.699,16.699,0,0,0,3.85937-3.30762,8.6407,8.6407,0,0,0,1.37793-3.584,27.67275,27.67275,0,0,0,.27539-3.85937V124.309a34.12517,34.12517,0,0,0-.27539-4.13477q-.27833-4.68456-.41309-9.23486-.14208-4.54834-.41406-9.23486-1.3828-19.021-1.65429-37.49024a12.69148,12.69148,0,0,1-.2754-2.481V56.6332a13.63441,13.63441,0,0,0-.27539-2.61865,16.40013,16.40013,0,0,1,1.6543-7.44287,24.86167,24.86167,0,0,1,1.37793-3.30811,25.556,25.556,0,0,0,1.37793-3.30811q1.09863-1.6538,2.48145-.55127a107.48214,107.48214,0,0,1,26.87695,23.84522A78.79717,78.79717,0,0,1,241.3283,95.36416a76.24885,76.24885,0,0,1,.82715,19.29638,57.90771,57.90771,0,0,1-1.792,12.1294,49.44725,49.44725,0,0,1-4.54785,11.30224,35.50686,35.50686,0,0,1-1.792,3.17041,33.89653,33.89653,0,0,1-2.06739,2.89405A4.24291,4.24291,0,0,0,231.12909,145.25966ZM20.79705,208.662c-.55175,0-.64648-.18067-.27636-.55078a12.2085,12.2085,0,0,1,1.65429-3.85938,6.03374,6.03374,0,0,1,2.20508-1.10254q6.33839-2.20312,12.543-4.54883,6.20216-2.33789,12.543-4.54785,3.30762-1.377,6.75391-2.48144,3.44238-1.09864,6.75293-2.48047h1.10351c.18067.18457.08984.55078-.27637,1.10254a3.9713,3.9713,0,0,1-1.791,2.34277,22.58437,22.58437,0,0,1-2.61914,1.24023q-5.51807,1.93213-10.61328,3.85938-5.10352,1.93214-10.33789,4.13477-4.41211,1.65527-8.54493,3.30859l-8.2705,3.30762c-.18457.18554-.32227.23242-.41309.13769C21.11541,208.43447,20.97772,208.48134,20.79705,208.662Zm5.78809-67.5376q0-2.48072-.1377-5.09961-.14208-2.61695-.41308-5.09961-.55518-2.75244-.96484-5.37549-.4131-2.61695-.96485-5.65136a20.32432,20.32432,0,0,1-.82715-3.44581,24.2003,24.2003,0,0,1-.27539-3.72168q.54932-4.96141,4.68653-6.33984a8.21906,8.21906,0,0,1,.96484-.41357,7.45892,7.45892,0,0,0,.96484-.41358,3.04938,3.04938,0,0,0-2.75683-1.10254,4.04715,4.04715,0,0,0-1.24121,1.24024,3.94677,3.94677,0,0,1-1.24024,1.24072,4.99107,4.99107,0,0,1,0-2.34326c.18067-.6416.36621-1.33106.55176-2.06738a5.522,5.522,0,0,1,1.65332-2.75684,2.50394,2.50394,0,0,1,2.75684-.55127,14.25452,14.25452,0,0,1,6.06445,4.68652,3.13657,3.13657,0,0,1,.27637,2.20508,5.44134,5.44134,0,0,1-4.68653,3.85938,11.67409,11.67409,0,0,0-5.51367,2.20508q-1.1045.27831-.82715,1.92968a75.15916,75.15916,0,0,1,2.34375,11.30225,94.10846,94.10846,0,0,1,.68946,11.57812A8.21011,8.21011,0,0,1,26.58514,141.12441ZM55.53045,70.00283c.18067-.917.36621-1.88184.55078-2.89405q.27246-1.51245.55176-2.89453a21.21108,21.21108,0,0,0,.82715-3.4458,8.45,8.45,0,0,1,1.37793-3.4458,18.74993,18.74993,0,0,1,1.24121-1.6543,2.5287,2.5287,0,0,1,2.06738-.82666,4.28873,4.28873,0,0,1,3.583,4.41065c-.18457,0-.27539.18506-.27539.55127,0,1.10254-.37012,1.74853-1.10254,1.92969a.54177.54177,0,0,1-.82715-.27588,3.37075,3.37075,0,0,0-.55175-.82715q-1.65381-1.9248-3.03223.27588A13.46879,13.46879,0,0,0,58.425,64.76552q-.41308,1.9314-.96484,4.13477a20.42585,20.42585,0,0,0-.82715,3.4458,8.66692,8.66692,0,0,1-1.10254,3.17041q-.55517,1.1045-.82715.82666c-.37011,0-.55078-.36572-.55078-1.10254a24.529,24.529,0,0,0-1.65429-5.51318q-1.1045-2.48145-2.48145-4.96192-.27685-1.09863-1.37793-.55127A3.77585,3.77585,0,0,1,45.882,63.663a4.447,4.447,0,0,1-1.92969-2.20556,1.59433,1.59433,0,0,1,.27539-1.10254,8.29051,8.29051,0,0,0,.41406-.96485,2.66543,2.66543,0,0,1,.68945-.96484A2.63522,2.63522,0,0,1,49.466,57.598c.36621.37061.73242.73682,1.10254,1.10254A9.44479,9.44479,0,0,1,51.67108,60.079a28.31757,28.31757,0,0,1,2.34277,4.68652A31.818,31.818,0,0,1,55.53045,70.00283Zm51.8252,7.99463a24.63351,24.63351,0,0,1-.82715,3.72119,10.01453,10.01453,0,0,1-1.92969,3.4458,3.7427,3.7427,0,0,1-2.48144.55127.437.437,0,0,1-.41309-.27539c-.09473-.18115-.23242-.09033-.41309.27539a31.84962,31.84962,0,0,1-1.92968,7.30517q-1.38282,3.45045-2.75684,7.02979-.82764,3.03662-1.5166,5.78857a17.18988,17.18988,0,0,0-.41309,5.78907,9.1532,9.1532,0,0,0,2.06739,6.06494,6.96282,6.96282,0,0,0,5.65136,2.481,13.09931,13.09931,0,0,0,6.75391-2.06787,29.23974,29.23974,0,0,0,5.65039-4.27246q3.03077-2.75244,5.65137-5.65137,2.61621-2.89452,5.09961-5.92675A103.5148,103.5148,0,0,1,139.74627,89.4374a83.13462,83.13462,0,0,1,16.40137-9.51026,23.405,23.405,0,0,1,3.03223-1.51611q1.65526-.68555,3.30859-1.24072a.77074.77074,0,0,0,.55078-1.10254,26.2926,26.2926,0,0,1-1.65332-2.75684,13.17117,13.17117,0,0,1-1.3789-8.27A10.14841,10.14841,0,0,1,162.90155,59.39a8.03792,8.03792,0,0,1,5.92675-2.34326,10.90057,10.90057,0,0,1,3.99707.96485,29.52149,29.52149,0,0,1,4.68653,2.481q2.33936,1.51831,4.41113,3.03223a28.803,28.803,0,0,1,3.16992,2.61914,8.50815,8.50815,0,0,1,1.92969,2.75635,5.02441,5.02441,0,0,1-.27539,3.584,4.95678,4.95678,0,0,0-.82715,3.03223,4.89666,4.89666,0,0,1-1.792,3.03223,11.332,11.332,0,0,1-3.16992,1.37841,50.59917,50.59917,0,0,0-4.96192,1.37793,49.55013,49.55013,0,0,1-4.96191,1.37842,1.08185,1.08185,0,0,0-.82715,1.10254v2.75684c0,.73681-.27637,1.10254-.82715,1.10254q-.55518.27831-1.10254-.82666a.24623.24623,0,0,0-.27636-.27588c-.37012-1.10254-.68848-1.69678-.96485-1.792a4.732,4.732,0,0,0-2.06738.41358q-5.51661,2.20971-10.751,4.68652A66.47881,66.47881,0,0,0,144.29412,95.64a54.99564,54.99564,0,0,0-8.82128,6.61573,81.85571,81.85571,0,0,0-7.99415,7.99414q-3.03662,3.03662-5.78906,6.34033-2.75829,3.30835-5.78906,6.34033a25.67293,25.67293,0,0,1-4.96191,3.85938,11.57068,11.57068,0,0,1-6.06446,1.65381,10.43739,10.43739,0,0,1-8.26953-3.85889,17.66715,17.66715,0,0,1-4.13476-8.5459,18.48348,18.48348,0,0,1-.27637-7.167c.18066-1.103.55176-2.79981,1.10254-5.1001q.82764-3.44385,2.06738-7.0293a64.89009,64.89009,0,0,1,2.75684-6.7539,16.876,16.876,0,0,1,2.89453-4.54834v-.82715a7.79545,7.79545,0,0,1-1.24024-4.686,30.1769,30.1769,0,0,1,.68946-4.96191q.54931-2.20386,1.24023-4.41064.68409-2.20312,1.24024-4.41065a17.892,17.892,0,0,0-3.03223-16.26465,20.16967,20.16967,0,0,0-2.48047-3.03222,1.37563,1.37563,0,0,1,0-2.20508c.73145-1.46875,1.24023-2.20557,1.51562-2.20557s.87012.55127,1.792,1.6543a18.87125,18.87125,0,0,1,4.96191,10.751,25.64459,25.64459,0,0,1-.27539,8.40772,48.21967,48.21967,0,0,1-2.48144,8.13184,49.77011,49.77011,0,0,0-1.37793,4.96191,3.90612,3.90612,0,0,0,0,2.06787c.18066.646.36621,1.24023.55078,1.7915q1.09863,1.93214,3.03222.55127a9.245,9.245,0,0,0,1.10352-1.37793A8.79,8.79,0,0,1,107.35565,77.99746Zm8.26953,94.55322q-3.58595,0-3.584-3.584a20.06946,20.06946,0,0,1,.82715-5.78906q.82764-2.75244,1.92969-5.78906.54932-1.37548,1.24121-2.75684.68409-1.37548,1.24024-2.75586a3.06743,3.06743,0,0,1,.41308-.68945,3.18236,3.18236,0,0,0,.41406-.68945,1.80361,1.80361,0,0,1,1.37793,0c.18067.18554.09082.46094-.27539.82715a26.707,26.707,0,0,1-1.3789,4.13476c-.18457.3711,0,.82715.55176,1.37891.55078.55078,1.1455,1.10254,1.792,1.65332a5.61019,5.61019,0,0,1,1.51562,2.20605,5.37066,5.37066,0,0,1,.96485,3.44532,19.10662,19.10662,0,0,1-.68848,3.72168,5.74133,5.74133,0,0,1-2.34375,3.44531A6.87126,6.87126,0,0,1,115.62518,172.55068Zm0-11.85352a26.00737,26.00737,0,0,0-1.6543,4.96192q-.27685,2.48,1.92969,2.48047a7.06887,7.06887,0,0,0,3.584-1.6543q2.20313-1.37548.27539-3.03223-1.10448-.82617-2.06738-1.51562A16.26936,16.26936,0,0,0,115.62518,160.69716Zm3.03223-81.32129a12.26883,12.26883,0,0,1,2.61914-2.06787c.82714-.45654,1.69726-.96484,2.61914-1.51611q3.0293-1.65381,6.06445-3.30762,3.0293-1.65453,6.06445-3.3081a4.3143,4.3143,0,0,1,1.10254-.82715.87976.87976,0,0,0,.55176-.82715.99488.99488,0,0,0-.96484-.55127,2.71343,2.71343,0,0,1-1.24121-.27539,28.175,28.175,0,0,0-5.5127-.55127H118.9328q-1.65381,0-.55078-1.103a14.50015,14.50015,0,0,0,2.20507-3.58349,7.89388,7.89388,0,0,1,2.75684-3.30811,6.61028,6.61028,0,0,1,3.85937-1.37842,52.8028,52.8028,0,0,1,10.751,0,20.16514,20.16514,0,0,1,6.8916,1.103q2.75244,1.38209,1.10254,3.5835a31.2524,31.2524,0,0,1-6.06445,8.82129,26.655,26.655,0,0,1-9.09668,5.78906q-3.03663.82691-6.06543,1.65381Q121.68523,78.54849,118.65741,79.37587Zm15.4375,44.93311a25.53886,25.53886,0,0,1,3.03222-2.06738,25.0164,25.0164,0,0,0,3.03223-2.06739,20.81224,20.81224,0,0,0,3.30762-2.89453q1.37694-1.51171,2.75683-3.17041a63.6,63.6,0,0,1,4.68653-5.2373,22.07576,22.07576,0,0,1,5.78906-4.13526,10.77656,10.77656,0,0,1,7.167-.27539,6.34665,6.34665,0,0,0,3.44629.1377,4.534,4.534,0,0,0,2.61816-2.34326,4.29457,4.29457,0,0,0,.82715-1.10254,4.2776,4.2776,0,0,1,.82715-1.10254c0-.36621.27539-.55127.82715-.55127.18066.18506.18066.55127,0,1.10254a.921.921,0,0,1-.41309.82666c-.27636.18555-.2334.46094.1377.82715a1.5671,1.5671,0,0,0,1.10254.55127h2.20508c.73242,0,.918-.27539.55175-.82666a3.31791,3.31791,0,0,1,.55078-3.584c.36622-.55127.82715-.45654,1.37891.27588a2.51171,2.51171,0,0,1,.41309,1.7915,12.34809,12.34809,0,0,0-.1377,1.792,4.83787,4.83787,0,0,0-.41406,1.37842,2.49069,2.49069,0,0,1-.68848,1.37841q-1.65381,3.58594-4.96191,1.92969a2.62888,2.62888,0,0,0-3.03223.27539,6.13531,6.13531,0,0,1-7.168,1.37842,9.53153,9.53153,0,0,0-4.54785,0,12.38717,12.38717,0,0,0-3.99707,1.92969,16.25978,16.25978,0,0,0-3.44629,2.61865q-1.51758,1.51832-2.89453,2.89453a39.17134,39.17134,0,0,0-3.44531,3.30811,17.85834,17.85834,0,0,1-3.72168,3.03222A15.2646,15.2646,0,0,1,134.09491,124.309Zm24.25878,76.63525a14.17827,14.17827,0,0,1,1.37793-2.61914,14.28935,14.28935,0,0,0,1.37793-2.61914q.54933-1.37548,1.6543-.55078c1.10254.73633,2.24805,1.47266,3.44629,2.20508a30.20925,30.20925,0,0,1,3.44531,2.48047,3.134,3.134,0,0,1,.27539,2.20605,15.33521,15.33521,0,0,1-1.37793,3.03223q-.82763,1.3828-1.65429,2.75684a.87731.87731,0,0,1-1.37793.27539,24.74966,24.74966,0,0,0-3.30762-2.34375q-1.65528-.96242-3.30859-2.06739c-.55079-.55078-.92188-.456-1.10254.27637a15.84574,15.84574,0,0,1-1.24024,2.06738,11.0754,11.0754,0,0,0-1.24023,2.34278c-.3711.73632-.82715.82714-1.37891.27539q-1.93212-1.3755-3.72168-2.48047a28.77775,28.77775,0,0,1-3.44531-2.48145.8757.8757,0,0,1-.27539-1.37793,26.8972,26.8972,0,0,1,1.37793-2.89453,19.52637,19.52637,0,0,0,1.37793-3.16992q.82764-1.377,1.92969-.55176,1.92627,1.38282,3.72168,2.48145A18.95316,18.95316,0,0,1,158.35369,200.94423ZM164.96893,66.9706c-1.10254,0-1.47266.55127-1.10254,1.6543a26.32006,26.32006,0,0,0,1.37891,2.89453,27.96386,27.96386,0,0,1,1.37793,2.894,1.1149,1.1149,0,0,0,1.37793.55176q1.92627-.54932,3.72168-1.24072,1.79-.68482,3.44628-1.24024,1.3755-.54931.2754-1.37842a3.33235,3.33235,0,0,0-1.6543-1.24072,9.26664,9.26664,0,0,1-1.92969-.96484q-1.65381-.54931-3.30762-1.10254A20.81818,20.81818,0,0,0,164.96893,66.9706Zm47.415,139.21094a20.00374,20.00374,0,0,0,6.33984-1.10254q.82764-.54931.82715,0l-.55176.55078a11.03138,11.03138,0,0,1-7.71777,2.75684,3.90758,3.90758,0,0,1-2.34375-.68946,2.36076,2.36076,0,0,1-.96484-2.06738,10.69344,10.69344,0,0,1,2.48144-6.33984c-1.47363-.55176-2.20605-1.37891-2.20605-2.48145a5.37609,5.37609,0,0,1,1.92968-3.583c1.10352-1.46875,2.11133-2.20605,3.03223-2.20605l.55176.55176a1.617,1.617,0,0,1,.27539,1.10254l-.55078,1.10253q-.82764.82764-.82715.55176c0-.55176-.37012-.82715-1.10254-.82715q-.27832,0-.82715.82715a1.08076,1.08076,0,0,0-.82715,1.10254,3.22044,3.22044,0,0,0,2.75684,1.10254q.54931,0,1.6543-1.10254a7.76587,7.76587,0,0,0,1.65332-1.37793c.18164,0,.27636.18457.27636.55078a4.42255,4.42255,0,0,1-1.10351,2.75684,20.42582,20.42582,0,0,0-5.78809,6.06445,2.43663,2.43663,0,0,0-.27637,1.10254Q209.07537,206.18105,212.384,206.18154Z" transform="translate(-3.06116 -37.19912)" fill="#231f20"/>
</svg>
