<svg xmlns="http://www.w3.org/2000/svg" width="275.38867" height="192.63389" viewBox="0 0 275.38867 192.63389">
  <path d="M266.09219,135.67837a28.22044,28.22044,0,0,1-1.6543,6.34033q-1.10448,2.48145-1.92968,4.273a9.15263,9.15263,0,0,1-1.6543,2.61866,26.26484,26.26484,0,0,1-7.0293,6.20263,55.554,55.554,0,0,1-9.92382,4.96143,67.615,67.615,0,0,1-10.751,3.1709,47.9007,47.9007,0,0,1-9.50977,1.10254,31.29067,31.29067,0,0,1-5.92675-.55176,38.01272,38.01272,0,0,1-5.92676-1.65332q-.82764,2.48-2.61914,7.44238a75.93337,75.93337,0,0,1-3.16992,7.71875,27.89109,27.89109,0,0,0-1.10254,3.584,31.94277,31.94277,0,0,1-1.92969,5.2373q-1.65528,4.69043-2.61914,8.26953a25.46477,25.46477,0,0,0-.96485,6.61621,10.237,10.237,0,0,0,2.20508,6.61621,6.5901,6.5901,0,0,0,5.78906,2.75684q6.06006,0,13.50782-7.168.54932-.54784,3.85937-4.13477,3.30762-3.57861,9.92383-10.4746,18.74268-20.67481,33.35547-20.67579a11.33656,11.33656,0,0,1,7.44238,2.75684,7.0986,7.0986,0,0,1,3.03223,6.06445,16.80219,16.80219,0,0,1-1.37793,7.44336c-.37012.92188-.64649,1.37793-.82715,1.37793l-.82715-1.37793a10.385,10.385,0,0,0-9.37207-5.51367q-11.30712,0-26.18847,14.88672-3.8628,4.69043-7.99415,8.959-4.13525,4.27736-8.26953,8.959-6.895,7.44286-13.50781,7.44238a9.71944,9.71944,0,0,1-5.51367-1.65332,14.7785,14.7785,0,0,1-4.13477-4.13476,21.72914,21.72914,0,0,1-2.61914-5.51368,19.008,19.008,0,0,1-.96484-5.78906q0-9.92432,8.27051-25.91211a29.10948,29.10948,0,0,0,1.10254-3.584q.54932-2.20312,1.24023-4.41114.68555-2.20312,1.24023-3.99707c.36622-1.19238.64258-2.06738.82715-2.61816a17.98516,17.98516,0,0,0-3.99707-1.92969,40.36275,40.36275,0,0,1-6.33984-3.17041,46.964,46.964,0,0,1-6.8916-5.09961,29.94759,29.94759,0,0,1-5.92676-7.16748,1.11539,1.11539,0,0,0-1.10254-.55127,7.61444,7.61444,0,0,0-3.0332,1.37842q-2.209,1.38282-4.54785,3.16992-2.34522,1.79664-4.41114,3.72168-2.06689,1.9314-2.89453,2.75635,3.58008,2.759,13.7832,4.687,9.36915,2.209,12.12989,4.13477,3.0293,2.48,3.03222,7.44238,0,7.72119-6.61621,14.47266a74.30573,74.30573,0,0,1-15.85058,12.1289,143.31728,143.31728,0,0,1-18.88282,9.23535,140.254,140.254,0,0,1-15.98828,5.5127,160.66268,160.66268,0,0,1-46.03613,6.8916q-44.65869,0-70.84668-13.23144a56.40153,56.40153,0,0,1-10.6123-8.82129,88.32406,88.32406,0,0,1-8.959-10.47559,32.435,32.435,0,0,1-2.48144-4.13476q.54932,0,4.68652,2.48144,16.26123,10.75048,27.56641,14.61035,25.90869,8.82421,63.40234,8.82031a164.88272,164.88272,0,0,0,41.07422-5.375,152.30731,152.30731,0,0,0,38.59375-15.57519q12.95361-7.44286,15.98828-12.95606,0-.82762-2.20508-1.65429-2.21044-.82617-4.96191-1.65332-2.75978-.82764-5.376-1.37891a21.89135,21.89135,0,0,0-3.44531-.55078q-1.106-.27246-3.584-1.10352-2.48144-.82617-4.96191-1.92871a24.673,24.673,0,0,1-4.41113-2.48144,3.81465,3.81465,0,0,1-1.92969-3.03223,1.53376,1.53376,0,0,1-.1377-1.10254,4.55831,4.55831,0,0,0,.1377-1.10254,26.26143,26.26143,0,0,1,5.65137-11.44043,68.77639,68.77639,0,0,1,8.959-8.959q6.8877-4.68457,10.2002-4.68652,3.30762,0,6.06445,5.23779,1.9248,3.03661,7.58105,7.30517a31.66859,31.66859,0,0,0,10.88868,5.65088q2.20313-3.3076,4.27246-6.75341,2.06689-3.44385,4.27246-7.02979,2.75244-4.13452,5.376-7.44287a34.18517,34.18517,0,0,1,5.375-5.51318q6.33837-6.06079,13.50781-6.065a17.16106,17.16106,0,0,1,6.61621,1.51661,30.00272,30.00272,0,0,1,6.61621,3.85888,23.64675,23.64675,0,0,1,5.09961,5.37549A11.09973,11.09973,0,0,1,266.09219,135.67837Zm-97.86133,36.38819q2.20313-1.09865,2.20508.27539.27246.55517,0,.82715c-.18457.18457-.46094.46093-.82617.82714a17.75207,17.75207,0,0,1-2.06836,2.75586,18.28948,18.28948,0,0,0-2.06738,2.75684,4.14506,4.14506,0,0,1-2.20508,1.37891q-3.8628,1.10448-9.23438,2.75683-5.376,1.65381-8.68359,2.75586-1.93213.55663-4.68652,1.5166-2.7583.96827-5.23731,1.792c-1.65429.55079-3.21777,1.05957-4.68652,1.51563q-2.209.69141-3.30762.96484a85.47581,85.47581,0,0,1-11.165,3.16993,52.44674,52.44674,0,0,1-10.33691.96484q-6.61669,0-9.37305-3.03223-2.75831-3.0293-3.30762-9.37207a25.474,25.474,0,0,1-8.4082,7.167,22.02772,22.02772,0,0,1-10.61328,2.75684q-12.1333,0-16.53906-11.57812a26.24591,26.24591,0,0,1-.82715-4.41016,20.67971,20.67971,0,0,0-.82715-4.13574,16.36661,16.36661,0,0,1-.82715-2.61817,2.49157,2.49157,0,0,0-1.65429-1.792,7.904,7.904,0,0,0-8.26954,1.51563,30.23741,30.23741,0,0,0-6.06445,6.47851,29.59753,29.59753,0,0,0-2.61914,4.54883,47.14324,47.14324,0,0,1-2.61914,4.82422,16.80737,16.80737,0,0,1-3.30762,3.85937,7.36026,7.36026,0,0,1-4.96191,1.65332,7.24577,7.24577,0,0,1-6.33984-3.16992,19.29343,19.29343,0,0,1-3.03321-6.7539,48.43375,48.43375,0,0,1-1.37793-8.82129,38.3351,38.3351,0,0,1,.55176-9.09668,60.14968,60.14968,0,0,1,4.68555-16.26416c.73242-1.2837,1.28418-1.92969,1.65429-1.92969.36621,0,.457.37012.27539,1.10254a8.75994,8.75994,0,0,1-.55078,1.65381q-.55663,1.65381-1.3789,5.51318-.82617,3.86426-1.10254,5.23779-.82617,4.96143-1.24024,10.61328a15.46732,15.46732,0,0,0,2.89453,10.33692,6.665,6.665,0,0,0,4.13477,3.0332,6.33658,6.33658,0,0,0,6.34082-1.792,20.63391,20.63391,0,0,0,3.85938-5.65137,33.10387,33.10387,0,0,1,12.956-14.88574,20.22484,20.22484,0,0,1,4.27246-2.06738,8.44786,8.44786,0,0,1,4.54883-.1377,5.088,5.088,0,0,1,2.61816,1.92871,11.12972,11.12972,0,0,1,1.51661,3.3086,29.519,29.519,0,0,1,1.10253,3.583q.54933,2.21046,1.10254,4.13575a22.38342,22.38342,0,0,0,1.37891,3.99707,12.01286,12.01286,0,0,0,2.48047,3.44531,14.43583,14.43583,0,0,0,5.51367,2.89453,24.902,24.902,0,0,0,6.06445.68945,23.88464,23.88464,0,0,0,5.23731-.55175,21.49177,21.49177,0,0,0,5.51367-2.20508,22.50689,22.50689,0,0,0,2.61914-1.92969q2.0669-1.65381,2.89356-2.20508.54931-.54932,2.206-1.92969a9.37239,9.37239,0,0,1,2.48047-1.65429c.55176,0,.78027.09472.68945.27636a.95968.95968,0,0,0,.1377.82618,1.58972,1.58972,0,0,1-.55078,1.10351,14.31643,14.31643,0,0,0-.82715,1.92871c-.18555.55176-.3711,1.10352-.55176,1.6543q-.27833,3.86426,1.5166,5.376a10.76151,10.76151,0,0,0,5.375,2.06738,10.16585,10.16585,0,0,1,1.6543.13769,9.73933,9.73933,0,0,0,1.65429.1377,39.96227,39.96227,0,0,0,7.30469-.68945q3.7207-.68409,7.30469-1.51563a33.89013,33.89013,0,0,1-8.54492-9.78613,20.18473,20.18473,0,0,1-2.20606-12.543q1.377-9.3684,7.03028-13.09424a33.25028,33.25028,0,0,1,14.19629-4.82373q3.03075-.27173,6.7539-.27588,3.7207,0,6.75391-.27588,6.8877-.54858,11.02637-3.85888a25.34326,25.34326,0,0,0,1.92968-1.6543,2.24873,2.24873,0,0,1,1.6543-.55127c.55078-.18066.7793-.13769.68848.1377a1.23555,1.23555,0,0,0,.13867.96484,4.83119,4.83119,0,0,1-.55176,1.37842,26.829,26.829,0,0,1-3.03223,3.99707,22.70375,22.70375,0,0,1-4.13476,3.4458,36.97989,36.97989,0,0,1-12.40528,4.82422,82.82633,82.82633,0,0,1-13.50781.96484q-2.75829.27759-6.33984.96485a10.85668,10.85668,0,0,0-5.78906,2.89453,27.6278,27.6278,0,0,0,7.30468,14.61035,24.65138,24.65138,0,0,0,14.47266,7.71875,21.15727,21.15727,0,0,0,5.78906-.27637,43.1222,43.1222,0,0,0,6.61621-1.65332q3.30762-1.09863,8.26953-2.48144Q164.37247,173.17153,168.23086,172.06656ZM27.09024,139.81363q4.96289-3.85767,10.0625-7.44287,5.09766-3.57934,9.78613-7.44336a9.51531,9.51531,0,0,0-1.3789-1.10254,4.89356,4.89356,0,0,1-1.37793-1.37842,5.01842,5.01842,0,0,1-.82715-4.13477,17.3702,17.3702,0,0,1,1.65429-3.85937,25.78757,25.78757,0,0,1,1.792-2.61865,13.98284,13.98284,0,0,1,2.34277-2.34327q2.75244-1.92554,4.68652,1.10254a12.65111,12.65111,0,0,1,.82715,7.99414,15.4273,15.4273,0,0,0-.55176,2.89454c0,.46093.73243,1.15039,2.20508,2.06787.36621.37011.68945.689.96485.96484.27539.27539.59472.59863.96484.96484a2.08991,2.08991,0,0,1,.13769,1.9292,12.27689,12.27689,0,0,0-.68847,1.6543c-.18555.18506-.27637.32275-.27637.41357,0,.09473-.09473.23243-.27539.41358a1.37671,1.37671,0,0,1-2.20508,0,12.35937,12.35937,0,0,0-3.85937-3.03272,1.20281,1.20281,0,0,0-1.6543.27588,37.14273,37.14273,0,0,1-4.27246,4.13477,46.37675,46.37675,0,0,1-5.78906,4.13525A40.86075,40.86075,0,0,1,33.017,138.5729,16.33764,16.33764,0,0,1,27.09024,139.81363Zm24.53418-22.6045a3.236,3.236,0,0,0-1.10254-2.75683,1.66272,1.66272,0,0,0-1.51563.27588,7.21959,7.21959,0,0,0-1.5166,1.10254q-1.3828,1.93138.82715,3.03222l1.10254.55127q2.20313,1.10523,2.20508-1.37842ZM73.12637,97.0856a11.45535,11.45535,0,0,1-2.75586,6.8916,30.56136,30.56136,0,0,1-5.23828,5.51318q-2.209,1.1045-1.92969,1.10254v-.27539a.24434.24434,0,0,1,.27539-.27588,2.20409,2.20409,0,0,0,.41407-.55127,1.49146,1.49146,0,0,1,.68945-.55126q5.78906-6.616,5.78906-8.82129a1.708,1.708,0,0,0-1.92969-1.92969,2.68782,2.68782,0,0,0-1.92968.55127,2.44916,2.44916,0,0,1-1.10352.27588.55883.55883,0,0,1,.13867-.41358,1.09648,1.09648,0,0,0,.1377-.68945q.82617-4.40625,4.68652-4.41064Q73.1215,93.50162,73.12637,97.0856Zm-8.54492,47.68994a16.87907,16.87907,0,0,1,4.41016-3.03223q2.48144-1.37622,5.09961-2.75683a57.00317,57.00317,0,0,0,5.0996-3.03223c1.10352-.36621,1.55957-.73242,1.37891-1.10254a.65591.65591,0,0,0-.55176-.68945,4.63225,4.63225,0,0,0-1.10254-.1377,15.754,15.754,0,0,0-4.68652-.41357,29.42128,29.42128,0,0,1-4.96191-.1377H64.85684q-.82764,0-.55176-.82714a12.67322,12.67322,0,0,0,1.792-3.03223,7.96949,7.96949,0,0,1,2.34375-3.03223,8.49391,8.49391,0,0,1,3.30762-1.10254h9.37207a14.18522,14.18522,0,0,1,5.78906,1.10254q1.92627.8269,1.10254,3.03223-1.10448,1.65381-2.20507,3.30811a39.43477,39.43477,0,0,1-2.48047,3.30761l-3.03223,3.03272a10.97781,10.97781,0,0,1-2.75684,1.65381q-1.3828.5559-2.75683,1.10253-2.48145.82691-4.96192,1.51612Q67.33732,144.22623,64.58145,144.77554ZM80.29434,166.0021q-2.21044-1.92627-3.99707-3.44629-1.79736-1.51172-3.72168-3.16992c-.37109,0-.37109-.18066,0-.55176.55078-1.10253,1.14551-2.248,1.792-3.4458a20.93853,20.93853,0,0,1,2.06739-3.16992.87882.87882,0,0,1,.82714-.55127,20.02275,20.02275,0,0,1,2.06739,1.37842,20.597,20.597,0,0,1,2.06738,1.65381c.55078.3706,1.33105.96484,2.34277,1.792,1.00782.82666,1.5166,1.42578,1.5166,1.792a7.34,7.34,0,0,1-1.65429,3.85938,37.61882,37.61882,0,0,0-2.48145,3.30762Q80.56533,166.278,80.29434,166.0021Zm83.52637-98.41259a11.70962,11.70962,0,0,1-.27637-2.20557,3.12123,3.12123,0,0,0-.27539-1.37842,9.92264,9.92264,0,0,1-.55078-1.37842,3.51346,3.51346,0,0,0-.82715-1.37793l2.20508-6.8916c.55176-.91748.917-1.37842,1.10254-1.37842.55175,0,1.00781.46094,1.37793,1.37842q4.68456,6.34423,7.168,10.4751a4.43884,4.43884,0,0,1,1.10253,2.75684.48708.48708,0,0,1-.55175.55127,12.2427,12.2427,0,0,1-3.85938-1.6543.79689.79689,0,0,0-.55078.27588c.36621,1.10254.82715,2.438,1.37793,3.99707q.82764,2.34521,1.92969,5.37549a120.03627,120.03627,0,0,1,3.584,11.99121,37.79137,37.79137,0,0,1,1.10254,8.13232,25.632,25.632,0,0,1-1.92969,10.751q-3.03662,7.99878-10.751,7.99414a14.043,14.043,0,0,1-12.68067-7.167q-3.03661-4.13526-4.96191-12.68067a42.73622,42.73622,0,0,1-1.92969,7.85645,26.59084,26.59084,0,0,1-3.72168,7.167,19.77067,19.77067,0,0,1-5.78906,5.23779,15.51441,15.51441,0,0,1-8.13184,2.06739,12.88488,12.88488,0,0,1-7.30468-1.92969,13.80834,13.80834,0,0,1-4.54883-4.96192,22.48593,22.48593,0,0,1-2.34278-6.7539,39.92238,39.92238,0,0,1-.68945-7.30469q0-4.407.41309-8.5459a45.53569,45.53569,0,0,1,1.5166-7.99414,10.69841,10.69841,0,0,0,.82715-3.03223l-.27539-.27587q-.27832,0-1.92969,2.20556-1.93213,3.30762-4.13574,13.23194-1.65381,6.34423-2.61817,10.19921a48.94241,48.94241,0,0,1-1.5166,5.2378,13.85472,13.85472,0,0,1-1.37793,3.3081,25.08572,25.08572,0,0,1-1.92969,2.75635,4.59263,4.59263,0,0,1-3.03222,1.6543,8.126,8.126,0,0,1-6.20313-2.481,18.187,18.187,0,0,1-3.7207-6.06494,29.15926,29.15926,0,0,1-1.792-7.44287,63.24594,63.24594,0,0,1-.41407-6.61573q0-.82689.27637-3.17041.271-2.33862.68848-5.0996.41455-2.75245.82715-4.96192a5.96666,5.96666,0,0,1,.96484-2.75683q.82764-1.37623.82715-.2754a1.57986,1.57986,0,0,1,.13769,1.10254,8.96812,8.96812,0,0,0-.13769,1.92969q-.55518,2.7583-.82715,5.37549a45.90222,45.90222,0,0,0-.27539,4.82422q0,17.92236,7.44238,17.918,3.30909,0,5.51367-4.68653.54933-1.65381,1.37793-4.54834.82764-2.89452,1.6543-7.02929,1.377-4.68457,2.20508-8.27a47.81271,47.81271,0,0,1,1.6543-5.78907q.54931-1.09789,1.5166-3.30761.9624-2.20386,2.20508-4.41065a20.64187,20.64187,0,0,1,2.75683-3.85937,4.148,4.148,0,0,1,2.89453-1.6543c1.10254,0,1.65332,1.19776,1.65332,3.584a85.55512,85.55512,0,0,1-1.65332,12.1289,91.31153,91.31153,0,0,0-1.65429,12.40528,22.71274,22.71274,0,0,0,2.20507,10.06152q2.20313,4.54834,8.5459,4.54834,7.99219,0,12.68067-4.54834,4.68456-4.54834,4.68652-12.54248a90.13661,90.13661,0,0,0-.68945-10.47559,32.66956,32.66956,0,0,0-2.61914-9.92383,21.91279,21.91279,0,0,1-.55078-2.48095.78113.78113,0,0,1-.27637-.55127,16.36949,16.36949,0,0,1,.27637-2.481,25.66248,25.66248,0,0,1,.82714-3.4458q.54786-1.79,1.10254-3.4458a6.79518,6.79518,0,0,1,.82617-1.92969q1.09865,0,2.34375,3.30811a60.63643,60.63643,0,0,1,2.20508,7.44287q.9624,4.13452,1.6543,7.99414a42.56887,42.56887,0,0,1,.68848,4.686q.54932,3.58595,1.24121,8.13233A34.138,34.138,0,0,0,154.44766,94.88a18.29584,18.29584,0,0,0,4.54883,6.478,11.25592,11.25592,0,0,0,7.85644,2.61914q6.06006,0,7.71875-4.41064,0-1.37622-2.48144-6.34034a76.70975,76.70975,0,0,1-4.96192-12.543Q165.1962,74.20938,163.82071,67.58951Zm-50.998,61.47314a11.50423,11.50423,0,0,1-2.20508,6.34033q-1.3828,1.65381-2.75683,3.16992a30.34164,30.34164,0,0,1-3.03223,2.89454q-2.21044,1.10521-1.92969,1.10253v-.27539l1.37793-1.37841q6.06006-6.8877,6.06446-8.82129c0-1.28369-.73633-1.92969-2.20508-1.92969a3.40572,3.40572,0,0,0-1.92969.55127,1.12319,1.12319,0,0,1-.82715.27588V129.8898q.82764-4.407,4.68652-4.41065Q112.81828,125.47915,112.82266,129.06265Zm13.50781-39.6958q-1.38281-18.74341-2.06836-28.94482-.69139-10.19532-.68847-12.40479a23.83057,23.83057,0,0,0-1.37891-8.5459q0-2.20312,2.75684-8.82129.54931-.8269.82715-.82666l.27539.27539a.81759.81759,0,0,1,.27636.55127,94.79082,94.79082,0,0,1,4.54785,10.19971,61.4982,61.4982,0,0,1,3.16993,10.4751A9.11643,9.11643,0,0,1,134.6,53.53042q0,2.48071-4.68652-2.75683c-.37012-.73194-.55078-.55127-.55078.55127q0,.5559,2.48047,32.8042.54932,5.78906.82715,10.751.271,4.96216.55175,8.82129a21.05481,21.05481,0,0,1-6.06543.82715q-.27685-3.57934-.41308-7.30518Q126.60147,93.50187,126.33047,89.36685Zm1.37793,30.87451a14.89341,14.89341,0,0,0,6.06446-1.10254,33.15931,33.15931,0,0,1,.27539,3.99707v2.61865q-.27686,2.20972-.82618,5.09961a42.13033,42.13033,0,0,1-2.48144,7.58106,12.64191,12.64191,0,0,0-.82715,1.37842c-.18555.37011-.37012.73632-.55078,1.10254-.18555.55127-.37109.87451-.55176.96484-.18555.09473-.27539-.043-.27539-.41357,0-.36622.043-1.00782.1377-1.92969.09082-.91748.13769-1.65381.13769-2.20508q0-3.03077-.27539-8.40772A80.60847,80.60847,0,0,0,127.7084,120.24136Zm21.502-73.60254a15.29557,15.29557,0,0,1-.55176,3.03223c-.55078,1.47314-1.28809,2.20557-2.20508,2.20557q-1.93214,0-3.30762-3.30811-.82764,3.86352-3.584,3.85937a2.37948,2.37948,0,0,1-1.92969-1.103,4.26972,4.26972,0,0,1-.82715-3.03223V45.2604a.488.488,0,0,0-.55078-.55127c-.37109-.36621-.55176-.6416-.55176-.82714a2.6491,2.6491,0,0,1,.82715-1.92969c.55078-.73193,1.00781-1.10254,1.37793-1.10254.36621,0,.55176.73682.55176,2.20557a3.879,3.879,0,0,1-.27539,1.6538v1.37842a7.10278,7.10278,0,0,0,.27539,2.20508c.36621.73682.82715,1.103,1.37793,1.103a2.38342,2.38342,0,0,0,1.92969-1.103,3.179,3.179,0,0,0,1.10254-2.20508,16.8067,16.8067,0,0,1-.55079-2.48095,8.39319,8.39319,0,0,0-.55175-1.92969,4.77009,4.77009,0,0,1,.55175-1.37842c0-.55127.18067-.82715.55079-.82715a.81337.81337,0,0,1,.27636.55127,4.46566,4.46566,0,0,1,.55078,1.92969q.271,1.3828.41407,2.06787a6.5685,6.5685,0,0,1,.13769,1.24023q0,3.30835,2.48047,3.30811a1.30522,1.30522,0,0,0,1.37891-1.10254q-2.21046-3.85767-2.20606-5.78906a4.41293,4.41293,0,0,1,.55176-1.92969l.55176-.55127a.814.814,0,0,1,.27539.55127,2.96378,2.96378,0,0,0,.13769.96484,3.09042,3.09042,0,0,1,.1377.96485l.27539.55127a15.5256,15.5256,0,0,1,.82715,1.92969A23.60882,23.60882,0,0,1,149.21036,46.63882Zm-8.82129-9.64844-.27539.55127c-.18555,0-.27637-.18066-.27637-.55127a4.76917,4.76917,0,0,0,.27637-1.92968q0-3.30762-3.85938-6.61573a.34255.34255,0,0,1,0-.55127l.55078-1.10253a8.122,8.122,0,0,1,4.13477,7.44287A9.09915,9.09915,0,0,1,140.38907,36.99038Zm18.46972,89.04q.82617-.27173,4.68555-1.792,3.85841-1.51171,8.96-3.4458,5.09766-1.92554,11.02637-3.99707,5.92383-2.06763,10.88867-3.85937,4.96143-1.79,8.40723-3.03223a35.67455,35.67455,0,0,1,3.72168-1.24072q.271.27831,0,1.37841-.82617,1.38282-1.37793,2.34327a7.26338,7.26338,0,0,1-1.10254,1.51611q-9.65333,3.58593-13.9209,5.23779-4.27734,1.65381-5.65137,2.20508c-.92187.37061-1.5166.59863-1.792.68945-.27539.09473-1.05957.46045-2.34277,1.10254q-1.93213.969-7.30567,3.03223-5.376,2.06763-16.67773,6.75391.54932-1.65455.96484-3.30811A14.28928,14.28928,0,0,1,158.85879,126.03042Zm20.39844,84.9043,2.75684-5.78906c.36621-.36621.6416-.55078.82715-.55078q-.27833,0,4.41113,2.75683,4.13379,2.75831,4.13476,3.30762,0,2.209-3.584,7.71875c-.37012.37012-.64551.46094-.82715.27539q-1.93213-1.37548-3.85937-2.75684-1.93067-1.37548-4.13477-2.75585c-.55078,1.10253-1.05957,2.11425-1.51562,3.03222q-.69141,1.38282-1.51661,2.75586c-.18554.55176-.46093.64258-.82714.27637l-8.26954-5.78906c-.37109,0-.37109-.18067,0-.55176l3.30762-7.167c.36621-.36622.6416-.55176.82715-.55176q.54932,0,3.85937,2.48144A27.35827,27.35827,0,0,1,179.25723,210.93472Zm25.91309-117.7085q4.13524,0,6.20215,4.686a25.94016,25.94016,0,0,1,2.34277,7.99463l.27637.55127h.27539v-.55127a71.74939,71.74939,0,0,1,2.48144-10.19971q1.9248-4.68457,4.41016-4.68652A3.06888,3.06888,0,0,1,223.64,92.675,5.74728,5.74728,0,0,1,224.74258,94.88a6.33226,6.33226,0,0,1-.55176,1.92969c-.37011.92188-.73632,1.37842-1.10253,1.37842a.24223.24223,0,0,1-.2754-.27588l-.82714-.82666a2.39606,2.39606,0,0,0-1.92969-1.103q-2.209,0-3.85938,9.92432a43.1958,43.1958,0,0,1-1.65429,6.34033c-.55078.73633-1.01172,1.10254-1.37793,1.10254v-.27588a1.1062,1.1062,0,0,1-.27539-.82666,8.79814,8.79814,0,0,0-.55176-2.481q-.55518-1.65453-1.37793-4.41064-2.48145-4.96216-3.03223-4.9624c-.55176,0-.82715.09472-.82715.27588,0,.3706-.27636.55127-.82714.55127a5.23235,5.23235,0,0,1-2.20508-1.37842q-1.65381-1.37622-1.6543-2.20508a7.47647,7.47647,0,0,1,1.10254-2.481C204.24844,93.87222,204.79922,93.22622,205.17032,93.22622Zm56.78711,47.68995a5.93217,5.93217,0,0,0-2.20606-4.27295,35.80541,35.80541,0,0,0-5.2373-3.99707,30.09439,30.09439,0,0,0-6.20215-3.03223,17.00284,17.00284,0,0,0-5.376-1.10254q-12.68262,0-27.01465,24.2583a27.56624,27.56624,0,0,0,10.19922,1.65381,55.18235,55.18235,0,0,0,8.5459-.689,50.88967,50.88967,0,0,0,9.09668-2.34327c.55176-.18066,1.835-.73193,3.85938-1.65381q3.03075-1.37622,6.20214-3.03222a61.827,61.827,0,0,0,5.65137-3.30811Q261.95743,141.74331,261.95743,140.91617Zm-26.74024-36.939v-.55127l3.584-6.8916a.487.487,0,0,1,.55175-.55176q.54932,0,4.68555,2.481,3.85841,2.759,3.85938,3.3081,0,2.20973-3.583,7.71875,0,1.1045-.82715.27588A59.75073,59.75073,0,0,0,235.21719,103.9772ZM251.48184,192.465q3.30762,0,5.2373,3.584a23.63937,23.63937,0,0,1,3.3086,9.37305l.27539.55078a.79817.79817,0,0,0,.27539-.55078,46.13613,46.13613,0,0,1,2.48145-10.2002q2.20313-4.96143,4.41015-4.96191a3.06869,3.06869,0,0,1,2.48145,1.65429,14.19938,14.19938,0,0,1,1.10254,2.48047,4.22728,4.22728,0,0,1-.55176,1.6543q-.27685,1.65381-1.10254,1.6543l-.27539-.2754a2.01382,2.01382,0,0,1-.41309-.55175,2.4431,2.4431,0,0,0-.41406-.55176,2.6495,2.6495,0,0,0-1.92969-.82617q-2.209,0-3.85937,9.92383a21.28236,21.28236,0,0,1-1.6543,6.06445c-.55078.92187-1.01172,1.37793-1.37793,1.37793-.18555,0-.27539-.36621-.27539-1.10254a10.24605,10.24605,0,0,0-.55176-2.61914q-.55516-1.78857-1.37793-4.27246-2.48143-5.23242-3.03222-5.23731c-.55176,0-.82715.18457-.82715.55078h-.27539c0,.18555-.18555.27637-.55176.27637a3.94035,3.94035,0,0,1-2.48047-1.24121,3.36153,3.36153,0,0,1-1.37891-2.34277,7.48165,7.48165,0,0,1,1.10254-2.48145C250.74551,193.11148,251.29629,192.465,251.48184,192.465Z" transform="translate(-3.10782 -26.79117)" fill="#231f20"/>
</svg>
