<svg xmlns="http://www.w3.org/2000/svg" width="247.49103" height="202.88965" viewBox="0 0 247.49103 202.88965">
  <path d="M88.12237,44.81905q0,1.10523.41358,7.99414.41309,6.89429.96484,15.2998.54858,8.41187.96485,15.98829.41309,7.585.41308,10.062a50.17632,50.17632,0,0,1-1.10254,11.30224,41.02188,41.02188,0,0,1-4.13476,10.19922,4.46257,4.46257,0,0,0-.27588,1.103c0,.18506.27588.37012.82715.55127a31.88212,31.88212,0,0,0,3.85937,1.37842,9.82757,9.82757,0,0,1,3.5835,1.92968q4.13525,2.75831,2.75683,7.71827a22.21514,22.21514,0,0,1-6.61621,12.40478,58.89575,58.89575,0,0,1-11.57763,8.5459,38.47615,38.47615,0,0,1-6.75391,3.99707q-4.27734,2.06763-8.82129,3.85937-4.54835,1.79591-8.959,3.30811a52.45045,52.45045,0,0,1-7.44288,2.06738,14.86,14.86,0,0,1-4.54882.41358q-2.34522-.13623-4.54834-.41358a11.96991,11.96991,0,0,1-3.16993-.41357q-1.5183-.41382-2.89453-.689-4.96215-1.37622-8.82129-6.8916a26.16744,26.16744,0,0,1-4.68652-10.1997,43.42275,43.42275,0,0,1-.27539-11.02686,61.51721,61.51721,0,0,1,1.37793-10.19922,58.45346,58.45346,0,0,1,3.03271-9.64844,18.31822,18.31822,0,0,1,2.06739-3.99707,32.71947,32.71947,0,0,0,2.34326-3.99707,4.356,4.356,0,0,1,1.65381-1.103,3.18826,3.18826,0,0,1-.1377,2.06787,11.14979,11.14979,0,0,1-.96484,1.7915q-1.38282,3.03662-2.481,6.06494a63.62173,63.62173,0,0,0-1.92969,6.34033,32.1314,32.1314,0,0,0-1.37841,13.78321,20.33606,20.33606,0,0,0,7.167,13.7832,20.21045,20.21045,0,0,0,6.8916,3.4458,28.35973,28.35973,0,0,0,7.44336.96484,43.49427,43.49427,0,0,0,11.43994-1.792,103.50792,103.50792,0,0,0,12.95606-4.54834q6.47386-2.75244,12.543-6.06494a87.08859,87.08859,0,0,0,10.4751-6.61572,7.78318,7.78318,0,0,0,1.6543-1.37842c.91748-.73242.82666-1.37842-.27588-1.92969a27.44508,27.44508,0,0,0-6.20264-2.481q-3.17211-.82691-6.20215-1.92969-3.86352-1.09789-7.30517-1.92969-3.45044-.8269-7.0293-1.92969a2.00526,2.00526,0,0,1-1.65429-2.75634,12.44555,12.44555,0,0,0,.27587-2.34327,6.48929,6.48929,0,0,1,.55127-2.34326,2.16222,2.16222,0,0,1,1.10254-1.51611,12.82135,12.82135,0,0,1,1.6543-.689,20.59729,20.59729,0,0,1,4.96191-1.51611q2.48072-.41382,4.96192-.96484a33.14169,33.14169,0,0,1,3.58349-.82715,21.11985,21.11985,0,0,0,3.30811-.82715,3.46114,3.46114,0,0,0,2.75635-3.5835q0-1.6538-.27539-6.61621-.27832-4.96142-.55127-11.43994-.27832-6.47388-.82715-13.7832-.55591-7.30079-.82715-13.50733-.27759-6.20287-.55127-10.61328c-.18506-2.9375-.27539-4.68652-.27539-5.23779q-.27832-2.20312-.41357-4.41064a11.52716,11.52716,0,0,0-1.24073-4.41065,3.69526,3.69526,0,0,1-.13769-2.61865c.27588-.82715.59424-1.69727.96484-2.61865l1.65381-4.13526a.797.797,0,0,0,.27588-.55127c0-.18066.18066-.27539.55127-.27539.36621,0,.55127.09473.55127.27539a.77949.77949,0,0,0,.27588.55127q1.37622,3.03663,2.481,6.20264,1.09791,3.17212,2.20508,6.20215.8269,1.65455,1.51612,3.44629c.45654,1.19726.87011,2.34277,1.24072,3.4458a4.25133,4.25133,0,0,1,.27539,2.481v.82666a1.23992,1.23992,0,0,1-1.37793-.2754,15.6373,15.6373,0,0,1-2.75684-3.03222c-.18506,0-.27588.04736-.27588.13769C88.39776,44.77608,88.303,44.81905,88.12237,44.81905Zm-63.40283,53.479a4.60759,4.60759,0,0,1-3.03223-1.92968,8.71281,8.71281,0,0,1-1.103-3.30811,47.44827,47.44827,0,0,1,.27588-11.43994,36.80462,36.80462,0,0,1,3.58349-11.16455,20.9234,20.9234,0,0,0,1.37842-3.5835,7.48584,7.48584,0,0,1,2.481-3.58349,13.01117,13.01117,0,0,1-.96485,5.2373,25.18713,25.18713,0,0,0-1.51611,4.68652,37.41375,37.41375,0,0,0-1.65381,12.95606,11.95111,11.95111,0,0,0,.27539,2.61914,2.55546,2.55546,0,0,0,1.92969,1.7915q2.75244.8269,4.68652-2.481a4.7767,4.7767,0,0,0,.96485-1.51612,2.252,2.252,0,0,1,1.7915-1.24023q-.55518,2.48072-1.10254,4.96191a14.96618,14.96618,0,0,1-1.92969,4.686A8.73681,8.73681,0,0,1,28.303,97.88448,4.21626,4.21626,0,0,1,24.71954,98.29805Zm.27539,99.791a46.62757,46.62757,0,0,1,1.92969-17.36719,5.63018,5.63018,0,0,0,.41357-1.10254c.09034-.36621.31885-.457.689-.27539a.4883.4883,0,0,1,.55176.55078v1.10254a47.773,47.773,0,0,0-.82715,8.82129v8.82129a27.37119,27.37119,0,0,0,.55127,5.09961,30.34087,30.34087,0,0,0,1.65381,5.65137,12.28624,12.28624,0,0,0,3.03271,4.54882,6.61669,6.61669,0,0,0,4.686,1.792q3.57934,0,6.61621-3.85938a46.59357,46.59357,0,0,0,2.894-5.65137q1.24072-2.89452,2.61914-5.92675a105.09694,105.09694,0,0,1,5.51318-10.61328,38.50752,38.50752,0,0,1,7.71875-9.23438,9.62451,9.62451,0,0,1,6.06446-3.03223,5.02322,5.02322,0,0,1,3.4458,1.10254,14.25872,14.25872,0,0,1,2.34326,2.75684q1.37622,1.93067,2.481,3.8584a43.33125,43.33125,0,0,0,2.481,3.85937q3.03,3.86425,5.78907,4.96192a20.43652,20.43652,0,0,0,7.44287,1.10351,28.1031,28.1031,0,0,0,8.27-1.10351,13.78464,13.78464,0,0,0,4.13476-2.48047,5.23228,5.23228,0,0,0,1.92969-4.13477,21.93925,21.93925,0,0,0-3.5835-7.168,6.41,6.41,0,0,1-1.37841-3.7207,16.52144,16.52144,0,0,1,.55127-3.99707v-.82715a3.66166,3.66166,0,0,0,.55127-2.06738c0-.82715.45654-1.24121,1.37841-1.24121.55127,0,1.00782.37109,1.37842,1.10254a17.13143,17.13143,0,0,0,1.10254,1.92968,23.62585,23.62585,0,0,1,3.03223,7.44336,28.93747,28.93747,0,0,1,.55127,7.99414,28.45579,28.45579,0,0,1-3.99707,12.81836q-3.44971,5.65284-11.43995,6.20313c-1.10253.18457-2.1621.32226-3.16992.41308-1.0122.09473-1.977.1377-2.89453.1377a13.56357,13.56357,0,0,1-7.581-2.06738,17.59634,17.59634,0,0,1-5.37549-5.65137q-1.38209-2.20312-2.34277-3.99707-.96973-1.79-2.34327-3.99707-1.65381-2.75244-3.85937-2.75684-3.03663,0-6.20264,3.03223a29.3239,29.3239,0,0,0-4.54834,5.23828,26.62621,26.62621,0,0,0-4.13476,7.58008A65.42862,65.42862,0,0,1,49.805,211.5959q-1.10523,2.48145-2.20557,4.96192a18.63282,18.63282,0,0,1-3.03222,4.68652,8.11384,8.11384,0,0,1-6.34033,3.3086,6.943,6.943,0,0,1-5.23731-2.34375,23.35561,23.35561,0,0,1-3.85937-5.65137,37.77272,37.77272,0,0,1-2.61914-6.75293,39.6353,39.6353,0,0,1-1.24024-5.65137,8.10931,8.10931,0,0,1-.41357-3.30859C24.94757,199.74239,24.99493,198.8254,24.99493,198.08907Zm26.18848-21.77832q-4.41285-1.92482-4.41065-4.41016,0-2.75244,2.75635-5.51367,2.75244-1.9248,4.41065-1.65332,1.65381.27833,1.65429,3.30762a16.35446,16.35446,0,0,1-1.103,5.51367,4.851,4.851,0,0,1,2.75683,1.92969q0,.82617-1.92969,3.85937a2.459,2.459,0,0,0-.96484-.96484,8.16874,8.16874,0,0,1-1.51611-1.24121,31.23676,31.23676,0,0,1-6.34033,6.20312,51.75328,51.75328,0,0,1-7.44288,4.54785,8.16216,8.16216,0,0,0-1.792.68946,31.90589,31.90589,0,0,1-3.16992,1.24023q-1.65381.55664-4.68652,1.6543v-.27539c0-.36621.45654-.73243,1.37841-1.10254q2.75246-1.65528,5.37549-3.1709,2.61695-1.51171,5.37549-3.16992,3.03-2.20312,5.51318-3.85938A19.97516,19.97516,0,0,0,51.18341,176.31075ZM34.0921,120.90254a2.29607,2.29607,0,0,1-2.20557,0,10.87619,10.87619,0,0,1-1.6538-1.37841,1.88765,1.88765,0,0,1-.689-1.65381,2.44945,2.44945,0,0,1,.689-1.37842,3.43719,3.43719,0,0,0,.82714-1.51611q.271-.9624,1.65381-.689,2.48072,0,4.41065,2.75635a27.3396,27.3396,0,0,1,2.20507,4.27295q.82764,2.06763,1.6543,4.273.54932-2.20312.96485-3.99756c.27539-1.19287.59423-2.52393.96484-3.99707a8.3191,8.3191,0,0,1,2.20508-4.13477,15.29933,15.29933,0,0,1,1.24072-1.10254,1.18168,1.18168,0,0,1,1.51611,0q2.48071.55518,2.75684,2.481v2.34278a1.52916,1.52916,0,0,1-.82715,1.24072.70317.70317,0,0,1-.96484-.27588,11.04993,11.04993,0,0,0-.96485-1.10254q-1.65381-1.37622-2.75683.55127A12.68694,12.68694,0,0,0,43.327,122.281q-.41382,2.48072-.96484,4.686-.27833,1.10522-.55127,2.20556a10.85939,10.85939,0,0,1-.82715,2.20508c-.3706.37061-.646.55176-.82715.55176-.37011,0-.55127-.27588-.55127-.82715a42.27215,42.27215,0,0,0-1.37841-4.82422,23.27055,23.27055,0,0,0-2.20508-4.54834A1.77835,1.77835,0,0,0,34.0921,120.90254Zm18.74512,51.54981a8.47347,8.47347,0,0,0,.27588-2.48145,2.49464,2.49464,0,0,0-1.37842-1.65429.797.797,0,0,1-.55127.27636,2.15308,2.15308,0,0,0-.82715.2754,1.082,1.082,0,0,0-.82715,1.10253Q49.52911,170.79854,52.83722,172.45235ZM72.1336,218.48751c-.55127.37109-1.05957.68945-1.51611.96484-.46094.27637-.87451.50879-1.24023.68945a24.48149,24.48149,0,0,1-9.92432,3.03223,8.30725,8.30725,0,0,1-2.481-.27539,2.84934,2.84934,0,0,1-1.65381-2.75684,7.41815,7.41815,0,0,1,2.481-4.13476,9.89668,9.89668,0,0,0,1.92969-1.24024q.82691-.68554,1.65381-1.24121a5.50173,5.50173,0,0,0,1.792-1.37793c.45654-.55176.96484-1.10254,1.51611-1.65429a1.52248,1.52248,0,0,0-.96484-.55079,2.19534,2.19534,0,0,1-.96484-.27636,3.01817,3.01817,0,0,1-1.92969-3.03223,1.07321,1.07321,0,0,1,.13818-.68848.565.565,0,0,0,.1377-.41406,7.59776,7.59776,0,0,0,.55127-3.85937,1.91389,1.91389,0,0,1,.55127-1.92969,2.29788,2.29788,0,0,1,2.20556-.55078,1.61524,1.61524,0,0,1,1.10254.27539,25.48855,25.48855,0,0,1,3.85938,2.34277,10.31582,10.31582,0,0,1,2.75634,3.1709,3.14645,3.14645,0,0,1,.27588,3.30762,1.12563,1.12563,0,0,1-.27588.82715c-.37011,1.10253-.73632,1.749-1.10254,1.92968a4.19676,4.19676,0,0,1-2.20507,0,4.24769,4.24769,0,0,0-2.481-.27539c-.55176,0-1.01221.64551-1.37842,1.92969a18.27211,18.27211,0,0,1-6.34033,5.2373,2.11224,2.11224,0,0,1-.82715.2754c-.18506,0-.46094.18554-.82715.55175-.37011.18457-.50781.37012-.41308.55078.09033.18555.31836.27637.689.27637a8.98048,8.98048,0,0,0,2.75684.55078,21.77154,21.77154,0,0,0,3.58349-.27539,31.49348,31.49348,0,0,0,3.5835-.82715q2.75244-.54932,4.68652-1.10254c0,.18555.043.2754.1377.2754C72.08624,218.21212,72.1336,218.30684,72.1336,218.48751ZM65.51788,82.58516a1.58548,1.58548,0,0,1-.55127,1.10254l-.27588.27588q-.55516,0-.27539-1.6543a14.41666,14.41666,0,0,0,.27539-3.58349q0-6.887-7.99414-14.33448-.27759-.54932,0-.82714L58.075,60.80782q.54858-.54931.82666,0A19.35224,19.35224,0,0,1,66.62042,76.7961,13.03155,13.03155,0,0,1,65.51788,82.58516Zm.27539,123.77344a2.90928,2.90928,0,0,0-.27539-1.6543q-.8269-1.37548-1.6543-.55078a1.492,1.492,0,0,0-.689.55078,2.20635,2.20635,0,0,1-.41357.55176c-.37012.73633-.2754,1.28809.27587,1.6543a2.087,2.087,0,0,0,.82666.27539,2.19639,2.19639,0,0,1,.82715.27539C65.42315,207.64669,65.79327,207.28047,65.79327,206.3586Zm.27588-38.59277q2.20313-4.68457,2.75684-4.96241,3.03-1.65381,7.99414-3.99707,4.96215-2.33862,10.61279-4.96191,5.647-2.61621,10.751-4.96191,5.09765-2.33863,8.13232-3.99708c.91748-.55126,1.28369-.45654,1.10254.2754q-1.9314,3.86425-2.75635,3.85937-5.78905,3.03662-10.062,4.96191-4.27734,1.93213-8.27,3.72168-3.999,1.79591-8.27,3.85938-4.27661,2.06763-10.06152,5.37549A2.65132,2.65132,0,0,1,66.06915,167.76583Zm4.96191,40.52246q-.82689-3.30762-3.58349-3.30762a7.23847,7.23847,0,0,1-.27588,2.20508c0,.55078.18115.82715.55127.82715a5.293,5.293,0,0,1,1.6543.27539A2.52642,2.52642,0,0,0,71.03106,208.28829Zm21.22608-25.91211q-2.20973-1.65381-3.99707-3.03223-1.79591-1.377-3.99707-2.75683c-.37061,0-.37061-.18165,0-.55176l3.3081-6.8916.55127-.55079q.8269,0,4.41065,2.75586,4.13453,2.48145,4.13476,3.03223,0,1.65528-3.58349,7.44336A.88229.88229,0,0,1,92.25714,182.37618Zm59.26855-85.18067q-2.48144-1.92553-5.65234-4.54882a10.12611,10.12611,0,0,0-6.47656-2.61866,5.17492,5.17492,0,0,0-2.75781.55127,2.44527,2.44527,0,0,1-1.37891.68946,5.05429,5.05429,0,0,0-1.377.41357q-1.38282.8269-1.10352-.82715a45.39049,45.39049,0,0,1,3.30859-7.99414q.82619-1.65455,3.72071-2.75684a41.86132,41.86132,0,0,1,12.81836-2.61865q3.3076-.13623,4.96289-.13818a61.75659,61.75659,0,0,1,12.40429,1.24072,41.0099,41.0099,0,0,1,11.57862,4.273q4.13379,1.9314,3.44531,3.72119-.69141,1.79591-2.06641,5.1001-1.38281,3.03661-5.78955,4.41064l-9.09765,3.30762a34.369,34.369,0,0,0,7.02929,5.37549,15.89267,15.89267,0,0,0,8.1333,2.34326,13.56564,13.56564,0,0,0,7.168-2.20556,39.59747,39.59747,0,0,0,6.06446-4.96192q2.751-2.75171,5.78906-5.51318a2.76411,2.76411,0,0,1,3.16992-.689,2.4218,2.4218,0,0,1,1.51563,2.89453,13.43077,13.43077,0,0,1-.82618,7.167q-1.38281,3.30834-3.0332,6.61621c-.37109.73633-.82617,1.0122-1.37891.82666-.36914-.18067-.36914-.6416,0-1.37793a19.77532,19.77532,0,0,0,.82813-2.481c.17969-.73242.36523-1.55957.55078-2.48144a2.95132,2.95132,0,0,1,.13867-.96436c.08985-.27588-.04883-.50439-.41406-.68945-.37109-.18067-.59961-.18067-.68945,0a1.48877,1.48877,0,0,1-.68946.55127,13.02709,13.02709,0,0,0-3.16992,3.17041,22.66525,22.66525,0,0,1-2.61914,3.16992q-5.23828,7.17188-12.67969,7.16748a20.86728,20.86728,0,0,1-3.17041-.27588,29.15644,29.15644,0,0,1-3.72265-.82666,23.84391,23.84391,0,0,1-9.64844-4.82422q-4.13379-3.44385-8.26953-7.02978a1.202,1.202,0,0,0-1.6543-.27539q-7.998,5.51733-14.88476,9.64794a43.31976,43.31976,0,0,1-13.78321,5.51368q.82617,14.88573,1.377,27.98.55077,13.09571.82812,20.53711a37.3624,37.3624,0,0,0,9.78516-3.30811,77.66363,77.66363,0,0,0,9.92383-5.78906,86.76182,86.76182,0,0,0,9.09765-7.16748q4.27149-3.85693,7.58008-7.44287a11.62039,11.62039,0,0,0,2.20508-3.03223.83435.83435,0,0,0,0-1.24023q-.55371-.68556-1.10156-1.24073a8.495,8.495,0,0,0-5.78907-1.92968c-1.47265,0-2.89453-.043-4.27343-.1377q-2.06544-.1355-4.27149-.41357-6.3457-1.37622-7.168-6.06446a15.09506,15.09506,0,0,1,.82617-8.5459,24.308,24.308,0,0,1,4.27344-6.20214,8.89255,8.89255,0,0,1,6.75391-3.17041,8.23509,8.23509,0,0,1,5.09961,1.792,16.89014,16.89014,0,0,1,3.998,4.41064,39.66891,39.66891,0,0,1,2.89454,5.51319,35.02147,35.02147,0,0,1,1.791,5.09961,31.39043,31.39043,0,0,1,.68945,4.96191,30.32116,30.32116,0,0,1-.13867,4.9624,37.012,37.012,0,0,1-1.791,7.30469,17.66744,17.66744,0,0,1-4.27344,6.47851c-.92188.92139-1.791,1.83887-2.61914,2.75635q-1.23925,1.38282-2.61719,2.75684a73.60364,73.60364,0,0,1-5.92773,5.78906,77.166,77.166,0,0,1-7.99414,6.20215,84.07508,84.07508,0,0,1-8.54493,5.09961,25.97083,25.97083,0,0,1-7.85742,2.75683q.55078,20.95313.82813,23.15625,1.09571,6.89357,4.68554,9.64844a12.97059,12.97059,0,0,0,5.78907,1.10254,21.24736,21.24736,0,0,0,6.06445-1.10254,57.19754,57.19754,0,0,0,7.168-2.75683q3.57714-1.65381,6.89062-3.44629,3.30762-1.79,5.51368-2.89453-8.27052-1.3755-16.26368-2.34278-8.001-.9624-15.99023-1.5166-2.75684,0-2.75586-1.10254.55078-1.37548,1.37891-3.16992a36.416,36.416,0,0,1,2.20507-3.99707q1.09864-1.9248,6.33985-3.85938,6.33984-2.48143,11.85351-5.0996a32.41377,32.41377,0,0,0,10.19922-7.85645,50.32666,50.32666,0,0,0,4.13477-4.68652q1.92772-2.48145,4.13672-4.96192,3.3076-3.85693,5.78906-3.85937,2.20313,0,3.03174,4.13525.82617,6.345,2.48047,8.8208a16.89794,16.89794,0,0,0,5.23828,6.20313,13.40557,13.40557,0,0,0,7.71875,2.06738,19.56669,19.56669,0,0,0,6.47851-1.10254,24.0056,24.0056,0,0,0,5.92578-3.0332q1.09864-.82617,3.72266-3.16992,2.61621-2.3379,6.47656-6.47754a4.77711,4.77711,0,0,1,1.92969-.82715c.73242,0,1.00781.64551.82813,1.92969a7.63238,7.63238,0,0,0-.55079,3.30761q0,4.41358,3.16993,5.92676a16.03161,16.03161,0,0,0,7.02929,1.5166q6.05861,0,10.47461-5.23828,1.377-2.20312,2.61914-4.13476,1.23925-1.92481,2.61914-4.13477c.73243-.73242,1.28321-1.10254,1.6543-1.10254.55078,0,.82617.37012.82617,1.10254a1.08333,1.08333,0,0,1-.13867.68945.56176.56176,0,0,0-.13672.41309l-.82812,4.13476a5.37,5.37,0,0,0,1.92968,3.584,7.67946,7.67946,0,0,0,5.23829,1.92969q3.58006,0,4.41015-1.92969a4.07508,4.07508,0,0,0-.82617-1.37793c-.73633-.55176-1.10352-1.00879-1.10352-1.37891a6.58851,6.58851,0,0,1,.41407-1.792q.41309-1.24073.82617-2.75683a14.39907,14.39907,0,0,1,.96484-2.61817c.36719-.73242.64258-1.103.82813-1.103.73242,0,1.3789.87452,1.92968,2.61866a14.59879,14.59879,0,0,1,.82618,3.72168,30.34942,30.34942,0,0,1-.55078,5.65136,17.99033,17.99033,0,0,1-1.92969,5.375,11.13455,11.13455,0,0,1-3.72071,3.99707,10.17285,10.17285,0,0,1-5.65234,1.5166q-4.13379,0-8.26953-6.8916-5.23828,10.20117-14.334,10.19922-6.61524,0-9.64844-4.13476a26.403,26.403,0,0,1-1.6543-7.44239.48869.48869,0,0,0-.55078-.55175,2.37824,2.37824,0,0,0-1.6543.82714q-5.24121,6.06592-6.61523,7.44239a29.29641,29.29641,0,0,1-6.3418,3.998,16.98122,16.98122,0,0,1-7.166,1.51563q-8.54883,0-12.543-4.68652a27.39854,27.39854,0,0,1-5.65283-11.85352q-.82619-4.40625-1.65235-4.41016-3.03808,0-7.99609,5.5127a82.6485,82.6485,0,0,1-7.58008,8.13281q-3.72071,3.44971-7.0293,6.20215,4.40625,1.1045,10.88867,2.06738,6.47461.96974,13.23243,1.5166,6.75072.55518,13.36963.96485,6.61522.41308,11.02734.41308,3.02929,0,3.03125.82715v.27539a.79612.79612,0,0,1-.27539.55176l-3.584,7.167c-.55078.73633-1.01171,1.10254-1.37695,1.10254a96.62813,96.62813,0,0,0-13.50781.82715,65.11138,65.11138,0,0,0-10.88916,2.48047,86.11907,86.11907,0,0,0-10.33789,4.13574q-5.24121,2.48-11.57813,5.78906-1.65527.82619-3.44531,1.65332-1.7959.82764-3.44531,1.6543a17.94645,17.94645,0,0,1-6.3418,1.37793q-6.89355-.54931-9.50976-4.27246a27.8483,27.8483,0,0,1-3.99805-10.33789,83.81958,83.81958,0,0,1-.96485-9.92383q-.41309-7.16456-.6875-19.57226a15.39009,15.39009,0,0,1-12.40576-6.06446q-4.69042-6.61523-4.13476-13.50732A55.91087,55.91087,0,0,1,110.451,145.7126a63.084,63.084,0,0,1,3.85937-11.30224,2.19936,2.19936,0,0,1,.1377-.68946c.09082-.27539.31884-.31884.68945-.13769q.54931,0,.41357.41357a1.77893,1.77893,0,0,1-.41357.689q-.55591,3.03661-1.24072,5.65137-.69067,2.62279-1.24024,5.37548-.5559,3.30762-.82715,6.75342a16.82941,16.82941,0,0,0,.82715,6.75391q2.48072,6.89355,10.19971,8.26953a7.09141,7.09141,0,0,0,2.20459.27637q-.55371-11.30055-.68945-18.19434a70.97632,70.97632,0,0,0-.6875-9.92383q0-1.37622-.41407-6.61572-.41309-5.23315-.96533-13.23193a15.75236,15.75236,0,0,1-12.2666-5.37549,20.64749,20.64749,0,0,1-5.37549-12.543q-.5559-3.85694-.96484-11.02637-.41382-7.16528-.68945-15.16162-.27759-7.99218-.55127-15.16162-.27759-7.16529-.82715-11.02637-.55518-4.40625-1.10254-8.68359a34.56269,34.56269,0,0,0-2.20508-8.40772,5.37157,5.37157,0,0,1,0-4.13525,53.22425,53.22425,0,0,1,1.92969-5.78857.79925.79925,0,0,0,.27539-.55176c0-.18067.18115-.27539.55127-.27539.36621,0,.55127.09472.55127.27539a.7824.7824,0,0,0,.27588.55176,45.63263,45.63263,0,0,1,3.3081,12.1289,62.97941,62.97941,0,0,1,.96485,7.99463q.41308,5.51733.96484,12.40479.54858,6.89355.96484,14.33447.41309,7.44287.96485,14.05908.54858,6.616.96484,11.43994a27.346,27.346,0,0,0,.96436,6.20264,15.48453,15.48453,0,0,0,4.13525,6.06445,12.21045,12.21045,0,0,0,6.61572,3.03223q-.82691-11.57812-1.7915-24.67188-.969-13.08984-1.792-24.39648-.8269-11.2998-1.65381-19.43408a69.55733,69.55733,0,0,0-1.37842-9.78614q0-1.92553,2.20508-7.71875c.36621-.73242.64209-1.10254.82715-1.10254l.82715,1.10254q3.30761,6.06666,4.9624,21.77735,0,1.3828.41211,7.30517.416,5.93117.82812,14.61036.41308,8.68359,1.10156,19.57226.68556,10.89258,1.24219,22.19092a37.85786,37.85786,0,0,0,6.61524-2.34326q3.3076-1.51173,6.47851-3.30762,3.16407-1.79,5.92578-3.584Q149.31671,98.57612,151.52569,97.19551ZM135.53741,66.87227q2.20313-3.30762,2.75586-3.58349,3.02929-1.09865,7.99414-2.89454,4.9629-1.79,10.61328-3.72168,5.64552-1.92554,10.75-3.72119,5.09766-1.79,8.13282-2.89453a2.25836,2.25836,0,0,1,.96484-.27588c.27539,0,.31836.18506.13867.55127-1.28906,1.83936-2.20508,2.75684-2.75781,2.75684q-5.78907,2.48071-10.06055,3.85937-4.27734,1.38282-8.27148,2.61866-3.999,1.24071-8.26953,2.75683Q143.2503,63.84225,137.4671,66.321A4.41341,4.41341,0,0,1,135.53741,66.87227Zm27.56641,60.37061a16.34975,16.34975,0,0,0-3.72266-4.41065,7.32832,7.32832,0,0,0-5.375-1.37842q-3.03514.55591-2.75586,2.75684c0,.92188.73243,1.56348,2.20508,1.92969a24.46978,24.46978,0,0,0,7.166.55127A5.501,5.501,0,0,1,163.10382,127.24288Zm-8.27149-39.97119a21.17093,21.17093,0,0,1,6.3418,5.51318,1.23834,1.23834,0,0,0,1.377.27539q2.20313-.82691,4.27344-1.65381,2.06836-.82691,4.54883-1.92969a20.276,20.276,0,0,0-8.13281-2.48095A43.90711,43.90711,0,0,0,154.83233,87.27169ZM171.098,65.21846q1.9248-3.30834,2.75586-3.584,3.02929-1.09791,8.1333-2.89453,5.09766-1.7893,10.61328-3.72119,5.51074-1.92555,10.75-3.72168,5.23242-1.78932,7.99414-2.89454c.918-.36572,1.2832-.27539,1.10352.27588a13.63142,13.63142,0,0,1-1.6543,1.92969q-.55663.55591-.82617.82715-6.06738,2.48072-10.33789,3.85889-4.27734,1.3828-8.26953,2.61914-4.002,1.24-8.27149,2.75634-4.27734,1.51832-10.061,3.99756-.55665.27759-.82813.41309A2.81,2.81,0,0,1,171.098,65.21846Zm16.81494,92.62305a6.62367,6.62367,0,0,1,3.584-2.481q2.20313-1.37622,4.13476-2.34326,1.9248-.9624,4.13477-2.34277c.73242-.36621,1.10351-.73242,1.10351-1.103,0-.36572-.46094-.55127-1.3789-.55127a11.16865,11.16865,0,0,0-3.85938-.41357c-1.28711.09521-2.57617.13818-3.85937.13818h-3.584c-.92187,0-1.10156-.27588-.55078-.82715a25.00289,25.00289,0,0,0,1.37891-2.61865,4.58135,4.58135,0,0,1,1.92968-2.06738,3.74654,3.74654,0,0,1,2.75586-1.103h7.44336a11.892,11.892,0,0,1,4.68555.82715q1.65528.5559.82812,2.481a10.91128,10.91128,0,0,1-1.51562,2.61866q-.96972,1.24072-2.06836,2.61914l-2.48047,2.481a12.36375,12.36375,0,0,1-4.41211,2.20508ZM203.075,68.52608l2.48047-4.96191a1.41905,1.41905,0,0,1,1.92969-.55127c1.10351.73681,2.248,1.47314,3.44726,2.20556a17.54385,17.54385,0,0,1,3.16992,2.481q1.09864.55518.55079,1.92969a15.43807,15.43807,0,0,1-1.37891,3.03222c-.55078.92188-1.10156,1.92969-1.6543,3.03223q-.55371.8269-1.92969,0a26.0126,26.0126,0,0,0-3.03125-2.06738,24.02019,24.02019,0,0,1-3.30859-2.34326c-.55078-.18116-.92187-.09034-1.10156.27587a19.53643,19.53643,0,0,1-1.10352,2.34278c-.37109.64648-.73633,1.33545-1.10351,2.06787a1.08683,1.08683,0,0,1-1.65235.55127q-1.93359-1.37622-3.584-2.481a37.717,37.717,0,0,1-3.30859-2.481c-.55079-.18115-.73633-.64209-.55079-1.37841a28.82557,28.82557,0,0,0,1.51563-2.89453q.68554-1.51173,1.24023-2.89454.82911-1.6538,2.48047-.55127Q200.04084,66.32075,203.075,68.52608Zm-1.6543,59.26807a2.29506,2.29506,0,0,1-2.20507,0,10.87883,10.87883,0,0,1-1.6543-1.37842,2.16548,2.16548,0,0,1,.27539-3.03223,3.42851,3.42851,0,0,0,.82812-1.51611q.26953-.9624,1.6543-.689,2.47851,0,4.41016,2.75635a27.25785,27.25785,0,0,1,2.20508,4.27295q.82617,2.06763,1.65429,4.273.54786-2.20312.96485-3.99707c.27539-1.19336.59375-2.52441.96484-3.99756a7.98929,7.98929,0,0,1,.82617-2.06738c.36719-.6416.73242-1.33106,1.10352-2.06738q1.65234-1.65381,3.03125-1.10254a3.43607,3.43607,0,0,1,2.75781,2.481V124.073a1.52715,1.52715,0,0,1-.82813,1.24024c-.55078.18506-.92187.09473-1.10156-.27588a4.464,4.464,0,0,0-.82812-1.10254q-1.65235-1.37622-2.75586.55127a12.67757,12.67757,0,0,0-1.791,4.68652q-.416,2.48072-.96484,4.686-.27833,1.10523-.55274,2.20557a6.20885,6.20885,0,0,1-1.10156,2.20507c0,.37061-.27539.55176-.82812.55176-.36914,0-.50782-.09082-.41211-.27588a.45716.45716,0,0,0-.13867-.55127,42.107,42.107,0,0,0-1.37891-4.82422,40.56579,40.56579,0,0,0-1.92969-4.54834A2.06352,2.06352,0,0,0,201.42071,127.79415Zm17.0918,86.55859q0,1.65381-3.30859,6.61621c0,.73633-.18555.92188-.55078.55176q-1.93067-1.377-3.72071-2.61914-1.79883-1.24072-3.72265-2.61914a.34206.34206,0,0,1,0-.55078l3.0332-6.34082a.48567.48567,0,0,1,.55078-.55079,4.9778,4.9778,0,0,1,1.51563.82618c.82812.55175,1.69726,1.15039,2.61914,1.792.918.64648,1.74414,1.24121,2.48046,1.792C218.14142,213.802,218.51251,214.17208,218.51251,214.35274Zm25.36133-74.98047q-4.41211-1.92553-4.41016-4.68652a7.31475,7.31475,0,0,1,2.75586-5.51319q2.751-2.4807,4.68555-1.6538,1.377.55517,1.3789,3.30761a16.356,16.356,0,0,1-1.10351,5.51367q2.48145,1.1045,2.75781,2.20508c0,.73633-.64648,2.02442-1.92969,3.85938a6.065,6.065,0,0,0-2.48046-2.20557,32.438,32.438,0,0,1-6.47852,6.34033,66.55487,66.55487,0,0,1-7.582,4.68653,9.52956,9.52956,0,0,0-1.65235.41357,32.01627,32.01627,0,0,0-3.0332,1.10254c-1.10156.46094-2.16211.87451-3.16992,1.24023a7.49434,7.49434,0,0,1-2.06836.55176c0-.36621.457-.73242,1.37891-1.103q2.75389-1.65381,5.375-3.30762,2.61913-1.65455,5.65234-3.30811A57.41563,57.41563,0,0,0,243.87384,139.37227ZM226.23126,220.969a12.6412,12.6412,0,0,1,2.20508-1.792c.73242-.45606,1.55859-.96484,2.48047-1.51563a29.53367,29.53367,0,0,0,2.48047-2.20605,30.05877,30.05877,0,0,0,2.207-2.48047q1.9248-2.20312,3.7207-3.99707a17.34234,17.34234,0,0,1,4.54883-3.16992,6.663,6.663,0,0,1,5.23633-.55176q3.58008,1.38282,4.96289-1.6543a3.16381,3.16381,0,0,1,.55078-.82714,3.19869,3.19869,0,0,0,.55273-.82618l.55078-.27636c.17969,0,.27539.27636.27539.82714a1.2413,1.2413,0,0,0-.27539,1.37891c.17969.18457.73243.27539,1.6543.27539h.82617a.486.486,0,0,0,.55078-.55176,2.96155,2.96155,0,0,1,.27735-2.75683c.36523-.55078.73047-.55078,1.10156,0a2.03993,2.03993,0,0,1,.41406,1.5166,7.47177,7.47177,0,0,0-.13867,1.5166,7.42379,7.42379,0,0,0-.41406.96484,8.41044,8.41044,0,0,1-.41211.96485,2.624,2.624,0,0,1-3.85938,1.65332,1.52945,1.52945,0,0,0-2.20507.27539,6.41755,6.41755,0,0,1-5.78907,1.10351A6.939,6.939,0,0,0,241.116,210.218a12.76211,12.76211,0,0,0-2.48047,1.92969,29.70171,29.70171,0,0,1-2.48047,2.20508c-.92188.92188-1.793,1.792-2.61914,2.61914a31.25316,31.25316,0,0,1-2.61914,2.34277A12.9853,12.9853,0,0,1,226.23126,220.969Zm19.29688-85.456a11.8032,11.8032,0,0,0,.27539-2.75684,2.49224,2.49224,0,0,0-1.37891-1.65381.79824.79824,0,0,1-.55078.27539,2.15578,2.15578,0,0,0-.82813.27588c-.55078.55127-.82617.92188-.82617,1.10254Q242.21954,133.312,245.52814,135.5129Z" transform="translate(-17.05664 -21.66329)" fill="#231f20"/>
</svg>
