<svg xmlns="http://www.w3.org/2000/svg" width="183.59277" height="192.68994" viewBox="0 0 183.59277 192.68994">
  <path d="M178.01651,122.97017c.36621,0,.27637.55127-.27539,1.65381l-2.75684,5.78906a2.46976,2.46976,0,0,1-1.65332,1.37842q-1.65381.8269-6.61621,2.89453-4.96143,2.06763-10.47559,4.54834-5.51659,2.48071-9.78613,4.41065a26.93963,26.93963,0,0,0-4.82422,2.481q-12.68262,5.23975-19.0205,5.2378h-.2754a11.56338,11.56338,0,0,1-8.54589-3.30811q-1.65381-1.37622-3.584-6.06445c-1.10254-2.02051-2.02441-3.03272-2.75586-3.03272a4.17066,4.17066,0,0,0-2.48144,1.103,17.69356,17.69356,0,0,0-2.61914,2.61865,24.385,24.385,0,0,0-2.20508,3.17041,5.80179,5.80179,0,0,0-.96485,2.75635,6.49187,6.49187,0,0,0,.82715,2.75684l.82715.27539v.27588a.814.814,0,0,1,.27539.55127q2.20313,2.20971,7.44336,4.13476a25.99136,25.99136,0,0,1,6.06445,3.4458q2.20313,1.79591,2.20508,6.47852a15.20706,15.20706,0,0,1-1.65429,6.8916,13.77853,13.77853,0,0,1-3.03223,4.68652,24.85545,24.85545,0,0,1-8.54492,3.85938,20.10018,20.10018,0,0,1-5.10059,1.37793,36.49458,36.49458,0,0,1-4.27246.27539H91.73428a4.84737,4.84737,0,0,1-2.20605-.55078,31.535,31.535,0,0,0-1.65332,9.37207q0,8.27051,4.96191,13.09472,4.96143,4.8252,13.23145,4.82325a36.12339,36.12339,0,0,0,8.959-1.24024,72.16533,72.16533,0,0,0,9.51074-3.16992q4.68458-1.9248,9.23438-4.27246a80.72609,80.72609,0,0,0,7.85644-4.54883q7.44288-4.68457,7.44336-5.51367,0-1.37548-4.13476-2.48047c-1.10254-.18066-2.39063-.41406-3.85938-.68945-1.47363-.27539-3.03222-.64161-4.68652-1.10254q-2.48145-.68554-4.54883-1.37793a17.29038,17.29038,0,0,1-3.44531-1.5166,7.44222,7.44222,0,0,1-3.584-6.33985,26.42572,26.42572,0,0,1,3.44629-13.7832,37.64142,37.64142,0,0,1,9.50977-10.47559q4.68456-3.85693,8.27051-3.85937,2.48144,0,4.96191,4.13476,1.37548,2.759,6.06445,6.06446a34.42615,34.42615,0,0,0,8.82129,4.68652q1.92481-3.0293,3.584-5.65137,1.65381-2.61621,3.583-5.65088a58.73737,58.73737,0,0,1,8.13282-10.1997,15.919,15.919,0,0,1,11.71582-5.23731,13.733,13.733,0,0,1,5.375,1.24024,24.454,24.454,0,0,1,5.376,3.17041,18.78722,18.78722,0,0,1,4.13477,4.41064,8.89114,8.89114,0,0,1,1.65332,4.96192,17.91822,17.91822,0,0,1-1.51563,5.51318,22.40656,22.40656,0,0,1-2.61914,5.23779,22.81175,22.81175,0,0,1-6.06445,5.09961,51.44636,51.44636,0,0,1-8.13184,3.99707,58.91571,58.91571,0,0,1-8.68359,2.61914,36.61385,36.61385,0,0,1-7.71875.96485,30.42411,30.42411,0,0,1-9.64844-1.6543q-.27686,1.1045-1.10254,3.44629-.82617,2.34522-1.65429,4.41015-.82617,2.06837-1.65332,3.72168c-.55176,1.10254-.92188,1.6543-1.10254,1.6543v-.27637c-.18555,0-.27637-.18066-.27637-.55078a10.54639,10.54639,0,0,1,.55176-2.34375q.54931-1.78857,1.24023-3.85937.68554-2.06689,1.37891-4.13477.68407-2.06689.96484-2.89453-1.106-.54932-3.44629-1.65332a56.88785,56.88785,0,0,1-5.09961-2.75684,41.14255,41.14255,0,0,1-5.51367-3.99707,24.48569,24.48569,0,0,1-4.96191-5.92675q-.82617-1.377-3.72168.68847a66.87425,66.87425,0,0,0-6.20215,5.10059q-6.61524,5.7876-6.61621,8.82129,0,3.58447,12.95605,6.06445,7.71534,1.65381,9.92481,3.583,2.20313,1.38281,2.20508,5.78906a14.98567,14.98567,0,0,1-4.96192,11.30274,64.85474,64.85474,0,0,1-8.959,6.7539,95.02917,95.02917,0,0,1-11.30274,6.20215,86.58693,86.58693,0,0,1-11.99121,4.54883,39.16207,39.16207,0,0,1-11.02636,1.791q-9.92432,0-14.74805-6.06445-4.82666-6.06006-4.82422-15.43652a53.02635,53.02635,0,0,1,2.20508-15.16211,8.74364,8.74364,0,0,0-.96484-.41309,2.66126,2.66126,0,0,1-.96485-.68945,33.776,33.776,0,0,1-17.918,5.2373,13.04373,13.04373,0,0,1-7.167-1.92968q-3.86426-3.02929-4.96289-10.19922-.82617-4.68457-1.65332-27.291-.55663-12.405-.68945-19.71a74.62693,74.62693,0,0,0-.68946-10.3374,77.87448,77.87448,0,0,0-3.30761-16.81543,18.85818,18.85818,0,0,1,1.65429-6.34033c.18067-.73242.45606-1.10254.82715-1.10254l.27539.27539a.81588.81588,0,0,1,.27539.55127q2.75244,4.96215,4.41114,18.46973.271,3.86352.55078,11.85351.271,7.99878.82715,20.12354.271,11.57813.55175,17.64257.271,6.06739.27539,6.89161Q60.0297,174.79781,62.789,177a10.69027,10.69027,0,0,0,4.68652.82715A32.67182,32.67182,0,0,0,79.329,175.89742a12.73463,12.73463,0,0,1-.55176-4.41016,21.57081,21.57081,0,0,1,1.24121-6.7539,29.22407,29.22407,0,0,1,3.44531-7.0293,25.14532,25.14532,0,0,1,5.09961-5.65137,9.70057,9.70057,0,0,1,6.20313-2.34326h1.65332a24.94129,24.94129,0,0,1,5.23828-14.33447q4.40625-5.23315,7.71777-5.23731,1.377,0,2.48145,3.30762a17.74615,17.74615,0,0,0,3.30762,5.78906,9.70177,9.70177,0,0,0,7.44336,3.30811,35.98072,35.98072,0,0,0,15.16113-3.03223,27.24757,27.24757,0,0,1-9.09668-7.71875,22.41352,22.41352,0,0,1-4.41016-13.50781q0-7.99219,5.65039-12.54248a20.66477,20.66477,0,0,1,13.37012-4.54834,29.83431,29.83431,0,0,1,10.61328,1.9292,23.57436,23.57436,0,0,1,8.959,6.06494,4.39589,4.39589,0,0,1-1.92969-.55127,40.35629,40.35629,0,0,0-10.19922-1.103q-1.38282,0-4.96191.41358-3.58594.4138-7.44336,1.24072a59.38672,59.38672,0,0,0-7.0293,1.92969q-3.17286,1.10448-3.44629,2.75634.82764,6.06739,6.8916,12.1294,6.8877,7.72046,15.16211,7.71875,3.02929,0,10.47461-3.5835l15.98926-6.89209Q177.73868,122.697,178.01651,122.97017ZM77.9501,212.56148q-.82617.55518-1.65332,1.10254-.82764.55518-1.6543,1.10254a34.31173,34.31173,0,0,1-5.51367,2.20508,20.03421,20.03421,0,0,1-5.78808.82714,2.84966,2.84966,0,0,1-2.75684-.27539q-2.48145-.54931-1.92969-2.75683a5.83148,5.83148,0,0,1,2.75684-4.96192,10.25221,10.25221,0,0,0,2.06738-1.3789q.9624-.82617,2.06739-1.65332a8.99317,8.99317,0,0,0,3.583-3.3086,7.03431,7.03431,0,0,0-1.92871-.82617,3.995,3.995,0,0,1-1.92969-1.3789,3.43276,3.43276,0,0,1-.27636-2.48047,2.43674,2.43674,0,0,1,.27636-1.10254,9.20379,9.20379,0,0,0,.55079-4.41113,2.13706,2.13706,0,0,1,.68945-2.20508,2.628,2.628,0,0,1,2.34277-.55176,7.80941,7.80941,0,0,1,5.09961,2.34375A27.61136,27.61136,0,0,1,77.9501,197.124a4.13876,4.13876,0,0,1,.27637,3.85938,1.1237,1.1237,0,0,1-.27637.82714,6.532,6.532,0,0,1-1.37793,2.34278c-.37011.27539-1.19726.23242-2.48047-.1377a5.27254,5.27254,0,0,0-2.75683-.27539,1.287,1.287,0,0,0-.96485.96484,2.4206,2.4206,0,0,1-.68945,1.24024,24.43972,24.43972,0,0,1-9.09668,6.8916q-1.10449,1.1045,0,1.10254a7.62154,7.62154,0,0,0,3.30762.55176,29.02989,29.02989,0,0,0,4.13476-.27637,39.84408,39.84408,0,0,0,4.13575-.82617,10.224,10.224,0,0,1,2.75586-.68945,10.01659,10.01659,0,0,0,2.75683-.68946A.7844.7844,0,0,0,77.9501,212.56148ZM60.58389,117.18111q8.54151-3.30762,12.81836-4.82422,4.27-1.51172,6.47754-2.34277c1.46875-.55176,2.61914-1.0083,3.44629-1.37842q1.24072-.54931,3.584-1.37842,2.3379-.8269,6.8916-2.481,4.54834-1.65381,13.09375-4.96191a4.60387,4.60387,0,0,1,1.37793-.27588v.55127a.79727.79727,0,0,1-.27539.55127,15.30909,15.30909,0,0,1-.96484,2.06787,5.27042,5.27042,0,0,1-.68945.96484q-7.998,3.03663-11.99121,4.54834-3.999,1.51831-6.20215,2.481-2.21046.969-3.584,1.51612-1.38281.5559-3.99707,1.6538-2.62353,1.10523-7.581,3.03272-4.96143,1.9314-14.334,5.78857.54931-1.37622.96485-2.75634C59.89444,119.02046,60.2128,118.103,60.58389,117.18111Zm10.19922,81.59717a4.92849,4.92849,0,0,0-.55078-2.20606c-.55176-.917-1.19824-1.00781-1.92969-.27539a1.49182,1.49182,0,0,0-.68945.55176,1.49135,1.49135,0,0,1-.68946.55078c-.55078.73633-.37011,1.37891.55176,1.92969a4.14721,4.14721,0,0,0,1.65332.55176C70.23233,200.06539,70.78311,199.70015,70.78311,198.77828Zm7.167-53.4795c-.37012.37061-.55078.64649-.55078.82715l-.27539.27588c-.55176,0-.64648-.45654-.27637-1.37842a9.437,9.437,0,0,0,.27637-3.03222q0-6.0608-6.8916-12.1294-.27833-.54932,0-.82715l1.10254-2.48095q.54932-.54931.82715,0,6.61522,4.96215,6.61523,13.7832A14.02808,14.02808,0,0,1,77.9501,145.29878Zm-1.37793,55.68458q-.82617-3.58008-3.85937-4.13477a7.80131,7.80131,0,0,1-.1377,1.51562,6.20239,6.20239,0,0,0-.13769,1.24122c-.18555.55078,0,.82617.55078.82617A15.27682,15.27682,0,0,0,76.57217,200.98336ZM85.66885,173.417a21.07723,21.07723,0,0,0,6.20313-3.85938,16.0909,16.0909,0,0,0,3.44531-4.41113,11.29172,11.29172,0,0,0-1.10254-5.51269c-.55176-1.2837-1.19727-1.92969-1.92969-1.92969a34.93893,34.93893,0,0,0-6.06445,3.583,12.82754,12.82754,0,0,0-4.41113,5.51367Q81.80948,171.76217,85.66885,173.417ZM148.245,72.79927q-1.10448-3.30834-1.792-6.34033-.69141-3.03-1.24023-6.06494a9.29858,9.29858,0,0,0-.1377-1.9292,4.37448,4.37448,0,0,1-.13769-1.103,5.13933,5.13933,0,0,1-.41407-1.10254,2.50234,2.50234,0,0,0-.68847-1.10253l1.65332-5.78907c.55176-.55127.82715-.91748.82715-1.10254a2.03144,2.03144,0,0,0,.55175.41358,1.53931,1.53931,0,0,1,.55079.689,53.84875,53.84875,0,0,1,5.78906,8.54541,4.19355,4.19355,0,0,1,1.10254,2.481c0,.18555-.18457.27588-.55078.27588a4.912,4.912,0,0,1-3.03223-1.37842l-.27637.27588A23.5329,23.5329,0,0,0,151.415,62.875q.68555,1.93212,1.5166,4.41064,1.9248,5.78907,2.89453,9.78613a29.08606,29.08606,0,0,1,.96484,6.47852,22.96243,22.96243,0,0,1-1.65429,9.09668q-2.209,6.345-8.5459,6.34033a11.98581,11.98581,0,0,1-10.47461-5.78906q-2.48145-3.30762-4.13477-10.19922a28.30381,28.30381,0,0,1-4.68652,12.12891,12.4758,12.4758,0,0,1-11.02637,5.78906q-7.44433,0-10.751-7.16748a25.84279,25.84279,0,0,1-1.65429-9.648,56.589,56.589,0,0,1,1.65429-13.7832l.55079-2.20557a.2458.2458,0,0,0-.27539-.27539L104.414,69.49117q-1.38135,2.48072-3.583,10.751-1.3828,5.51735-1.92969,8.54541a17.73086,17.73086,0,0,1-1.10254,4.13526q-.55664,1.38209-1.24121,2.75635a8.41838,8.41838,0,0,1-1.51562,2.20556,3.96665,3.96665,0,0,1-2.75684,1.37842,6.47392,6.47392,0,0,1-4.96191-2.06787,13.30241,13.30241,0,0,1-2.89453-4.96191,32.071,32.071,0,0,1-1.37793-6.06446,42.442,42.442,0,0,1-.41406-5.37549,40.16523,40.16523,0,0,1,1.65429-11.02636,4.87267,4.87267,0,0,1,.55078-2.20557q.54931-.8269.82715,0a12.99841,12.99841,0,0,1-.27539,2.481,44.99073,44.99073,0,0,0-.82715,8.27q0,14.61474,6.06446,14.61035,2.75244,0,4.41113-3.85938a51.53637,51.53637,0,0,0,2.75683-9.37256A100.59528,100.59528,0,0,1,100.831,68.38863a28.40888,28.40888,0,0,1,1.10254-2.61914q.82617-1.7893,1.792-3.72119a14.88441,14.88441,0,0,1,2.20508-3.30811,3.3786,3.3786,0,0,1,2.34277-1.37842q1.377,0,1.37891,3.03223a34.09389,34.09389,0,0,1-.27637,3.72168q-.27685,2.34522-1.10254,6.20264-.55517,3.86352-.96484,6.20214a22.70772,22.70772,0,0,0-.41309,3.72168q0,5.78907,2.48047,8.82129,1.92627,3.03663,6.34082,3.03223a14.895,14.895,0,0,0,10.33692-3.5835q3.99317-3.57934,3.998-10.1997a49.35036,49.35036,0,0,0-.27636-5.09961q-.27685-2.61695-.55078-4.82422c-.3711-1.28369-.68946-2.481-.96485-3.584a24.03762,24.03762,0,0,0-.96484-3.03222q-.27833-2.48072-.82715-2.481,0-3.03,2.20508-8.27c.18066-.73193.36621-1.10254.55176-1.10254.18066,0,.55078.46094,1.10254,1.37842q2.75244,5.23974,4.41015,17.918a57.44316,57.44316,0,0,0,1.6543,9.51074,29.59583,29.59583,0,0,0,2.48144,6.478,9.85449,9.85449,0,0,0,8.82129,4.68652q5.23242,0,6.33985-3.584,0-1.37622-1.92969-4.96192-1.38282-2.75244-2.34277-4.82422A34.50079,34.50079,0,0,1,148.245,72.79927ZM100.831,49.36763q-3.03662-1.09863-3.03223-3.03222A4.95521,4.95521,0,0,1,99.72842,42.476c1.10254-1.10254,2.11035-1.46875,3.03223-1.10254.73242.18506,1.10254.92139,1.10254,2.20508A11.219,11.219,0,0,1,103.036,47.438a7.484,7.484,0,0,1,1.92969,1.37841,8.59447,8.59447,0,0,1-1.37793,2.75635,2.11927,2.11927,0,0,0-.68946-.82666,6.28858,6.28858,0,0,1-.96484-.82715,9.7331,9.7331,0,0,1-1.92969,2.34326q-1.10449.969-2.48144,2.06739a18.24391,18.24391,0,0,1-5.23731,3.03222q-.55517.55591-5.51367,2.20557a3.05589,3.05589,0,0,1-1.37793.27539l1.10254-.82666q1.92627-1.09863,3.72168-2.20557,1.79-1.0979,3.72168-2.20507A43.67457,43.67457,0,0,0,100.831,49.36763ZM88.97745,124.07271v-.55127l2.75683-5.51318.55078-.55127a29.51164,29.51164,0,0,1,3.85938,2.20508q3.30762,2.48144,3.30762,2.75683,0,1.38282-3.03223,6.06446c-.18457.55126-.46094.646-.82715.27587a15.082,15.082,0,0,0-3.03223-2.34326Q90.90664,125.45357,88.97745,124.07271Zm17.09082,40.79834a18.87728,18.87728,0,0,1-7.167-4.13477,19.232,19.232,0,0,1-2.06738,7.58106,28.40579,28.40579,0,0,1-3.99707,6.75391,16.35067,16.35067,0,0,0,3.583.27539,33.71389,33.71389,0,0,0,3.99707-.41407q2.89454-.41308,5.92676-.96484a21.65381,21.65381,0,0,0,5.376-1.65332q2.33936-1.09863,2.34278-2.20605,0-.82619-1.92969-2.75586a7.62643,7.62643,0,0,0-2.06738-1.24122A21.23939,21.23939,0,0,0,106.06827,164.87105Zm8.54589-86.83447q-1.10448-15.15673-1.65429-23.43115-.55518-8.27052-.55078-10.19971a16.2581,16.2581,0,0,0-1.10352-6.8916q0-1.37622,2.20606-7.44287l.55078-.55127q.54931,0,.82715.82666c.18066.3706.5039,1.24072.96484,2.61914q.68555,2.06689,2.06738,5.37549a7.94073,7.94073,0,0,0,.68945,1.7915,28.88266,28.88266,0,0,1,1.24024,3.3081q.54931,1.79591,1.10254,3.30811a7.67337,7.67337,0,0,1,.55176,2.06738q0,2.20972-3.85938-2.20556c-.18555-.36573-.27539-.27539-.27539.27588q0,.27758.41309,7.02929.41308,6.75805,1.5166,19.98584.271,4.69044.55078,8.6836.271,3.999.55176,7.30517a25.38212,25.38212,0,0,1-4.96192.55127Q115.163,84.93037,114.61416,78.03658Zm6.33985,24.53418a32.99686,32.99686,0,0,0,.13769,3.3081c.09082.92188.13868,1.56348.13868,1.92969a45.70071,45.70071,0,0,1-3.3086,17.64258,4.18236,4.18236,0,0,1-1.10254,2.20508c-.37011,1.103-.55078,1.28808-.55078.55175v-3.3081c.18067-1.28369.31836-2.61865.41309-3.99707.09082-1.37842.13769-2.79981.13769-4.27295q0-2.48072-.82715-13.23193A15.60672,15.60672,0,0,0,120.954,102.57076Zm12.40527-59.26758a4.52268,4.52268,0,0,1-.55176,2.481,1.76919,1.76919,0,0,1-1.92968,1.65381q-1.65381,0-2.48047-2.481-.82764,3.03662-3.03223,3.03222a1.61791,1.61791,0,0,1-1.37891-.82714,3.37092,3.37092,0,0,1-.82617-2.481v-2.481c0-.36572-.0957-.55127-.27636-.55127a.48468.48468,0,0,1-.55079-.55127,2.97942,2.97942,0,0,1,.68848-1.51611c.457-.6416.87012-.96484,1.24121-.96484.18067,0,.27539.55127.27539,1.6538v1.37842a2.4387,2.4387,0,0,0-.27539,1.103,1.85959,1.85959,0,0,0,.1377.82666,1.9607,1.9607,0,0,1,.13769.82715c.18067.73633.55078,1.10254,1.10254,1.10254a2.92459,2.92459,0,0,0,2.48145-2.481,3.0912,3.0912,0,0,0-.13867-.96484,4.08581,4.08581,0,0,1-.1377-1.24024l-.55078-1.65429a.55926.55926,0,0,1,.13769-.41358,1.088,1.088,0,0,0,.1377-.689l.55176-.55127q.54784,0,.82617,2.06738c.18164,1.37842.27637,2.25293.27637,2.61865q0,2.759,2.20507,2.75684c.36622,0,.73243-.36621,1.10254-1.10254a8.71482,8.71482,0,0,1-1.92968-4.68652,1.86186,1.86186,0,0,1,.55175-1.37842c.18067-.36573.36621-.55127.55078-.55127v.55127a1.86063,1.86063,0,0,0,.1377.82715,1.25278,1.25278,0,0,1,.13867.55127l.27539.55127.55078,1.65429A3.41386,3.41386,0,0,1,133.35928,43.30318Zm-7.44336-7.44336c-.18457,0-.27539-.18066-.27539-.55127a2.19261,2.19261,0,0,0,.27539-1.37793q0-2.75244-3.30761-5.51367v-.55127l.55175-1.10254a7.45717,7.45717,0,0,1,3.583,6.34033A6.49,6.49,0,0,1,125.91592,35.85982ZM152.1044,212.28511l2.20508-4.68554c.18066-.18164.55175-.1377,1.10254.13769a4.77744,4.77744,0,0,1,1.10351.68848,2.36308,2.36308,0,0,0,1.10254.68945,2.50177,2.50177,0,0,1,1.10254.68945q1.65381,1.10449,2.48047,1.6543c.18164.18457.36621.37012.55176.55078q0,1.65381-2.75684,6.34082a1.1251,1.1251,0,0,1-.82715.27539,34.97162,34.97162,0,0,0-2.89453-2.06738q-1.51758-.9624-3.44531-2.34375-.82764,1.38282-1.37891,2.48145a18.63413,18.63413,0,0,1-1.10254,1.92968.88087.88087,0,0,1-.82715.55078,39.42915,39.42915,0,0,0-3.30761-2.48046q-1.65381-1.09865-3.30762-2.20508a.343.343,0,0,1,0-.55176l2.75586-5.78906.55176-.55078,3.30761,1.92968q1.377,1.1045,2.20606,1.65332A9.57077,9.57077,0,0,1,152.1044,212.28511Zm-8.26953-89.86621q8.54-3.30834,13.23144-5.1001,4.68457-1.7893,7.71875-2.894,3.03077-1.09863,5.23731-1.92969,2.20313-.82762,5.376-2.06787,3.16554-1.24,8.13184-3.16992,4.96143-1.92553,13.7832-5.23779a1.12755,1.12755,0,0,1,.82715-.27539h.27539c.18067.18506.18067.55127,0,1.10254a16.97552,16.97552,0,0,1-1.92969,3.3081q-7.998,3.03663-12.543,4.686-4.54835,1.65381-7.58008,2.89453-3.03663,1.24072-5.23828,2.20556-2.209.969-5.65039,2.34278-3.45119,1.38281-8.82129,3.584-5.376,2.20972-14.74805,6.06446a15.34942,15.34942,0,0,1,.82617-2.75684Q143.28067,123.799,143.83487,122.4189Zm22.60449,69.19141a9.254,9.254,0,0,1-1.92969,5.23828,27.993,27.993,0,0,1-2.61914,3.30762,10.03681,10.03681,0,0,1-3.44629,2.48144,4.07651,4.07651,0,0,1,.82715-1.3789q4.96289-4.68457,4.96192-6.89161c0-1.2832-.55079-1.92968-1.65333-1.92968a4.22724,4.22724,0,0,0-1.65429.55175.79861.79861,0,0,1-.55176.2754v-.82715q.82764-3.57862,3.584-3.583Q166.43936,188.85445,166.43936,191.61031Zm-7.71875-44.93311v-.55127l3.03223-5.78906.27539-.55127a29.55763,29.55763,0,0,1,3.85937,2.20557q3.30762,2.48071,3.30762,2.75635,0,1.10521-3.03223,6.34033c0,.18554-.18457.27588-.55078.27588a39.18873,39.18873,0,0,0-3.30859-2.481Q160.64981,147.78414,158.72061,146.6772Zm13.36914-62.02441a25.90337,25.90337,0,0,1,1.792,6.61572l.27539.55127a.79487.79487,0,0,0,.27637-.55127c.18066-.91748.41309-2.06738.68848-3.4458q.41454-2.06763,1.24121-4.82373,1.65381-4.13526,3.583-4.13525.82762,0,1.92968,1.37841a4.27683,4.27683,0,0,1,1.10254,1.92969,5.24952,5.24952,0,0,1-.41308,1.65381c-.27539.73682-.59864,1.10254-.96485,1.10254l-.82715-.82666A2.22889,2.22889,0,0,0,179.12,82.999q-1.65526,0-3.30859,8.26953-.27833,3.58594-1.37793,4.96192c-.18555.73681-.46094,1.103-.82715,1.103-.37012,0-.55176-.27588-.55176-.82715a19.34492,19.34492,0,0,0-1.37793-5.78906q-1.93212-4.13452-2.48144-4.13476l-.55078.27539c0,.3706-.27539.55127-.82715.55127-.37012,0-1.01172-.45655-1.92969-1.37793a2.21929,2.21929,0,0,1-1.10254-1.6543,8.77781,8.77781,0,0,1,.82715-1.92969l1.37793-1.65381Q170.57022,80.79341,172.08975,84.65279ZM176.914,219.45308a8.80842,8.80842,0,0,1-7.99414-4.54883,17.61977,17.61977,0,0,1-2.75684-9.23437q0-8.27051,6.61621-20.95117c.55176-.917.918-1.37793,1.10254-1.37793q0,1.93212-2.75683,9.37207-3.03663,8.2705-3.03223,12.12988a7.44418,7.44418,0,0,0,1.92969,5.5127q1.09863,2.21044,4.68652,2.206,4.40625,0,11.02637-5.78906.271-.271,3.03222-3.3086,2.75245-3.02929,7.99415-8.82129Q212.19815,178.103,224.329,178.10347a9.59161,9.59161,0,0,1,5.51269,1.92969,5.84146,5.84146,0,0,1,2.75684,4.96191,15.73384,15.73384,0,0,1-1.10254,6.33985l-.27539.55176-.27637.27539-.82715-.82715a8.25827,8.25827,0,0,0-7.71777-4.41016q-9.09814,0-21.22656,12.12891-3.30762,3.58593-6.61621,7.167-3.30762,3.58593-6.61524,7.168Q182.15226,219.45454,176.914,219.45308Zm27.291-64.23a5.0743,5.0743,0,0,0-1.792-3.4458,23.05725,23.05725,0,0,0-4.27246-3.3081,23.28922,23.28922,0,0,0-5.09961-2.34327,14.93125,14.93125,0,0,0-4.27344-.82715q-5.51659,0-9.78613,5.2378a122.5859,122.5859,0,0,0-10.06152,15.16162,8.4805,8.4805,0,0,0,2.61914.82715h3.16992a42.03216,42.03216,0,0,0,13.09375-2.20508,59.92993,59.92993,0,0,0,12.26758-5.51367Q204.20548,156.32589,204.205,155.2231Zm-8.82128-35.561a11.52734,11.52734,0,0,1-1.92969,5.23779c-.73633.92187-1.47266,1.7915-2.20508,2.61865a14.13541,14.13541,0,0,1-2.75684,2.34326,2.25962,2.25962,0,0,1-1.37793.82715c0-.18115.36622-.64209,1.10254-1.37842q4.96143-4.96215,4.96192-6.8916c0-1.28369-.55176-1.92969-1.6543-1.92969a4.22926,4.22926,0,0,0-1.6543.55127,1.11918,1.11918,0,0,1-.82617.27588v-1.103q.82617-3.30762,3.85938-3.30762Q195.38321,116.90572,195.3837,119.66207Zm16.26464,85.73144a34.93843,34.93843,0,0,1,2.20508,6.61621c.18067-.917.41309-2.06738.68946-3.44531q.41309-2.06837,1.24023-5.10059,1.65381-3.85694,3.584-3.85839c.55079,0,1.28321.46,2.20508,1.37793a3.4089,3.4089,0,0,1,.82715,1.92968,1.22072,1.22072,0,0,1-.13867.55078,1.88758,1.88758,0,0,0-.1377.82715c-.37011.92188-.73632,1.37891-1.10254,1.37891l-.27539-.27637c0-.18066-.18554-.45605-.55175-.82617a2.37985,2.37985,0,0,0-1.65332-.82715q-1.65381,0-3.03223,8.26953a25.69854,25.69854,0,0,1-1.6543,4.96192c-.18554.73632-.46094,1.10254-.82715,1.10254-.18554,0-.27539-.36622-.27539-1.10254a9.70241,9.70241,0,0,0-.41406-2.06739,26.73181,26.73181,0,0,0-1.10254-3.16992c-.46094-1.10254-.92187-2.11035-1.37793-3.03222q-.69141-1.377-1.24023-1.37891c-.3711,0-.55176.09473-.55176.27637,0,.18457-.27539.27539-.82715.27539a3.01376,3.01376,0,0,1-1.92969-1.10254,2.21932,2.21932,0,0,1-1.10254-1.6543,8.76794,8.76794,0,0,1,.82715-1.92969l1.37793-1.65429Q209.99014,201.53414,211.64834,205.39351Z" transform="translate(-49.00577 -26.76314)" fill="#231f20"/>
</svg>
