<svg xmlns="http://www.w3.org/2000/svg" width="210.9386" height="192.38928" viewBox="0 0 210.9386 192.38928">
  <path d="M51.86621,104.41569a14.25588,14.25588,0,0,1-1.6543,5.78857q-1.10449,2.20972-2.75684,1.6543A2.72392,2.72392,0,0,1,45.25,109.653a14.94135,14.94135,0,0,1-.27539-4.96192,23.838,23.838,0,0,1,1.10253-4.96191,27.81247,27.81247,0,0,1,1.6543-5.37549,11.69005,11.69005,0,0,0,.82617-5.65088,15.20569,15.20569,0,0,0-1.10254-5.92725,17.90892,17.90892,0,0,0-3.03222-4.82373,12.14059,12.14059,0,0,1-1.92969-3.17041,2.73053,2.73053,0,0,1,.82715-2.34326c.18066-.73193.55176-.82666,1.10254-.27539a12.89476,12.89476,0,0,1,4.13476,5.51318,35.34831,35.34831,0,0,1,1.6543,6.61622,19.18314,19.18314,0,0,1-.41309,7.58056q-.96972,3.72144-2.34375,7.58057a16.4844,16.4844,0,0,0-.82714,5.23779,3.231,3.231,0,0,0,1.3789,3.03223q1.65381.27831,2.75684-1.65381a1.121,1.121,0,0,1,.27539-.82715Q51.31005,104.97136,51.86621,104.41569Zm4.41015,67.5376.27637-.27539h.27539v.55078q-1.65381,7.72119-4.41113,7.99414a34.12317,34.12317,0,0,1-1.51563,5.65137,35.542,35.542,0,0,0-1.5166,5.376,43.53294,43.53294,0,0,0-.96484,7.44239,15.21438,15.21438,0,0,0,1.792,7.44336,11.00787,11.00787,0,0,0,5.23731,5.375,12.32292,12.32292,0,0,0,7.44335,1.24121,55.84176,55.84176,0,0,0,14.0586-4.54883,113.3935,113.3935,0,0,0,12.957-7.30469,34.22586,34.22586,0,0,0,4.13477-3.0332q1.9248-1.65381,4.13476-3.30762a6.56772,6.56772,0,0,0,1.92969-6.61621,34.262,34.262,0,0,0-1.792-7.167q-1.24073-3.30762-2.61914-6.8916a11.49511,11.49511,0,0,1,0-5.09961,10.725,10.725,0,0,1,1.65429-4.82422c.55176-.55176.87012-.73242.96485-.55176a3.73828,3.73828,0,0,0,.68945.82715,37.6584,37.6584,0,0,0,4.68652,8.27051A27.53583,27.53583,0,0,0,119.95507,181.05q3.85693.82764,7.44336,1.5166,3.57862.69141,7.44239,1.24023,4.96288.55518,9.92382,1.10254a44.37785,44.37785,0,0,0,9.92481,0,17.28581,17.28581,0,0,1,2.34277.1377,16.4172,16.4172,0,0,0,2.34278.13867,47.778,47.778,0,0,0,8.13281-.13867q3.99169-.41309,8.13183-.68848a57.88857,57.88857,0,0,0,9.78614-.82715q4.81933-.82763,9.78613-1.65429,3.30762-.54931,6.47754-1.37793,3.167-.82764,6.47852-1.6543a1.57487,1.57487,0,0,1,1.10253-.1377c.36622.09473.73243-.13769,1.10254-.68945a28.6653,28.6653,0,0,0-3.03222-2.61816,27.85433,27.85433,0,0,1-3.03223-2.61914,12.02277,12.02277,0,0,1-3.03223-4.68653,39.88074,39.88074,0,0,1-1.37793-5.51269,17.87557,17.87557,0,0,1,.82618-9.37305,16.16951,16.16951,0,0,1,8.2705-9.09717,22.96778,22.96778,0,0,1,6.33985-2.34277q3.30908-.68481,6.8916-1.24072,3.85694-.54931,7.85644-.96485a17.79171,17.79171,0,0,0,7.58106-2.61865,7.10383,7.10383,0,0,0,1.5166-1.37842c.45606-.55127.87012-1.00781,1.24023-1.37842q1.65381-1.6538,2.48047-1.10253c.55176.3706.73243.78369.55176,1.24023a3.69123,3.69123,0,0,1-.82715,1.24072q-5.51806,10.20191-17.36718,12.68067a55.3733,55.3733,0,0,1-7.71778,1.10254,38.06924,38.06924,0,0,0-7.71875,1.37841c-.92187.37061-1.749.689-2.48144.96485a8.83475,8.83475,0,0,0-2.20508,1.24023q-2.209,1.10523-1.10254,3.584a18.76762,18.76762,0,0,0,3.16992,6.20263,54.08609,54.08609,0,0,0,4.27246,4.82422,20.365,20.365,0,0,0,12.68067,5.23731,27.472,27.472,0,0,0,9.373-1.92969q4.13526-1.65381,8.26953-3.30762,4.13526-1.65527,8.5459-3.30859h.27539c.36621-.18067.78028-.36621,1.24121-.55078a1.07585,1.07585,0,0,1,1.24024.27539.8361.8361,0,0,1,0,1.24023,6.99209,6.99209,0,0,0-.82715,1.24024,10.83442,10.83442,0,0,1-4.68652,5.51367,55.26392,55.26392,0,0,1-6.61621,3.03222q-10.7505,4.41358-21.36329,8.40821a154.84559,154.84559,0,0,1-22.1914,6.47754q-5.51806,1.3828-10.88867,2.20605-5.376.82617-11.16407,1.37793-4.96288.55518-9.92382.82715-4.9629.27686-9.92481.27539-3.03662,0-5.78808.1377a40.53818,40.53818,0,0,1-5.78907-.1377,130.64119,130.64119,0,0,1-16.26465-1.6543,92.45917,92.45917,0,0,1-16.81543-4.96191,26.22092,26.22092,0,0,1-2.89453-1.37793q-1.519-.82764-2.89453-1.6543a11.82955,11.82955,0,0,0-.82715,4.13477,14.0143,14.0143,0,0,1-.55078,3.85937,18.21024,18.21024,0,0,1-2.75683,6.06543,37.06615,37.06615,0,0,1-4.13477,4.96192,75.84035,75.84035,0,0,1-27.56641,16.81543,34.27615,34.27615,0,0,1-6.61621,1.51562,16.32656,16.32656,0,0,1-6.8916-.68847,14.10456,14.10456,0,0,1-8.82129-9.64844,28.72685,28.72685,0,0,1-1.24023-9.09668,45.77947,45.77947,0,0,1,1.24023-9.09766,33.226,33.226,0,0,1,1.65332-5.92676q1.09865-2.89452,2.48145-5.92675a8.43666,8.43666,0,0,0,.41308-.96485,1.25117,1.25117,0,0,1,.68946-.68945h-.27539q-3.30762,0-3.3086-6.06445a31.96335,31.96335,0,0,1,4.13575-15.16114,3.40728,3.40728,0,0,1,.82714-1.37841.79362.79362,0,0,1,.27539-.55127h.2754l-.82715,2.20507a55.42668,55.42668,0,0,0-1.92969,7.0293,25.64056,25.64056,0,0,0-.55078,4.54883q0,4.69043,2.20508,4.68652Q54.62256,175.53727,56.27636,171.95329ZM186.11523,106.0695q3.30762,0,3.7207.55127c.27637.3706.043,1.56348-.68847,3.58349-.18555.37061-.3711.73682-.55176,1.103a2.4351,2.4351,0,0,0-.27539,1.10254,4.07328,4.07328,0,0,1-4.41113,3.30811,18.58722,18.58722,0,0,0-4.96192.689,26.35054,26.35054,0,0,0-4.68652,1.792q-5.51661,3.03663-11.16406,5.65088-5.65284,2.62354-11.16407,5.37549a75.58873,75.58873,0,0,1-7.58105,3.30811,28.22046,28.22046,0,0,1-8.13184,1.6538c-.73633,0-1.10254.27588-1.10254.82715a4.22561,4.22561,0,0,1-.55175,1.65381c-.37012.92188-.73633,1.37842-1.10254,1.37842-.37012,0-.50879-.1377-.41309-.41357a1.277,1.277,0,0,0-.13867-.96485,3.08848,3.08848,0,0,0-2.48047-3.03222,36.72866,36.72866,0,0,1-7.167-4.686,19.57553,19.57553,0,0,1-5.23828-6.89209q-.55518-1.37548-1.10254-2.894c-.37012-1.0083-.73633-2.06787-1.10254-3.17041a21.11974,21.11974,0,0,0-.82715,3.3081,22.16047,22.16047,0,0,1-.82715,3.30811,11.60253,11.60253,0,0,1-2.48047,5.37549q-1.93212,2.3452-4.13476,4.54834-5.51807,4.69043-11.85449,9.37255-4.41211,3.03663-8.959,5.78907a74.84,74.84,0,0,1-9.78613,4.96191,26.35834,26.35834,0,0,1-12.68067,1.92969q-8.82421-.54931-13.23144-6.8916a28.10309,28.10309,0,0,1-4.68652-15.71289,57.76629,57.76629,0,0,1,0-7.99463,29.27848,29.27848,0,0,1,1.65429-7.99414,22.67968,22.67968,0,0,1,1.37793-3.99707,16.44743,16.44743,0,0,1,2.48145-3.72168q-.55518,2.20971-1.10254,3.99756-.55665,1.79589-1.10254,3.72119a44.138,44.138,0,0,0-1.37891,10.751A22.54993,22.54993,0,0,0,50.76367,136.944q3.85694,7.44287,13.23144,8.27a36.73852,36.73852,0,0,0,18.19434-4.13525,114.16064,114.16064,0,0,0,15.02344-8.68311,83.15013,83.15013,0,0,0,13.09375-11.16455,10.64637,10.64637,0,0,0,3.03222-6.06494,91.32738,91.32738,0,0,0,.55176-10.06152q0-5.09766-.27539-10.062a26.94618,26.94618,0,0,1-.27637-3.85888V87.0485q0-5.51075-.41308-10.751-.41308-5.23315-.96485-10.751-.55517-6.33765-1.5166-12.68018-.96826-6.33837-1.791-12.68066a10.0306,10.0306,0,0,1,.13769-4.96191,28.93923,28.93923,0,0,1,2.06738-5.2378A17.21649,17.21649,0,0,1,112.374,34.259c.27637,1.37793.59473,2.80371.96484,4.27246q1.09865,4.41285,1.792,8.82129.68555,4.41285,1.5166,8.82129.271,2.20972.55078,4.54883a39.4449,39.4449,0,0,1,.27637,4.54834q0,2.759.13769,5.37549.13476,2.62279.41309,5.37549,0,9.09668.82715,18.19384.271,4.69044.82714,9.37256a56.08994,56.08994,0,0,0,1.92969,9.37256,17.36961,17.36961,0,0,0,3.03223,5.65088,26.4807,26.4807,0,0,0,4.96191,4.54883,2.99357,2.99357,0,0,0,0-1.792q-.27831-.68482-.55176-1.24024a26.59894,26.59894,0,0,1,.82715-15.71289,9.47047,9.47047,0,0,1,4.13477-4.9624,13.83671,13.83671,0,0,1,6.34082-2.481,28.3216,28.3216,0,0,1,8.4082.68945q3.9917.969,7.85645,2.06739,4.68311,1.38281,9.50976,2.61865,4.82081,1.24073,9.51074,2.34326A43.06574,43.06574,0,0,0,186.11523,106.0695ZM54.623,58.93083q10.7505-4.40625,20.123-8.27,8.27051-3.30762,16.40234-6.61572,8.127-3.30836,11.99121-4.68653c.18067-.18066.2754.37061.2754,1.65381a8.42537,8.42537,0,0,0-.55079,1.6543,2.44441,2.44441,0,0,1-1.10253.27539,2.21123,2.21123,0,0,1-.96485.27588,2.25641,2.25641,0,0,0-.96484.27539q-4.13526,1.65453-10.33789,4.13525Q83.292,50.1093,76.53808,53.00407q-6.75879,2.89454-12.956,5.37549-6.20216,2.48072-10.33789,4.13476-.55518,0,.55175-1.65381A14.29894,14.29894,0,0,1,54.623,58.93083ZM68.12988,180.49919q3.03077,0,4.96191,3.30761a16.47,16.47,0,0,1,3.03321,8.82129l.27539.55176v.27539h.27539v-.82715a55.73522,55.73522,0,0,1,2.48144-9.64843q1.65381-4.40625,4.13477-4.41016c.55078,0,1.2832.46094,2.20508,1.37793a4.07447,4.07447,0,0,1,1.10254,2.20508,3.06864,3.06864,0,0,1-.1377.96484,2.98791,2.98791,0,0,0-.13769.96484c-.37012.92188-.73633,1.37891-1.10254,1.37891l-1.10254-1.10254a2.39546,2.39546,0,0,0-1.92969-1.10254q-1.93213,0-3.584,9.64746a25.632,25.632,0,0,1-1.6543,5.78907c-.55078.7373-.9209,1.10254-1.10254,1.10254-.37012,0-.55078-.36524-.55078-1.10254q0-1.65381-1.92969-6.33985-1.93214-4.96288-2.75684-4.96191a.563.563,0,0,0-.41406.13769.558.558,0,0,1-.41308.1377c0,.37012-.27539.55176-.82715.55176a3.756,3.756,0,0,1-2.20508-1.37891c-.92188-.917-1.37793-1.55859-1.37793-1.92969a7.45752,7.45752,0,0,1,1.10254-2.48047C67.209,181.14469,67.75976,180.49919,68.12988,180.49919Zm6.61621-13.23243a4.16085,4.16085,0,0,1-1.37793,2.20606,2.4478,2.4478,0,0,1-2.75684.82617,3.33194,3.33194,0,0,1-1.92968-2.20508,3.04084,3.04084,0,0,1-.27539-1.37793,3.10929,3.10929,0,0,0-.27637-1.3789v-1.65332a1.88114,1.88114,0,0,0-.55078-1.37891v-1.37793c.18066-.36621.36621-.73242.55078-1.103a.88143.88143,0,0,1,.82715-.55127c.55176.18555.78027.41358.68945.68946a2.97975,2.97975,0,0,0-.13769.96484,2.26339,2.26339,0,0,1,.41308,1.6543,9.73627,9.73627,0,0,0-.13769,1.65332q.271,2.75976,2.20507,2.75683,1.92627,0,2.48145-2.75683a7.915,7.915,0,0,0-.1377-1.51563,13.95636,13.95636,0,0,0-.41406-1.5166,1.56909,1.56909,0,0,1-.55078-1.10254q0-1.65381.82715-1.92968c.55078-.18067.82617-.09034.82617.27587v1.10254a6.82507,6.82507,0,0,1,.55176,2.481,6.6863,6.6863,0,0,0,.55176,2.48047c0,1.10351.36523,1.6543,1.10254,1.6543q1.37548.55516,1.92968,0,.82617-.54933,0-1.92969a18.88228,18.88228,0,0,1-1.3789-2.75635,4.26874,4.26874,0,0,1,.27539-3.3081.79611.79611,0,0,1,.27636-.55127.79349.79349,0,0,0,.55079-.27588A7.45224,7.45224,0,0,0,79.98339,161.34a6.02207,6.02207,0,0,1,.82715,3.99707,7.26245,7.26245,0,0,1-.27539,2.20605,3.63673,3.63673,0,0,0-.82715,1.24024,1.811,1.811,0,0,1-1.37793.96484,3.01753,3.01753,0,0,1-3.03222-1.92969A.489.489,0,0,0,74.74609,167.26676Zm8.5459-63.40283q.54931-2.20312,1.10254-4.54834.54931-2.33862,1.10254-4.54834a10.24609,10.24609,0,0,1,1.92968-3.3081q1.92481-2.48071,3.85938-.55127a3.72494,3.72494,0,0,1,1.37793,2.481,2.70768,2.70768,0,0,1-.55078,2.48095c-.37012.92188-.82715.92188-1.37891,0Q89.353,94.216,88.80468,94.216c-.37011,0-.92089.646-1.65332,1.92969a15.70154,15.70154,0,0,0-1.65429,5.51318,29.33749,29.33749,0,0,1-1.10254,5.51319,3.38368,3.38368,0,0,0-.55176,1.92969.97484.97484,0,0,1-1.10254,1.10253c-.55078,0-.7832-.31835-.68848-.96484a3.92513,3.92513,0,0,0-.13867-1.7915c-.55078-1.28369-1.05957-2.52442-1.51562-3.72168q-.69141-1.7893-1.5166-3.72119a1.63762,1.63762,0,0,0-2.20508-.82715c-.92188.37011-1.61035.27539-2.06739-.27588-.46093-.55127-.874-1.00781-1.24023-1.37842a1.85773,1.85773,0,0,1,.27539-2.75635q1.37548-2.48072,3.30762-2.20556,1.92627.27831,3.30859,3.03271a30.01429,30.01429,0,0,1,2.48047,7.167A1.56976,1.56976,0,0,0,83.292,103.86393Zm11.57812,54.30616a25.70139,25.70139,0,0,1-1.3789,3.3081q-.82617,1.65454-1.65332,3.03174c-.3711.37109-.64649.46094-.82715.27637a.81856.81856,0,0,0-.55176-.27637,24.82879,24.82879,0,0,0-3.30762-2.34277,24.5854,24.5854,0,0,1-3.03222-2.06739,1.39142,1.39142,0,0,1-.55176-1.65381q.54931-1.09863,1.24023-2.20556.68555-1.09863,1.24121-2.20508.82618-2.48145,3.03223-1.103,1.37548.82691,2.61817,1.6543a15.585,15.585,0,0,1,2.34375,1.92969A2.38477,2.38477,0,0,1,94.87011,158.17009ZM98.17773,53.41764a17.30019,17.30019,0,0,0,.82715,3.16993q.54931,1.5183,1.10254,2.89453a7.75947,7.75947,0,0,1-.55176,7.99414,2.88277,2.88277,0,0,1-2.75586,1.792,3.61577,3.61577,0,0,1-2.75683-1.792,3.44663,3.44663,0,0,0-.41407-.689,2.86107,2.86107,0,0,1-.41308-.68945,4.78918,4.78918,0,0,0-.96485,1.5166,4.75975,4.75975,0,0,1-.96484,1.51611,4.11882,4.11882,0,0,1-3.72168.82666,3.47221,3.47221,0,0,1-2.34277-2.75634c-.18555-.73243-.32325-1.37842-.41407-1.92969a9.74453,9.74453,0,0,1-.13769-1.6543V61.54948a2.5027,2.5027,0,0,0-.82715-1.7915.61752.61752,0,0,1-.1377-.68946,3.07081,3.07081,0,0,0,.1377-.96484c.18164-.36621.41406-.82666.68945-1.37842a.93256.93256,0,0,1,1.24024-.55127c.55176,0,.73242.18555.55176.55127a1.16243,1.16243,0,0,0,0,1.103,4.71667,4.71667,0,0,1,.41308,2.34277,6.97681,6.97681,0,0,0,.1377,2.34326q0,3.30836,2.48144,3.30811a2.75164,2.75164,0,0,0,2.20508-.96484,3.46783,3.46783,0,0,0,.82715-2.34327,4.007,4.007,0,0,0,0-2.06738q-.27833-.9624-.55078-2.06738a.78111.78111,0,0,1-.27637-.55127,2.19931,2.19931,0,0,0-.27539-.82715,8.35448,8.35448,0,0,1,.13769-1.37842,1.32822,1.32822,0,0,1,.96485-1.10254q.82764-.27173.82715.41358a2.71559,2.71559,0,0,0,.27539,1.24023A10.44781,10.44781,0,0,1,94.043,59.4821a8.03812,8.03812,0,0,0,.55078,3.03222,4.36745,4.36745,0,0,0,1.3789,2.481c1.28321.37061,2.20508.27588,2.75684-.27539.55078-.55127.45605-1.37842-.27637-2.481q-.82617-1.92554-1.65332-3.584a4.17322,4.17322,0,0,1,.27539-3.85938A2.98229,2.98229,0,0,1,98.17773,53.41764Zm7.44336,89.59082q3.0293,0,4.96191,3.30811a19.296,19.296,0,0,1,3.30762,8.82129v.55127c0,.18506.043.27588.1377.27588.09082,0,.13769-.09082.13769-.27588l.27637-.55127c.18066-1.10254.41309-2.4336.68848-3.99707a40.90732,40.90732,0,0,1,1.5166-5.65137q1.65381-4.68384,4.13476-4.686a3.07064,3.07064,0,0,1,2.48145,1.6538,6.67,6.67,0,0,1,.82617,2.20557,3.879,3.879,0,0,1-.27539,1.65381c-.18555,1.10254-.55078,1.65381-1.10254,1.65381l-1.10254-1.10254a2.23034,2.23034,0,0,0-1.6543-1.10254q-2.209,0-3.85937,9.648a56.77532,56.77532,0,0,1-1.65332,5.78906c-.55176.73731-.92188,1.10254-1.10352,1.10254-.37011,0-.55078-.36523-.55078-1.10254q0-1.92554-1.92969-6.61572-1.6538-4.68457-2.75683-4.68652c-.37012,0-.55078.09472-.55078.27587,0,.37012-.27637.55127-.82715.55127a6.69092,6.69092,0,0,1-2.48145-1.37841,3.75311,3.75311,0,0,1-1.37793-2.20508l1.37793-2.20557C104.79394,143.65446,105.25,143.00846,105.62109,143.00846Zm17.09082-58.7163q9.92432-3.57936,14.88574-5.51368,4.9629-1.9248,7.44336-2.89453,2.48-.9624,3.99707-1.51611,1.51172-.54858,4.27246-1.51611,2.75244-.96241,7.99414-2.89454,5.23389-1.9248,15.4375-5.78857c.917-.36621,1.37793-.45654,1.37793-.27588.18164.18506.18164.55127,0,1.10254a21.53085,21.53085,0,0,1-2.20507,3.85938q-9.375,3.58593-14.0586,5.37548Q157.166,76.026,154.55078,76.987q-2.62208.969-4.27246,1.65381-1.65381.69141-4.68653,1.92969-3.03661,1.24071-8.68359,3.58349-5.65284,2.34522-16.67773,6.75391A43.07492,43.07492,0,0,1,122.71191,84.29216Zm10.19922-27.84229a12.87239,12.87239,0,0,1,2.48144,7.44287l.2754.27588.27539-.27588c.18164-.91748.41406-2.06738.68945-3.4458A38.26354,38.26354,0,0,1,137.873,55.8986q1.377-3.85767,3.3086-3.85937a2.33258,2.33258,0,0,1,1.92968,1.37841,3.36211,3.36211,0,0,1,.82715,1.65381,1.91739,1.91739,0,0,1-.13867.82715,1.88518,1.88518,0,0,0-.13769.82666c-.37012.73682-.64551,1.103-.82715,1.103-.18457,0-.55078-.27588-1.10254-.82715a1.30684,1.30684,0,0,0-1.37793-1.10254q-1.65381,0-3.03223,7.99414a14.13587,14.13587,0,0,0-.68945,2.89453,2.96523,2.96523,0,0,1-.68945,1.792c-.18457.73633-.46,1.10254-.82618,1.10254-.37109,0-.55175-.36621-.55175-1.10254a9.713,9.713,0,0,0-.27539-1.792,28.27013,28.27013,0,0,0-1.10254-3.4458q-1.65381-3.85693-2.20606-3.85937a1.12309,1.12309,0,0,0-.82617.27588.79841.79841,0,0,1-.55176.27539,3.01157,3.01157,0,0,1-1.92969-1.10254q-1.10448-1.09863-1.10253-1.65381a8.75722,8.75722,0,0,1,.82714-1.92969l1.37793-1.6543Q131.25781,53.693,132.91113,56.44987Zm27.01562,60.92188q2.20313-1.09865,4.68653-2.20557,2.48-1.09789,4.96191-2.20508-6.61669-2.20312-13.09472-3.99707a123.80436,123.80436,0,0,0-13.36915-2.89453q-6.89355-1.37622-11.02636,3.3081a4.02958,4.02958,0,0,0-1.10352,4.41065,17.90159,17.90159,0,0,1,2.06836,4.686q.68409,2.48145,1.51563,4.96192a2.37948,2.37948,0,0,0,1.92968,1.103,23.91448,23.91448,0,0,0,5.23731-.55176q2.48145-.54858,4.68652-1.10254a55.54473,55.54473,0,0,0,6.8916-2.61865Q156.61816,118.75455,159.92675,117.37175Zm25.085,28.66894a33.93977,33.93977,0,0,1-.68848,6.8916,16.46776,16.46776,0,0,1-2.89453,6.34033,93.96924,93.96924,0,0,1-10.47559,10.47559q-2.209,1.93214-4.54883,3.72168-2.3452,1.79591-4.82324,3.44531-2.75976,1.65381-5.376,3.16992a17.3425,17.3425,0,0,1-5.65136,2.06739q-7.17042,1.65526-12.12891-.96485-4.96143-2.61621-6.8916-10.6123a19.44352,19.44352,0,0,1-.68945-6.06543,44.87955,44.87955,0,0,1,.68945-6.064q.54932-3.30834,1.37793-6.61621a26.80873,26.80873,0,0,1,2.48144-6.34033c0-.18066.18067-.45654.55079-.82666h.27636q-.55663,2.48072-1.10254,4.96191-.55663,2.48072-1.10351,5.23731a52.96159,52.96159,0,0,0-.68848,6.61621,13.36385,13.36385,0,0,0,1.51563,6.61572q2.75244,4.69044,8.82129,5.51368a19.29038,19.29038,0,0,0,9.23535-1.10254,76.54994,76.54994,0,0,0,8.40722-3.85938,86.40541,86.40541,0,0,0,8.82129-5.92676q4.13526-3.16626,7.99414-6.7539a8.31549,8.31549,0,0,0,1.792-1.792,14.08412,14.08412,0,0,1,1.5166-1.792q1.65381-2.20312-1.10254-3.58349a10.99517,10.99517,0,0,0-4.96192-1.10254q-2.21044-.27173-4.54882-.41358a15.40514,15.40514,0,0,1-4.54883-.96484,7.04288,7.04288,0,0,1-3.85938-5.78906,8.61679,8.61679,0,0,1,.41407-5.09961,30.27534,30.27534,0,0,1,2.34277-4.54883,10.30167,10.30167,0,0,1,4.68652-4.13477q4.96143-2.20312,9.09668,2.481A26.66452,26.66452,0,0,1,185.01172,146.04069Zm-27.01465-3.03223a25.40543,25.40543,0,0,1-3.03223,5.78907q-.27833.5559-1.37891,0a15.08166,15.08166,0,0,0-3.03222-2.34327q-1.65381-.9624-3.30762-2.06738a1.19659,1.19659,0,0,1-.27539-1.65381q.82617-1.37622,1.51562-2.61914a23.65288,23.65288,0,0,0,1.24122-2.61865q.54784-1.37622,1.37793-.82715a34.5251,34.5251,0,0,1,6.61621,4.41065A2.53211,2.53211,0,0,1,157.99707,143.00846Zm11.30175-4.41064q1.92627.27759,3.72168.55127a8.58063,8.58063,0,0,0,3.72168-.27539,6.92378,6.92378,0,0,0-6.8916-4.68653c-1.83886,0-2.85156.646-3.03222,1.92969a1.61535,1.61535,0,0,0,.68945,1.92969A3.61443,3.61443,0,0,0,169.29882,138.59782Zm30.32325-10.06152q1.377-.41382,5.23828-1.92969,3.85693-1.51172,11.16406-4.13526,7.30079-2.61621,19.15918-7.02929c.917-.36621,1.37793-.45655,1.37793-.27588v.55176a.79916.79916,0,0,1-.27539.55127,11.87848,11.87848,0,0,1-2.20606,3.85937q-9.92284,3.58521-16.53906,6.20215-6.61669,2.62353-10.88965,4.27295-4.27587,1.65381-6.47754,2.61865-2.21045.969-3.30761,1.51611a.343.343,0,0,1-.55176,0q-.27833-.271,0-.82666l1.6543-4.96191A9.78577,9.78577,0,0,0,199.62207,128.5363ZM234.63183,197.59a20.78444,20.78444,0,0,0,6.61621-1.10254c.73243-.36621,1.10254-.36621,1.10254,0l-.27539.27539a.79587.79587,0,0,0-.55176.27637,11.42507,11.42507,0,0,1-7.99414,2.75586,4.94184,4.94184,0,0,1-2.48144-.82618,2.14378,2.14378,0,0,1-.82715-1.92968,9.65461,9.65461,0,0,1,2.75684-6.61622q-2.48-.82762-2.48047-2.48144a6.33073,6.33073,0,0,1,1.92968-3.85938c1.28321-1.2832,2.2959-1.92968,3.03223-1.92968.36621,0,.55078.09472.55078.27636l.55176,1.10254-.82715,1.37793c0,.18555-.04687.27637-.13769.27637-.09473,0-.1377.09473-.1377.27539h-.27539a1.08256,1.08256,0,0,0-1.10352-.82715l-1.10253.55176a4.79058,4.79058,0,0,0-.55079,1.37793q.271,1.1045,2.48047,1.10254a3.0203,3.0203,0,0,0,1.92969-1.10254,7.76407,7.76407,0,0,0,1.6543-1.37793c.18066-.18164.27539-.09082.27539.27539a4.75755,4.75755,0,0,1-1.10254,3.03223,21.66591,21.66591,0,0,0-6.06445,6.33984,1.23614,1.23614,0,0,1-.1377.55176,1.19981,1.19981,0,0,0-.13769.55078Q231.32422,197.591,234.63183,197.59Z" transform="translate(-42.43762 -29.986)" fill="#231f20"/>
</svg>
