<svg xmlns="http://www.w3.org/2000/svg" width="246.27788" height="197.95226" viewBox="0 0 246.27788 197.95226">
  <path d="M88.49564,39.82994q0,1.10448.41358,8.13183.41308,7.02978,1.10254,15.5752.68481,8.54809,1.10254,16.26416.4138,7.72119.41357,10.47558-.55591,6.89357-1.37842,11.43994a33.58106,33.58106,0,0,1-4.13476,10.33741q-.55591,1.38281.82666,1.6538a36.58076,36.58076,0,0,0,3.72168,1.37842,10.05888,10.05888,0,0,1,3.4458,1.92969,7.6297,7.6297,0,0,1,2.75683,3.5835,7.28222,7.28222,0,0,1,.27539,4.41064q-2.20971,8.26977-7.02929,12.68067a94.96413,94.96413,0,0,1-11.44043,8.82128q-3.58521,1.93214-8.40772,4.41065-4.82592,2.48071-9.92383,4.54834a85.29885,85.29885,0,0,1-10.3374,3.4458,37.14409,37.14409,0,0,1-9.37256,1.37842,40.42274,40.42274,0,0,1-7.99414-.96485,13.7938,13.7938,0,0,1-7.16748-3.4458,22.46914,22.46914,0,0,1-8.54541-14.61035,44.0963,44.0963,0,0,1-.68945-5.65088,38.96355,38.96355,0,0,1,.13818-5.65136,53.73231,53.73231,0,0,1,9.09668-28.11768,4.9467,4.9467,0,0,1,1.37842-1.37842,2.7043,2.7043,0,0,1,.13769,2.20557,15.58733,15.58733,0,0,1-.96484,1.65381q-1.38281,3.03661-2.61865,6.20263a53.1235,53.1235,0,0,0-2.06738,6.478A35.26,35.26,0,0,0,19.855,131.35044q.82691,9.09741,7.30517,13.64551a25.47633,25.47633,0,0,0,15.02344,4.54834,44.28306,44.28306,0,0,0,11.71582-1.7915A110.67578,110.67578,0,0,0,66.99369,143.204a114.927,114.927,0,0,0,12.68066-6.20215,99.57622,99.57622,0,0,0,10.4751-6.75391,7.37277,7.37277,0,0,0,1.92969-1.37841q1.65381-1.09865-.27588-1.92969a32.03814,32.03814,0,0,0-6.33984-2.61865q-3.30835-.96313-6.61621-1.792-3.58594-1.0979-7.16749-2.06738-3.58519-.9624-7.44287-2.06738a2.0052,2.0052,0,0,1-1.6538-2.75684c.18066-.91748.31884-1.69677.41357-2.34326q.13549-.9624.41357-2.34277.54859-1.37622,3.03223-2.481a32.62837,32.62837,0,0,1,4.96191-1.24072q2.48071-.41382,4.96192-.96485a30.73,30.73,0,0,1,3.72168-.82714,20.43745,20.43745,0,0,0,3.4458-.82666,3.90838,3.90838,0,0,0,2.75635-3.85938q0-1.65381-.27539-6.75391-.27833-5.09765-.68946-11.71582-.41308-6.616-.82666-13.92089-.41382-7.30078-.82715-13.64551Q83.25762,48.3773,82.982,43.827q-.27759-4.54834-.27539-5.37549a39.55172,39.55172,0,0,0-.27588-4.54834,13.83082,13.83082,0,0,0-1.37793-4.54883,3.221,3.221,0,0,1,0-2.61865c.36572-.82715.73194-1.69727,1.10254-2.61866l1.65381-4.13525c.36621-.73193.6416-1.10254.82715-1.10254a8.893,8.893,0,0,1,.82715,1.10254l4.96191,12.40527a31.85121,31.85121,0,0,0,1.24023,3.5835,34.12185,34.12185,0,0,1,1.24073,3.5835,8.81419,8.81419,0,0,1,.55127,2.481,1.60446,1.60446,0,0,1-.27588,1.10254c-.37012.18555-.82666,0-1.37842-.55127-.37012-.36572-.82666-.82666-1.37793-1.37793a10.87379,10.87379,0,0,1-1.37842-1.65429A.79609.79609,0,0,0,88.49564,39.82994ZM30.88139,103.50816a4.60577,4.60577,0,0,1-3.03223-1.92969,8.70988,8.70988,0,0,1-1.10254-3.30762A50.78258,50.78258,0,0,1,27.022,86.41734a36.784,36.784,0,0,1,3.584-11.30225,32.51339,32.51339,0,0,0,1.51612-3.584,12.41774,12.41774,0,0,1,2.34326-3.85938,10.29457,10.29457,0,0,1-.82715,5.37549,22.89293,22.89293,0,0,0-1.65381,4.82422A63.90373,63.90373,0,0,0,30.606,84.21177a28.28989,28.28989,0,0,0-.27587,6.8916A11.914,11.914,0,0,0,30.606,93.722a2.55364,2.55364,0,0,0,1.92969,1.792,3.46467,3.46467,0,0,0,2.89453-.1377,5.53564,5.53564,0,0,0,2.06739-2.06738,11.11644,11.11644,0,0,0,.96484-1.792,2.25282,2.25282,0,0,1,1.7915-1.24024q-.55516,2.48072-1.10254,5.09961a14.81477,14.81477,0,0,1-1.92968,4.82422Q35.012,104.33507,30.88139,103.50816ZM36.11918,122.805a2.59365,2.59365,0,0,1-2.34326,0,4.36156,4.36156,0,0,1-1.51612-1.37842,1.88887,1.88887,0,0,1-.689-1.6538,2.4464,2.4464,0,0,1,.689-1.37842,6.39792,6.39792,0,0,0,.82715-1.792q.271-.96242,1.65381-.689a5.99618,5.99618,0,0,1,4.41064,3.03223,41.11561,41.11561,0,0,1,2.34327,4.27295,43.06913,43.06913,0,0,1,1.792,4.54834q.54858-2.20312.96484-4.13526.41309-1.9248.96485-4.13476a7.06715,7.06715,0,0,1,2.20507-4.13477,2.31492,2.31492,0,0,1,3.03223-1.37842,5.042,5.042,0,0,1,2.75684,2.75635v1.103c0,1.2876-.37061,2.11474-1.10254,2.481a.70318.70318,0,0,1-.96485-.27588,11.05676,11.05676,0,0,0-.96484-1.10254q-1.3828-1.65381-2.75684.55127a12.68483,12.68483,0,0,0-1.792,4.68652q-.41309,2.48072-.96484,4.96191c-.18506.73633-.37012,1.47315-.55127,2.20508a4.0922,4.0922,0,0,1-1.10254,1.92969.73123.73123,0,0,1-.82715.82715q-.55518-.27173-.41308-.41358c.09033-.09033.043-.22851-.13819-.41357a28.21912,28.21912,0,0,0-3.58349-9.37256Q37.77128,122.53135,36.11918,122.805Zm70.8457,27.01514a51.71339,51.71339,0,0,1,6.06494-22.60449.94312.94312,0,0,0,.27539-.68946c0-.27539.18116-.31836.55127-.13769q.8269.27759,0,1.10254a31.73279,31.73279,0,0,1-1.51611,5.23779,31.11126,31.11126,0,0,0-1.51611,5.23779q-.55518,3.03663-.96485,6.20215a14.36963,14.36963,0,0,0,.68946,6.478,11.81039,11.81039,0,0,0,8.82128,7.99463q-.5559-9.646-1.792-20.67481-1.24072-11.02221-2.61865-21.50195a16.11159,16.11159,0,0,1-10.062-6.61621,25.136,25.136,0,0,1-4.54834-11.30225q-.55591-3.85693-.96485-11.30224-.4138-7.44288-.68945-15.437-.27759-7.9922-.55127-15.4375-.27759-7.44288-.55127-11.30225Q97.03716,40.661,96.48978,36.246a28.63627,28.63627,0,0,0-2.48095-8.54541,4.61491,4.61491,0,0,1-.41358-2.34326,19.92241,19.92241,0,0,1,.41358-2.06738q.54931-1.37622,1.10254-2.89454.54932-1.51171,1.10253-2.89453a.73089.73089,0,0,1,.82715-.82666c.36621,0,.55127.27539.55127.82666a40.36286,40.36286,0,0,1,3.584,12.40479,63.75554,63.75554,0,0,1,.96435,8.13232q.41382,5.65357.96485,12.543.54932,6.89355.96484,14.60987.41382,7.72119.96484,14.335.54931,6.616,1.103,11.43994a37.83289,37.83289,0,0,0,1.10254,6.478,15.831,15.831,0,0,0,5.23779,7.16749,3.42843,3.42843,0,0,1,.689.41357,2.865,2.865,0,0,0,.689.41309q-.27759-2.48071-.41357-4.96192c-.09473-1.65381-.1377-3.21289-.1377-4.686a8.52587,8.52587,0,0,0-.55127-5.2378,10.157,10.157,0,0,1-.82714-5.23779q.82762-2.20312,1.51611-4.41064a11.07042,11.07042,0,0,1,2.06787-3.85889q.54932,1.10449,2.20508,4.96191,1.65381,3.86353,3.3081,8.13184a65.36524,65.36524,0,0,1,2.481,7.581q.82691,3.30762-.27588,3.30762-1.38209,0-3.85889-3.30762v4.41065a42.17791,42.17791,0,0,0,.2754,4.686,24.99138,24.99138,0,0,0,8.82128-1.65381q-1.10448-9.3684-2.20507-18.19384-1.10523-8.8191-2.481-16.26416,1.0979-6.06079,2.75635-6.06494,1.37622,0,2.481,3.4458a66.39934,66.39934,0,0,1,1.92969,7.85644q.8269,4.41285,1.37842,8.5459.54931,4.13452.82715,5.78906.271,3.0359.41308,6.20215.13623,3.17212.41358,6.75391,5.51146-2.48145,10.61328-5.37549,5.09766-2.89454,8.13184-4.82422-2.48072-2.20312-5.65088-4.82422a10.13275,10.13275,0,0,0-6.478-2.61865,6.88,6.88,0,0,0-3.03223.55127,2.44947,2.44947,0,0,1-1.37842.689,5.10591,5.10591,0,0,0-1.37841.41358q-1.38282.27831-1.10254-.82666a42.36324,42.36324,0,0,1,2.89453-7.58106q1.51171-2.89452,6.75342-4.273a57.345,57.345,0,0,1,15.4375-1.9292,54.11722,54.11722,0,0,1,24.53418,5.51319q4.40625,1.9314,3.72119,3.72119-.69067,1.79662-2.34278,5.37549-1.38281,3.03662-5.78906,4.41064-2.20971.82691-4.54834,1.792-2.34594.969-4.82422,1.792a12.57478,12.57478,0,0,0,5.37549,3.58349,19.54057,19.54057,0,0,0,6.478,1.10254,20.051,20.051,0,0,0,11.57764-3.58349,40.55792,40.55792,0,0,0,6.20263-5.1001q2.89454-2.8938,5.92676-5.65088a2.88008,2.88008,0,0,1,4.96191,2.20508,13.19406,13.19406,0,0,1-.96484,7.30517q-1.51832,3.45045-3.16992,6.75391c-.37061.92187-.82715,1.28809-1.37842,1.10254-.37061-.55127-.37061-1.00781,0-1.37842a17.31363,17.31363,0,0,0,.82715-2.61865c.18066-.82666.36621-1.69678.55127-2.61865q.54932-1.09865-.27588-1.6543c-.37012-.18067-.59863-.18067-.689,0a1.48982,1.48982,0,0,1-.689.55176,13.0276,13.0276,0,0,0-3.17041,3.16992q-1.24073,1.79589-2.61865,3.4458a16.73053,16.73053,0,0,1-10.19971,6.75391q-6.06665,1.24071-9.64844.41357-5.51733-1.65454-10.19922-3.4458a29.4776,29.4776,0,0,1-8.82129-5.37549,1.20239,1.20239,0,0,0-1.65429-.27588q-5.51733,3.86353-11.57764,7.30518a85.80655,85.80655,0,0,1-11.854,5.65136q.54931,10.7505,1.103,22.19092.54933,11.44189,1.10254,22.19092,2.75244-1.09863,7.58057-3.5835a105.46879,105.46879,0,0,0,9.64844-5.65136q4.82007-3.16552,8.82129-6.34033a19.17557,19.17557,0,0,0,5.37549-5.92676c.36621-.55127.09033-1.28369-.82715-2.20508a14.92667,14.92667,0,0,0-6.06446-2.20557q-2.20971-.271-4.41064-.41357a23.98048,23.98048,0,0,1-4.41065-.689,10.99754,10.99754,0,0,1-4.82421-1.92968,5.3664,5.3664,0,0,1-2.06739-3.85938,12.40233,12.40233,0,0,1,1.10254-7.99414,20.70387,20.70387,0,0,1,4.68653-6.06494,9.972,9.972,0,0,1,6.8916-2.75635,7.68267,7.68267,0,0,1,4.96191,1.792,20.85613,20.85613,0,0,1,3.99707,4.41065,26.55147,26.55147,0,0,1,2.89453,5.51318,47.08311,47.08311,0,0,1,1.65381,5.09961,29.52866,29.52866,0,0,1,.55127,5.1001,17.65082,17.65082,0,0,1-.55127,4.27246,18.96491,18.96491,0,0,1-6.61572,12.95654,33.34382,33.34382,0,0,1-2.75684,2.481,33.32912,33.32912,0,0,0-2.75635,2.481q-4.41284,3.58593-8.82128,6.61572-4.41285,3.03662-9.09717,5.78906c-.73633.37061-1.42578.73633-2.06738,1.10254q-.969.55591-2.06739,1.10254.271,2.48145.41309,4.82422.13623,2.34522.41357,4.54883A63.0749,63.0749,0,0,1,149.83109,167.6a27.09779,27.09779,0,0,1,13.36963-3.44531,13.35959,13.35959,0,0,1,6.20215,1.6543,6.62555,6.62555,0,0,1,3.72168,4.96191,17.47936,17.47936,0,0,1-1.37842,9.92383q-.8269,1.65381-1.37842-.27539a9.955,9.955,0,0,0-6.8916-5.51367,12.2708,12.2708,0,0,0-4.82373-.1377,33.74384,33.74384,0,0,0-4.82422,1.24024,42.98694,42.98694,0,0,0-12.95654,8.26953q3.85767,4.96288,13.64551,7.58105a84.63927,84.63927,0,0,0,21.91552,2.61914,110.66544,110.66544,0,0,0,24.94776-2.89453,58.83511,58.83511,0,0,0,21.36377-9.23437,22.83113,22.83113,0,0,1,2.89453-2.06836q2.33862-1.51172,5.23779-3.30762a61.01044,61.01044,0,0,1,5.78906-3.16992,11.58818,11.58818,0,0,1,4.54834-1.37891c1.2837,0,1.92969.55176,1.92969,1.6543q-1.65454,5.51807,1.51612,8.27051a10.44506,10.44506,0,0,0,7.02929,2.75586,7.36031,7.36031,0,0,0,4.96192-1.65332q1.92554-1.65381.55127-4.68653a9.06375,9.06375,0,0,1-2.06739-7.58105,16.70087,16.70087,0,0,1,2.89453-7.30518,16.17091,16.17091,0,0,1,3.72168,7.85694,31.06688,31.06688,0,0,1,.41309,9.64843,21.05457,21.05457,0,0,1-3.03223,8.82129,13.46593,13.46593,0,0,1-6.8916,5.65039q-7.44287,1.38282-9.92383-2.20507a27.70831,27.70831,0,0,1-3.85937-9.64844q-.8269-.271-1.65381,1.10254-16.54029,12.68262-31.28809,16.67773a101.88278,101.88278,0,0,1-26.32617,3.99707,76.39011,76.39011,0,0,1-14.05859-1.10254q-5.78907-1.09863-8.82129-1.65332-7.99878-1.377-12.543-5.51367a28.97806,28.97806,0,0,1-7.0293-9.64844q-3.03662,3.03663-5.65136,5.92676-2.62281,2.89453-5.65088,5.92676-2.20973,2.48145-4.54834,5.09961a59.24318,59.24318,0,0,1-4.82422,4.82422,19.91361,19.91361,0,0,1-4.82422,3.584,11.92761,11.92761,0,0,1-5.65137,1.37793,10.186,10.186,0,0,1-7.44287-2.48047,16.31645,16.31645,0,0,1-6.06445-10.47558A94.53154,94.53154,0,0,1,75.815,208.26109a54.69893,54.69893,0,0,1-15.71289,2.48047,28.83128,28.83128,0,0,1-12.81836-2.75586,21.39507,21.39507,0,0,1-9.23486-9.09766,28.76725,28.76725,0,0,1-1.51612-16.126,32.89823,32.89823,0,0,1,6.20215-14.748,17.00106,17.00106,0,0,1-2.06738,7.85644,15.82492,15.82492,0,0,0-1.79151,8.40723q1.09791,8.54883,6.89161,11.99219a26.99671,26.99671,0,0,0,14.05859,3.44531A64.07,64.07,0,0,0,75.815,197.51011a89.141,89.141,0,0,0,16.54-6.06445q.54858-2.20312,1.24023-4.54883a27.30725,27.30725,0,0,1,1.792-4.54785,72.3809,72.3809,0,0,1,4.96192-11.02735.73123.73123,0,0,1,.82715-.82714c.36572.18554.45654.37109.27539.55175a.79658.79658,0,0,0-.27539.55176,42.03074,42.03074,0,0,1-1.37842,4.82324q-.82691,2.34669-1.6543,4.54883-.55518,2.21045-1.37793,4.54883-.82764,2.34522-1.37842,4.54785a84.19788,84.19788,0,0,0,14.748-8.68262,41.61188,41.61188,0,0,0,9.51026-9.23535v-3.30761a16.07662,16.07662,0,0,1-9.09668-6.065A17.78838,17.78838,0,0,1,106.96488,149.82017ZM48.524,177.1107a2.0615,2.0615,0,0,1-2.06738,0,4.365,4.365,0,0,1-1.51611-1.37793,1.7451,1.7451,0,0,1-.689-1.5166,4.284,4.284,0,0,1,.689-1.51563,3.43648,3.43648,0,0,0,.82715-1.5166q.271-.9624,1.6538-.68945a6.5126,6.5126,0,0,1,4.41065,2.75683,40.07564,40.07564,0,0,1,3.58349,8.5459q.54933-2.20312.96485-3.99707c.27588-1.19336.59473-2.52441.96484-3.99707a11.79762,11.79762,0,0,1,2.20557-3.85938,2.0932,2.0932,0,0,1,2.75635-1.3789,5.089,5.089,0,0,1,2.75683,2.75683v2.34375q0,.69141-.82715.96485-.55517.27685-1.92968-1.10254-1.65381-1.65528-2.75635.27539a12.70335,12.70335,0,0,0-1.792,4.54785q-.41309,2.34668-.96485,4.82422c-.18506.7373-.3706,1.42578-.55127,2.06738a12.13154,12.13154,0,0,1-.82715,2.06836c-.37011.37012-.646.55078-.82666.55078-.3706,0-.55175-.27539-.55175-.82714q-.55518-2.20312-1.37793-4.54786a40.67734,40.67734,0,0,0-1.92969-4.54882A2.06485,2.06485,0,0,0,48.524,177.1107ZM64.78812,91.10337c-.55127.92188-.92138,1.37842-1.10254,1.37842-.18505,0-.27539-.55127-.27539-1.65381a14.42153,14.42153,0,0,0,.27539-3.584q0-7.16529-7.99414-14.60987a.68613.68613,0,0,1,0-1.103l1.37842-2.75635q.271-.27173.82666,0,7.99219,5.78906,7.99463,16.26416a17.91569,17.91569,0,0,1-.27588,3.16992A15.12452,15.12452,0,0,1,64.78812,91.10337Zm4.68653,89.03955q2.20313-1.37548,4.41064-2.48047a45.96574,45.96574,0,0,1,4.41065-1.92968q1.6538-.82764,3.3081-1.6543a17.02954,17.02954,0,0,0,3.03223-1.92969c.55127-.36621.82715-.73242.82715-1.10254a6.62661,6.62661,0,0,0-3.03272-.41308,8.11571,8.11571,0,0,1-3.30762-.41406q-3.30834-.82619-3.99755-2.48047a7.66348,7.66348,0,0,1-.1377-4.41114,22.39229,22.39229,0,0,1,4.13525-8.959,29.515,29.515,0,0,1,6.89161-7.0293q2.20313-1.65453,3.85888-.27588,1.37622,1.10523.82715,3.85938a10.56257,10.56257,0,0,0-.82715,2.20557,6.19993,6.19993,0,0,1-1.10254,2.20507q-1.10448,1.65381-2.48095,0a1.89231,1.89231,0,0,0-2.20508-.27588,19.16919,19.16919,0,0,0-3.85938,3.85938q-1.93212,1.93213,1.10254,2.481a7.65182,7.65182,0,0,0,2.89453.55127,10.06756,10.06756,0,0,1,3.16993.55175h.82714q4.96216,1.65381,2.75684,5.78858-1.10523,2.21044-3.17041,5.65137a11.42712,11.42712,0,0,1-4.27246,4.54882q-3.03663.55518-6.20264,1.37793a19.14462,19.14462,0,0,1-6.478.55176A2.15828,2.15828,0,0,1,69.47465,180.14292Zm26.188,22.32911a5.12084,5.12084,0,0,0,2.61914,2.75683,8.78178,8.78178,0,0,0,3.72119.82715,13.61143,13.61143,0,0,0,6.61621-1.6543,29.50923,29.50923,0,0,0,5.51318-3.85937q3.85693-3.57861,7.167-7.30469,3.30835-3.72217,6.89209-7.58105l5.78858-5.78907a34.93562,34.93562,0,0,1-1.10254-5.92675q-.27759-2.89453-.55127-5.65137a10.14242,10.14242,0,0,1-2.89453.68945,28.9475,28.9475,0,0,0-2.89453.41309h-3.03223a35.37123,35.37123,0,0,1-2.75684,9.92383,61.09266,61.09266,0,0,1-10.61279,10.751A100.61793,100.61793,0,0,1,94.836,200.267a5.85322,5.85322,0,0,1,.41309,1.10254A5.17349,5.17349,0,0,0,95.66264,202.472Zm15.16162-140.0376q1.92554-3.57934,2.75683-3.85938,3.03-1.09863,8.13184-2.89453,5.09766-1.7893,10.751-3.85937,5.647-2.06763,10.88868-3.85938,5.23388-1.7893,8.27-2.89453,1.37622-.54858,1.10254.27588-1.9314,2.759-2.75635,2.75683-6.06666,2.48071-10.3374,3.85889-4.27735,1.38282-8.27,2.75684-3.999,1.3828-8.27,3.03222-4.27736,1.65381-10.33741,4.13526a1.71611,1.71611,0,0,0-.96484.27539A1.68755,1.68755,0,0,1,110.82426,62.43443ZM122.40238,43.9647c-.55127.92188-.92187,1.37842-1.103,1.37842-.18505,0-.27539-.6416-.27539-1.92969a11.29821,11.29821,0,0,0,.55127-3.58349q0-7.44288-8.27-14.33448a.68667.68667,0,0,1,0-1.103l1.37842-2.75635q.54932-.54931.82715,0,7.99218,5.78906,7.99414,16.26416a17.91569,17.91569,0,0,1-.27588,3.16992A15.12366,15.12366,0,0,1,122.40238,43.9647Zm2.20508,115.50342a20.1394,20.1394,0,0,0,7.44287-.82666q-.55518-9.92431-1.10254-21.08838-.55518-11.1643-1.65381-22.74268a44.04705,44.04705,0,0,1-8.5459,1.92969q1.37622,10.48023,2.75684,21.502A141.091,141.091,0,0,1,124.60746,159.46812ZM163.752,123.3563a13.85918,13.85918,0,0,0-3.4458-4.13525,8.34271,8.34271,0,0,0-5.37549-1.65381q-3.03661,0-3.03223,2.481c0,.55127.41358,1.0122,1.24024,1.37841a11.73181,11.73181,0,0,0,2.89453.82715q1.65454.27759,3.17041.41309c1.00781.09521,1.69678.13818,2.06738.13818a1.851,1.851,0,0,0,1.24024.1377A1.3232,1.3232,0,0,1,163.752,123.3563ZM156.30912,82.558a39.04338,39.04338,0,0,1,3.4458,2.75635,31.31893,31.31893,0,0,1,2.89453,3.03272,1.63422,1.63422,0,0,0,1.65381.27539q2.20313-.82691,4.273-1.65381,2.06763-.8269,4.54834-1.92969a22.25024,22.25024,0,0,0-8.27-2.61914A38.23649,38.23649,0,0,0,156.30912,82.558Zm.55127-18.46972q1.92554-3.57934,2.75683-3.85938,3.03-1.09789,8.13184-2.89453,5.09766-1.7893,10.751-3.72119,5.647-1.92553,10.88867-3.85938,5.23315-1.92553,8.27-3.03222,1.92554-.54931,1.37842.27539a16.58018,16.58018,0,0,1-1.6543,2.20556,4.26639,4.26639,0,0,1-1.10254.82715q-6.06664,2.209-10.4751,3.72119-4.41284,1.51831-8.40771,2.75684-3.99977,1.24-8.27,2.89453-4.27734,1.65381-10.3374,4.13477A4.40664,4.40664,0,0,1,156.86039,64.08824Zm17.918,87.11035q1.92553-3.57934,2.75683-3.85938,3.03-1.09863,9.09717-3.17041,6.06006-2.06763,12.95606-4.27246,6.88695-2.20386,13.09423-4.273,6.20216-2.06763,9.23438-3.17041c.91748-.55127,1.28369-.45654,1.103.27588a17.87089,17.87089,0,0,1-1.6543,1.92969c-.55127.55127-.92139.82715-1.10254.82715q-6.06664,2.48071-11.43994,4.27246-5.37525,1.79662-10.47559,3.4458-5.10351,1.65455-10.3374,3.4458-5.23974,1.79663-11.30224,3.99707A4.40452,4.40452,0,0,1,174.77836,151.19859ZM194.6265,65.19078l2.481-4.96192a1.41863,1.41863,0,0,1,1.92969-.55127q1.92554,1.10523,3.58349,2.20557a39.34022,39.34022,0,0,1,3.30811,2.481A1.92278,1.92278,0,0,1,206.48,66.2938a14.47612,14.47612,0,0,1-1.51612,3.16992q-.969,1.51832-1.792,2.89454-.55517,1.3828-1.65381.27587-1.65381-1.09863-3.3081-2.20556-1.65381-1.09863-3.30811-2.20508c-.37011-.36621-.73633-.27588-1.10254.27539q-.55517,1.10523-1.10254,2.20557a14.53653,14.53653,0,0,1-1.37841,2.20508,1.39591,1.39591,0,0,1-1.65381.55126q-1.65381-1.37622-3.4458-2.61865-1.79664-1.24072-3.4458-2.34326a1.115,1.115,0,0,1-.55127-1.37842q.8269-1.65381,1.51611-3.16992a28.77144,28.77144,0,0,1,1.51611-2.89453q.8269-1.65381,2.20508-.55127,1.92553,1.1045,3.584,2.20508Q192.69682,63.815,194.6265,65.19078Zm-3.85937,66.15966a26.08742,26.08742,0,0,0,7.71875-1.10254l1.10254-.27587-.82715.82714a13.27263,13.27263,0,0,1-9.37256,3.30811,5.78058,5.78058,0,0,1-3.03223-.82715,3.41364,3.41364,0,0,1-1.10254-2.481q0-3.85694,3.30811-7.99414-2.759-.8269-2.75684-3.03222,0-1.92555,2.20508-4.13526,1.92554-2.75244,3.584-2.75635c.18066,0,.45654.18506.82666.55127a4.92985,4.92985,0,0,1,.55127,1.37793.79919.79919,0,0,1-.2754.55176,3.14,3.14,0,0,0-.55126.82666l-.82715.82715a1.30765,1.30765,0,0,0-1.37842-1.10254,2.24976,2.24976,0,0,0-1.37793.82666,4.1981,4.1981,0,0,0-.55176,1.6543,3.2321,3.2321,0,0,0,3.03272,1.37842,9.65443,9.65443,0,0,0,2.20507-1.37842,13.24336,13.24336,0,0,0,1.92969-1.6543c.18067-.18066.27588,0,.27588.55176a5.1403,5.1403,0,0,1-1.103,3.30762,17.70829,17.70829,0,0,1-3.72119,3.72168,13.34405,13.34405,0,0,0-3.4458,3.72119,4.78868,4.78868,0,0,0-.55127,1.37842Q186.63236,131.35288,190.76713,131.35044Zm-.82715,32.8042q-1.9314.55591-4.13477-1.65381-.8269-1.09863.27539-3.03271a3.427,3.427,0,0,0,.82715-1.51611c.18115-.64161.73242-.96485,1.6543-.96485a5.995,5.995,0,0,1,4.41016,3.03272,34.94632,34.94632,0,0,1,2.34326,4.41064q.96313,2.20826,1.792,4.41065.54931-2.20312.96484-4.13526.41308-1.92553.96485-4.13476a6.0472,6.0472,0,0,1,.82715-2.20557q.54858-.8269,1.37792-1.92969a2.3162,2.3162,0,0,1,3.03272-1.37842,5.04312,5.04312,0,0,1,2.75635,2.75684v1.10254c0,1.28809-.37061,2.11523-1.10254,2.481a.70311.70311,0,0,1-.96485-.27539,10.9378,10.9378,0,0,0-.96484-1.10254q-1.3828-1.65454-2.75684.55127a12.68484,12.68484,0,0,0-1.7915,4.686q-.41382,2.48145-.96484,4.96192c-.18555.73632-.37061,1.47363-.55127,2.20507a6.20555,6.20555,0,0,1-1.103,2.20606c0,.37012-.27539.55078-.82666.55078-.37061,0-.5083-.08984-.41357-.27539a.45814.45814,0,0,0-.1377-.55176,42.387,42.387,0,0,0-1.37842-4.82422,23.26908,23.26908,0,0,0-2.20556-4.54785Q191.31449,163.32725,189.94,164.15464ZM233.21928,203.85a5.93245,5.93245,0,0,1-.41309,2.34375q-.41382.96827-.96484,2.06739-1.38282,3.03662-2.06788,3.16992-.69066.1421-3.72119-1.792a10.28439,10.28439,0,0,1-2.20556-1.51563,8.72536,8.72536,0,0,0-2.481-1.5166,1.5246,1.5246,0,0,1-.27539-1.92969q.54931-1.37548,1.24023-2.75683.68482-1.37548,1.24073-2.75586c.36621-.918.689-1.37891.96484-1.37891a6.74641,6.74641,0,0,1,1.7915.55176q1.65454,1.1045,3.30811,2.06738a24.83257,24.83257,0,0,1,3.30811,2.34278C233.3101,203.29917,233.40043,203.66929,233.21928,203.85Zm7.44336-46.86279a22.459,22.459,0,0,1,1.24023-2.61865,23.73585,23.73585,0,0,0,1.24072-2.61865q.54858-1.37622,1.92969-.55127a49.42646,49.42646,0,0,1,6.8916,4.96191c.36572.18506.55127.73633.55127,1.65381A14.49025,14.49025,0,0,1,251,160.98472q-.969,1.51831-1.792,2.894-.55591,1.10523-1.92969.27588a32.84938,32.84938,0,0,0-3.16992-2.20556A30.35066,30.35066,0,0,1,240.938,159.744c-.55127-.36621-.92188-.27588-1.10254.27588q-.55591,1.10448-1.24073,2.20507a15.5292,15.5292,0,0,0-1.24023,2.481.87761.87761,0,0,1-1.37842.27588q-1.9314-1.37622-3.72168-2.61914-1.79589-1.24-3.72119-2.61865c-.55127-.18115-.646-.45655-.27588-.82715a16.87838,16.87838,0,0,1,1.37842-3.4458c.55127-1.00781,1.10254-2.06738,1.6543-3.16992q.54858-1.37622,1.9292-.55127A36.25611,36.25611,0,0,1,240.66264,156.98716Z" transform="translate(-16.08583 -16.67417)" fill="#231f20"/>
</svg>
