<svg xmlns="http://www.w3.org/2000/svg" width="276.13792" height="197.05013" viewBox="0 0 276.13792 197.05013">
  <path d="M71.36569,159.16691a27.87886,27.87886,0,0,1-9.51741-1.34057q-3.62-1.33843-7.10505-6.70236-1.07417-1.872-2.14453-3.619-1.07417-1.74088-2.14453-3.88732-1.87908-3.2175-4.02123-3.21726A8.91262,8.91262,0,0,0,40.535,142.6793a24.97188,24.97188,0,0,0-4.82566,5.62963,52.1681,52.1681,0,0,0-3.7534,6.97067q-1.60982,3.61925-2.68113,6.03231a73.19384,73.19384,0,0,1-2.68114,6.97019q-1.34484,2.95324-2.4133,4.82567-4.02029,5.6301-7.77463,5.63009a7.77355,7.77355,0,0,1-6.16576-3.3507,26.75936,26.75936,0,0,1-4.29-7.90949,56.216,56.216,0,0,1-2.41236-9.24911,46.3382,46.3382,0,0,1-.80444-7.37241,64.09162,64.09162,0,0,1,2.14453-17.96256q.80491-2.4126,1.07227-2.41283,1.06847,0,.5366,2.949-.53992,2.95325-.80443,6.03232-.27067,3.085-.26783,6.03231,0,24.12809,10.45576,24.1288,4.55451,0,8.04246-7.239,1.60839-4.02171,3.48557-8.17685,1.87194-4.15348,3.7534-8.44515a31.8299,31.8299,0,0,1,8.04245-11.528q4.55593-5.08945,8.57906-5.094,2.94754,0,5.36227,4.0217,1.06847,1.60841,2.01062,3.35118a32.73722,32.73722,0,0,0,2.27844,3.619,15.431,15.431,0,0,0,5.89793,5.89841,16.88918,16.88918,0,0,0,8.0434,1.60839,15.40248,15.40248,0,0,0,9.91916-4.02123q1.60839-1.60909,1.60887-9.11519,0-2.41331-.53661-11.2602-.53993-8.84688-1.60792-24.12879-9.38825-9.38112-16.21977-17.02373-6.83676-7.641-11.39412-13.53912-1.34484-2.14263-3.08287-4.69127-1.748-2.5451-3.88827-5.76449a10.1829,10.1829,0,0,0-2.949-3.21679,1.802,1.802,0,0,1-.80349-1.60887V45.49457c0-1.42842.17571-2.14453.53566-2.14453a2.955,2.955,0,0,1,1.8767,1.07227L58.7654,55.4142q1.60841,1.07417,1.60792,1.8767c0,.53613-.44828.804-1.34009.804A11.39974,11.39974,0,0,1,56.8887,57.827q-1.34484-.26427-3.48557-.80443a59.84945,59.84945,0,0,0,5.22836,6.83675q3.34785,3.88922,7.1041,7.90854,3.751,4.0217,7.64072,7.77463,3.88352,3.75815,6.56845,6.70236Q78.8706,73.647,78.4698,66.27218q-.40175-7.371-.40174-10.05355A21.9345,21.9345,0,0,0,76.45919,47.103q0-1.872,3.21774-9.383l.53565-.80443q.53424,0,.80444.80443a37.9394,37.9394,0,0,1,1.475,3.7534q.936,2.68256,2.54627,6.97019,3.21679,9.11757,4.02123,11.2602a5.96754,5.96754,0,0,0,.13486,1.20618,6.39634,6.39634,0,0,1,.13391,1.20665q0,2.149-4.82566-2.949c-.18045-.35616-.26878-.17618-.26878.53613q0,.27.40269,7.77463.40175,7.50917,1.474,22.25209a14.41983,14.41983,0,0,1,.26878,3.21679A117.8052,117.8052,0,0,1,101.258,111.1781a38.98294,38.98294,0,0,1,6.56845,21.98379q-1.34484,10.45529-1.60887,10.45576-.26925,0-1.60792-8.57906-2.14975-13.13286-17.4269-29.22276.53423,7.77915.80443,12.46686.265,4.69341.26878,6.83627a88.4706,88.4706,0,0,1-.67052,9.3835,51.78392,51.78392,0,0,1-2.54722,11.25972,31.5775,31.5775,0,0,1-5.09349,9.3835A10.43184,10.43184,0,0,1,71.36569,159.16691ZM4.87772,105.548c-.53565,0-.71611-.26831-.53565-.80444a24.93626,24.93626,0,0,0,1.87669-3.35118,8.83187,8.83187,0,0,1,2.41236-3.08288,4.39027,4.39027,0,0,1,3.21774-1.34057c1.60792,0,3.2168-.04179,4.82567-.13391a25.73229,25.73229,0,0,1,4.55688.13391,14.55779,14.55779,0,0,1,5.89888,1.07227,2.12277,2.12277,0,0,1,1.07226,3.21726,44.58449,44.58449,0,0,1-4.55783,7.2385q-.80492.80419-1.60887,1.6084a10.62662,10.62662,0,0,0-1.3401,1.60887,9.95819,9.95819,0,0,1-2.815,1.60839q-1.47733.54064-2.81505,1.07227a44.08391,44.08391,0,0,1-5.22836,1.74278q-2.55008.67242-5.49523,1.47448c.89181-.71183,1.64971-1.34056,2.27844-1.8767a8.09623,8.09623,0,0,1,2.27844-1.34056q2.67686-1.60841,5.36227-3.08288,2.67686-1.47021,5.36227-3.08335c.89181-.53614,1.34009-.98014,1.34009-1.3401-.18045-.53613-.80443-.80443-1.8767-.80443a22.26483,22.26483,0,0,0-4.82566-.53613H4.87772Zm37.80182,86.86241q1.06846,0,2.14453,1.60887a3.10843,3.10843,0,0,1,1.07226,2.14453,2.98431,2.98431,0,0,1-.13391.93835,2.90185,2.90185,0,0,0-.13391.93835c-.36.89656-.71611,1.341-1.07227,1.341-.18045,0-.5366-.35615-1.07226-1.07226a2.33084,2.33084,0,0,0-1.8767-1.07322q-1.87908,0-3.48557,9.65228a20.73137,20.73137,0,0,1-1.60887,5.89793c-.53566.89656-.89561,1.34009-1.07227,1.34009-.35995,0-.53565-.35616-.53565-1.07227q0-2.14262-1.8767-6.70236-1.6084-4.82519-2.68114-4.82566c-.35995-.35616-.53661-.26783-.53661.26783,0,.18045-.26782.26878-.80348.26878a4.29,4.29,0,0,1-2.27939-1.20713q-1.47591-1.20666-1.474-2.01062a12.12966,12.12966,0,0,1,1.34009-2.41235c.53661-1.24892.98014-1.8767,1.34009-1.8767q2.94755,0,4.82567,3.21679a22.99032,22.99032,0,0,1,3.21774,9.11567v.53566H36.245v-.53566c.1757-.89276.40269-2.14548.67052-3.7534a31.64621,31.64621,0,0,1,1.20618-4.82566,20.00949,20.00949,0,0,1,1.8767-4.1561A3.11934,3.11934,0,0,1,42.67954,192.41042Zm-.5366-34.31578a14.011,14.011,0,0,1,6.97114,6.16624,3.53356,3.53356,0,0,1,.26783,3.48557.5506.5506,0,0,1-.13392.40174.54269.54269,0,0,0-.13391.40174,6.37125,6.37125,0,0,1-1.34105,2.27939c-.35995.26783-1.07226.226-2.14452-.13391a4.93686,4.93686,0,0,0-2.68114-.26878c-.35995,0-.58219.227-.67052.67052a2.35246,2.35246,0,0,1-.66957,1.20618,14.47627,14.47627,0,0,1-6.70236,5.6301,5.74885,5.74885,0,0,0-1.341,1.07226q-1.07417.54137,0,1.07227a12.604,12.604,0,0,0,2.949.26878,32.14,32.14,0,0,0,7.239-.80444,9.947,9.947,0,0,1,2.54722-.67052c.80348-.08738,1.64971-.22224,2.54627-.40174a16.85918,16.85918,0,0,1-6.03184,3.61948,19.66286,19.66286,0,0,1-6.83628,1.474,4.06951,4.06951,0,0,1-2.41331-.26783c-1.25176-.1757-1.8767-1.07226-1.8767-2.68114a7.006,7.006,0,0,1,2.68114-4.55783,18.64748,18.64748,0,0,0,1.74278-1.34009,9.90553,9.90553,0,0,1,2.01062-1.34105,7.87563,7.87563,0,0,0,1.60887-1.474q.80349-.936,1.60792-1.74279a1.47963,1.47963,0,0,0-.93835-.53565,2.135,2.135,0,0,1-.93835-.26878,3.17776,3.17776,0,0,1-1.8767-3.48462v-1.07322a8.9357,8.9357,0,0,0,.53661-4.28905,1.81465,1.81465,0,0,1,.67052-2.01062,3.82668,3.82668,0,0,1,2.27844-.67052,1.2211,1.2211,0,0,1,.53661.13439A1.14156,1.14156,0,0,0,42.14294,158.09464Zm-.80444,8.57859c.71231.18045,1.07321-.1757,1.07321-1.07226a4.6527,4.6527,0,0,0-.26877-1.8767c-.53566-.89181-1.16439-1.07227-1.8767-.53566a1.44655,1.44655,0,0,1-.53566.66957,1.45052,1.45052,0,0,0-.53661.67052,1.16607,1.16607,0,0,0,.26783,1.60887A4.27706,4.27706,0,0,0,41.3385,166.67323Zm3.21774.80444a5.11592,5.11592,0,0,1,1.60792.26878,2.47071,2.47071,0,0,0,1.60887,0q-.80347-3.21822-3.48462-3.7534a9.50244,9.50244,0,0,1-.26877,2.68018C44.01964,167.20984,44.19534,167.47767,44.55624,167.47767Zm5.6301-50.13333q-3.48747,1.87836-5.6301,1.60839,3.751-2.94683,7.37289-5.6301,3.61852-2.67686,7.1041-5.6301c-.36-.35568-.67052-.67-.93835-.93835-.26783-.26782-.58219-.57792-.93835-.93835A3.91,3.91,0,0,1,56.486,102.599a22.76141,22.76141,0,0,1,.93835-2.94944,14.98794,14.98794,0,0,1,3.21774-3.75292q2.14263-1.87266,3.48462.804a5.62829,5.62829,0,0,1,.80444,2.949,19.86991,19.86991,0,0,1-.26783,3.21727,5.83065,5.83065,0,0,0-.40269,2.27892c.08832.2683.67052.76217,1.74278,1.47448a4.11275,4.11275,0,0,1,.67052.80444,3.6089,3.6089,0,0,0,.67053.804.89858.89858,0,0,1,.13391,1.20665c-.26783.44828-.49482.8505-.67052,1.20665,0,.18-.18045.44781-.53566.804q-.54135,1.07488-1.60887,0a27.0587,27.0587,0,0,0-2.68113-2.41283,1.55955,1.55955,0,0,0-1.07227.26831A32.49948,32.49948,0,0,1,50.18634,117.34434Zm9.3835-16.622c-.89656.89609-.80444,1.6084.26783,2.14453.1757.18045.30961.2683.40174.2683.08833,0,.22224.09213.40269.26783.71136.36043,1.15964.49435,1.3401.40222.1757-.08785.26782-.57792.26782-1.47448v-1.6084a1.558,1.558,0,0,0-.53565-1.07274Q60.64021,99.11608,59.56984,100.72234Zm160.3201,11.528q1.60982,0,1.60887.80443a3.01892,3.01892,0,0,1-.26783,1.3401l-2.68113,7.239c-.36.89608-.89656,1.34009-1.60887,1.34009a25.84554,25.84554,0,0,0-9.91916,1.8767q-5.90077,2.149-19.57143,9.91963-18.49726,10.456-27.61294,10.45576-.8049,4.29167-1.60887,4.28953-1.07416,0-1.341-4.28953a19.36046,19.36046,0,0,1-3.88731.80444,37.61954,37.61954,0,0,1-4.423.26782,18.80216,18.80216,0,0,1-5.89792-.804q.5328,5.36585.66957,9.51694a48.75376,48.75376,0,0,0,.67052,7.10506q2.14263,13.40851,5.89793,17.15812,3.751,3.75672,12.46637,6.70236,8.7087,2.95324,21.31422,2.949a95.42542,95.42542,0,0,0,13.002-.93835,112.36268,112.36268,0,0,0,14.61091-3.08288,74.04736,74.04736,0,0,1-1.3401-8.17732q-.53992-4.687-.5366-6.56845,0-8.307,2.14547-12.60029a15.3546,15.3546,0,0,1,13.67256-7.5068q4.02169,0,18.49822,4.02123,8.04341,2.41331,12.86906,3.61949,4.8252,1.20664,6.70237,1.74278,5.35941.80419,8.9808,1.34057a40.3185,40.3185,0,0,0,4.96053.53613q1.60839,0,1.60792.80444a1.542,1.542,0,0,1-.53566,1.07226l-2.68113,7.5068c0,.35995-.44828.80349-1.341,1.34009a19.833,19.833,0,0,0-10.187,1.60887,75.3,75.3,0,0,0-7.37288,3.61949q-4.69413,2.55006-12.19855,6.29967a124.33531,124.33531,0,0,1-16.21977,6.83628q-7.64023,2.55148-11.12534,3.61948-.8049,4.56163-1.8767,4.55783-.27067,0-.80443-2.4133a11.82775,11.82775,0,0,0-.26783-2.14453,163.72782,163.72782,0,0,1-19.83926,3.61948,143.67939,143.67939,0,0,1-15.5502.93835,80.43827,80.43827,0,0,1-13.002-1.07226,44.06716,44.06716,0,0,1-11.93072-3.61948,25.54367,25.54367,0,0,1-9.11471-7.239,26.40527,26.40527,0,0,1-5.09445-11.92977Q138.121,186.24609,135.977,188.9258a34.09868,34.09868,0,0,1-5.49618,6.43358q-3.88922,3.75815-8.31123,7.37289-4.42346,3.61995-8.713,6.70236a72.35041,72.35041,0,0,1-7.239,4.69175q-13.40853,7.50916-22.25162,7.5068a19.869,19.869,0,0,1-17.82864-9.51742,28.72223,28.72223,0,0,1-3.61854-9.51741,55.74036,55.74036,0,0,1-1.07321-10.99142q0-13.13357,4.29-21.44813,1.60841-3.2168,2.14453-3.21679a8.27964,8.27964,0,0,1-.80443,3.7534,50.23215,50.23215,0,0,0-2.27845,8.713,49.60211,49.60211,0,0,0-.67052,7.90854q0,8.58333,3.21775,13.67255,4.82519,9.38825,17.15812,9.3835a34.72806,34.72806,0,0,0,13.27081-2.949,92.48836,92.48836,0,0,0,14.0743-7.37289,108.89811,108.89811,0,0,0,13.1369-9.78524,86.01548,86.01548,0,0,0,9.91915-9.91915q1.33914-1.33916,1.8767-5.36227.265-1.872.40269-5.764.13107-3.88352.13392-10.05354,0-4.021-.13392-8.04293-.13818-4.021-.13391-7.77463a28.73035,28.73035,0,0,1-9.24959-6.43406,23.33274,23.33274,0,0,1-3.88731-5.36227q-.27067-.53352-1.34009-2.81505a40.26562,40.26562,0,0,1-2.14548-6.03184q-1.60839,8.84689-3.48462,15.54925a36.23707,36.23707,0,0,1-5.36227,11.52851,29.94114,29.94114,0,0,1-9.11567,8.17684,52.60986,52.60986,0,0,1-14.477,5.49571q-8.042,2.41331-11.528,2.41331H74.85126c0-.17666.44354-.71231,1.3401-1.60887q3.751-2.14263,9.65132-5.764,5.89366-3.61924,13.94134-8.98128,17.69378-11.79443,17.69378-35.65681,0-2.14263-.67052-8.713-.671-6.56607-2.01062-17.56034-1.34484-9.38113-2.41235-16.88983-1.07416-7.50276-1.8767-13.40472-.80491-4.55593-1.60888-9.91963-.80348-5.36013-1.87669-11.528a18.59591,18.59591,0,0,1,.26877-2.54674c.17571-1.16059.40175-2.41331.66958-3.7534a23.852,23.852,0,0,1,.93834-3.48557c.35616-.98014.624-1.47448.80444-1.47448.1757,0,.44448.44828.80444,1.34056q3.751,16.35608,6.43453,32.70786Q119.619,74.98681,121.7678,91.875q1.33773,9.11757,1.74184,16.48808.40317,7.37667,3.35166,11.66194a41.22647,41.22647,0,0,0,9.65132,9.65132q-.80349-11.25948-2.01061-21.98379-1.20666-10.71956-3.08288-21.71548.53423-4.02171,1.07226-6.43453.53424-2.4126.80444-3.4851c.1757-.71231.44353-1.07226.80443-1.07226.35521,0,.624.36.80349,1.07226a155.38116,155.38116,0,0,1,5.49619,28.15q1.4702,14.477,2.01061,28.95445a22.288,22.288,0,0,0,2.949,1.47448,11.32365,11.32365,0,0,0,4.29.67005h2.14453a6.55072,6.55072,0,0,0,2.4133-.53613,61.81721,61.81721,0,0,1-2.14547-13.673,28.70231,28.70231,0,0,1,3.35165-13.94086q3.34929-6.16362,12.73421-6.16623,4.55594,0,18.49916,4.28953,8.042,2.4133,12.86812,3.61949,4.82519,1.20664,6.43454,1.47448,5.6301,1.07416,9.11472,1.47448Q218.54605,112.2506,219.88994,112.25037ZM92.27722,198.3093a3.13677,3.13677,0,0,0,.53565-.80444,8.24992,8.24992,0,0,1,.53661-.93835,6.19847,6.19847,0,0,1,.80444-.93835q10.18461-11.52375,10.187-15.0136,0-3.48035-3.21679-3.48557a5.73688,5.73688,0,0,0-3.48557.80444c-.36.3609-.62779.53661-.80349.53661a.23777.23777,0,0,1-.26878.26782.79068.79068,0,0,0-.53565-.26782,5.635,5.635,0,0,0,.26782-2.14453q1.60841-7.50348,7.5068-7.5068,5.08875,0,5.09349,6.16576,0,6.17-4.55783,12.19854a49.32461,49.32461,0,0,1-9.11472,9.51742,17.31636,17.31636,0,0,1-2.949,1.87669ZM124.18016,56.21863c-.35995,0-.53566-.35615-.53566-1.07273a5.4316,5.4316,0,0,1,1.07227-2.949c.71231-.89228,1.34009-1.34057,1.8767-1.34057q.80348,0,.80443,2.949a9.47159,9.47159,0,0,1-.26878,2.68113,4.60285,4.60285,0,0,0-.26782,1.8767,14.44221,14.44221,0,0,0,.5366,3.21727c.71136,1.25224,1.34009,1.8767,1.8767,1.8767a5.1099,5.1099,0,0,0,2.949-1.60887,4.38957,4.38957,0,0,0,1.34009-3.21679,7.7718,7.7718,0,0,1-.26783-1.8767,4.34414,4.34414,0,0,0-.53661-1.8767,14.48434,14.48434,0,0,1-.53565-3.21727,4.08143,4.08143,0,0,1,.53565-1.6084c.17571-.89228.44448-1.34056.80444-1.34056.35615,0,.80443,1.16439,1.34009,3.48509q.265,1.87908.53661,3.08336a9.79488,9.79488,0,0,1,.26783,2.01061q0,4.8259,3.48557,4.82566a1.72167,1.72167,0,0,0,1.8767-1.60839q-3.2168-5.6301-3.2168-8.57907a3.98425,3.98425,0,0,1,1.07227-2.94943l.26783-.53614.26783-.26783c.1757,0,.35615.26783.5366.804a7.30313,7.30313,0,0,0,.13392,1.47448,6.31965,6.31965,0,0,1,.13391,1.20665,11.9175,11.9175,0,0,1,1.475,3.61949q.936,3.085,1.20618,3.88731-.27069,1.34412-.4027,2.41283a6.68518,6.68518,0,0,1-.66957,2.14453q-1.07416,3.2175-3.21774,3.21727-3.21679,0-4.55689-4.55784-1.07558,5.6301-5.36227,5.6301a2.57745,2.57745,0,0,1-2.4133-1.6084q-1.34342-1.33842-1.34009-4.82566V57.0226Q124.9846,56.48836,124.18016,56.21863Zm27.34606,141.55406q1.06847,0,2.14453,1.60887a13.80857,13.80857,0,0,1,1.07226,2.41236,4.10554,4.10554,0,0,1-.53566,1.60887q-.27067,1.60839-.80443,1.60887l-1.07227-1.07321a2.3321,2.3321,0,0,0-1.8767-1.07227q-1.87906,0-3.48557,9.65133a20.7298,20.7298,0,0,1-1.60887,5.89887c-.53565.89657-.89656,1.3401-1.07226,1.3401-.36,0-.53566-.44353-.53566-1.3401a11.44875,11.44875,0,0,0-.53661-2.68113q-.53993-1.87338-1.34009-3.88731-.80491-2.01157-1.475-3.48557c-.44829-.98014-.85-1.474-1.20618-1.474-.18046,0-.44828.1795-.80444.53566h-.26783c0,.18045-.18045.26782-.5366.26782a3.65,3.65,0,0,1-2.14453-1.34009c-.89656-.89181-1.3401-1.51674-1.3401-1.8767a9.38556,9.38556,0,0,1,1.07227-2.68113c.89181-1.248,1.42842-1.8767,1.60792-1.8767q2.94754,0,4.82566,3.48557a16.81216,16.81216,0,0,1,2.94992,9.11472l.26783.5366h.26782v-.5366c.17571-.71136.40175-1.8767.67053-3.48462a36.2679,36.2679,0,0,1,1.20617-4.95958,22.71854,22.71854,0,0,1,1.8767-4.42392A3.11278,3.11278,0,0,1,151.52622,197.77269Zm52.01-127.8815q-.80349,2.68328-1.60792,2.949-6.97494,2.68328-11.66289,4.55784-4.69271,1.87836-8.31029,3.21726-3.61995,1.34413-6.70236,2.54675-3.08573,1.20666-7.10505,2.68114-4.02171,1.47661-9.51742,3.75292-5.49761,2.28153-13.80646,5.76449.53423-1.33844.93835-2.68114c.26782-.89228.57744-1.78457.93834-2.68113q11.2602-4.55523,17.02422-6.568,5.76116-2.01084,10.45576-3.61948,4.687-1.60841,10.72359-3.88731,6.03185-2.27442,17.55987-6.83676a4.48922,4.48922,0,0,1,1.341-.26782A2.39363,2.39363,0,0,1,203.53625,69.89119ZM154.20735,50.0524a3.65363,3.65363,0,0,1-1.341-2.145,12.17683,12.17683,0,0,1,1.341-2.41283c.53566-1.24844.98014-1.8767,1.3401-1.8767q2.94753,0,4.82566,3.4851a19.09772,19.09772,0,0,1,3.21679,8.84736v.80444h.26878v-.80444c.1757-.71231.44353-1.8767.80444-3.48509a47.82817,47.82817,0,0,1,1.34009-4.82567,23.78935,23.78935,0,0,1,1.8767-4.28953c.71231-1.24844,1.51674-1.8767,2.41235-1.8767a2.89024,2.89024,0,0,1,2.14548,1.47448A4.54409,4.54409,0,0,1,173.51,45.22674a3.01324,3.01324,0,0,1-.13392.93788,2.90213,2.90213,0,0,0-.13391.93835c-.18045,1.07273-.53661,1.60887-1.07322,1.60887-.1795,0-.53565-.444-1.07226-1.34057A2.955,2.955,0,0,0,169.22,46.299q-1.87765,0-3.48462,9.91962a43.31365,43.31365,0,0,1-1.60887,5.89793c-.53661.71611-.89656,1.07227-1.07227,1.07227-.35995,0-.5366-.35616-.5366-1.07227a11.4372,11.4372,0,0,0-.53566-2.68113c-.3609-1.248-.76265-2.54675-1.20618-3.88732a21.65285,21.65285,0,0,0-1.475-3.48509c-.53661-.98014-.98489-1.47448-1.3401-1.47448-.3609,0-.5366.09212-.5366.26782,0,.36043-.26783.53614-.80444.53614A6.50981,6.50981,0,0,1,154.20735,50.0524Zm44.23541,69.70477q-24.93228-8.307-33.51182-8.31124a13.16406,13.16406,0,0,0-6.56844,2.145q-3.62,2.149-3.61949,5.6301.80491,2.14831,2.01061,5.764,1.20666,3.61925,2.815,8.44467a12.60824,12.60824,0,0,0,2.949.2683q7.23849,0,20.91152-6.70236Zm-34.04842,39.14191v.26783a4.69363,4.69363,0,0,1-.53566,1.34057q-3.21822,7.77842-2.949,9.65132a2.12459,2.12459,0,0,0,2.41235,1.3401,4.20139,4.20139,0,0,1,1.07227-.80349,12.4963,12.4963,0,0,0,1.341-.80444,1.539,1.539,0,0,0,.26783,1.07227q.26355,4.291-2.949,5.09349-2.4133.80492-3.48557-2.41236a10.52088,10.52088,0,0,1,.26878-6.1667,20.624,20.624,0,0,1,3.48462-7.2385l1.07227-1.60839Zm12.86907-8.04293a5.65848,5.65848,0,0,1,1.60792.93835q1.33914.94239,2.94991,2.14453,1.60839,1.20664,2.81505,2.145,1.20524.94239,1.20618,1.20618,0,2.149-3.48557,8.04293c-.36.53661-.71611.71611-1.07227.53661q-2.14833-1.60983-4.15514-3.21775a44.68917,44.68917,0,0,0-4.15609-2.949v-.804l3.48557-7.5068C176.81512,151.03613,177.083,150.85615,177.26341,150.85615Zm51.7422-17.42643a8.72716,8.72716,0,0,1-1.60887,3.21727q-6.97494,2.68328-10.187,3.88731-3.21821,1.20666-4.55783,1.74279c-.89656.36-1.475.58219-1.74279.67q-.40173.1382-2.01061.80444-1.60839.67242-5.6301,2.41283-4.02169,1.74658-12.33246,5.22788a10.44045,10.44045,0,0,1,.80443-2.949,11.087,11.087,0,0,1,1.07227-2.41283q7.50206-2.94754,10.8575-4.28953,3.34929-1.33844,4.69175-1.74279a8.15252,8.15252,0,0,1,1.74279-.40222,6.39094,6.39094,0,0,0,1.74278-.53613q1.33773-.53423,4.95958-1.8767,3.62-1.33844,11.39411-4.28953c.53661-.35616.89276-.444,1.07227-.26783v.26783A.7763.7763,0,0,1,229.00561,133.42972Zm-16.8903,34.85238a62.1,62.1,0,0,1,1.8767,6.56845q1.06847,4.42345,2.41331,9.24958,9.11044-2.94753,15.68317-5.09444,6.56607-2.14263,8.44514-2.949l15.28143-7.238q-12.86859-4.28526-21.17935-6.30062a81.79,81.79,0,0,0-12.33246-2.27892,12.82611,12.82611,0,0,0-6.70237,2.145A6.61972,6.61972,0,0,0,212.11531,168.2821Zm34.31625,35.65635q0,1.34484-3.7534,8.0434c-.1795.53566-.44828.62778-.80443.26783q-2.14833-1.60841-4.15515-3.08288-2.01014-1.47021-4.15514-3.08288c-.3609,0-.3609-.17665,0-.5366l3.48462-7.5068.53661-.53566a4.362,4.362,0,0,1,1.8767.93835q1.33772.94167,2.949,2.01061a26.18286,26.18286,0,0,1,2.81505,2.14453C246.02982,203.31446,246.43156,203.76274,246.43156,203.93845Z" transform="translate(-2.73319 -24.58305)" fill="#231f20"/>
</svg>
