<svg xmlns="http://www.w3.org/2000/svg" width="238.39397" height="218.13802" viewBox="0 0 238.39397 218.13802">
  <path d="M79.256,108.15032a39.76493,39.76493,0,0,0-4.98547-11.9978,105.39286,105.39286,0,0,0-7.79062-10.75089Q56.5029,73.87632,46.2234,63.11992a173.86566,173.86566,0,0,1-19.009-23.8394q-.93394-1.55492-2.02466-3.11592a24.19692,24.19692,0,0,0-2.64949-3.11647,2.42217,2.42217,0,0,1-.93505-2.18141V26.19256c0-2.28353.51665-3.42778,1.55878-3.42778.414,0,1.34793.57461,2.80405,1.71389Q28.14557,26.195,30.64216,28.374q2.49052,2.18336,4.83091,4.20663,2.33654,2.031,2.95971,2.64894c.62374.62319.67231.9886.15676,1.09071a6.34544,6.34544,0,0,1-2.02576,0,20.093,20.093,0,0,1-2.49273-.46752,3.72773,3.72773,0,0,1-1.55879-.62319A234.72608,234.72608,0,0,0,48.56159,53.77161q8.25318,8.57444,16.672,18.22964,4.36008,4.98851,8.2576,10.28391a52.68612,52.68612,0,0,1,6.23294,10.9071,37.70883,37.70883,0,0,1,2.80405,11.68593,40.32235,40.32235,0,0,1-1.402,13.24362,40.62647,40.62647,0,0,1-.93506-4.98547A42.92125,42.92125,0,0,0,79.256,108.15032ZM44.66572,169.85213q-4.05373-1.55658-4.82981-7.16744a34.91065,34.91065,0,0,1,.62263-12.15346,73.73317,73.73317,0,0,1,3.89587-12.621q2.49053-6.07645,4.67415-8.56946a26.01049,26.01049,0,0,1-1.402,7.32309q-1.40258,4.52072-2.64949,9.19265a29.38729,29.38729,0,0,0-1.09071,8.72568,7.827,7.827,0,0,0,2.96081,6.23239,3.20925,3.20925,0,0,0,2.80515,0,7.86508,7.86508,0,0,0,1.869-1.86955q.93561-1.242,1.71445-2.49274a3.30605,3.30605,0,0,1,2.02576-1.55823q-.31462,1.86954-.935,4.20662c-.41951,1.55824-.88648,3.0679-1.40313,4.5185a15.42614,15.42614,0,0,1-2.02466,3.89586,6.21206,6.21206,0,0,1-3.42778,2.33708,10.25073,10.25073,0,0,1-.62374,2.49274,55.969,55.969,0,0,0-3.7391,19.009q0,11.84656,5.92052,19.16469,5.91666,7.32587,18.69772,7.32365a45.71231,45.71231,0,0,0,15.89256-3.27213,106.18383,106.18383,0,0,0,17.29569-8.41325,150.9478,150.9478,0,0,0,16.04823-11.06275,81.98567,81.98567,0,0,0,12.15346-11.53083A10.92093,10.92093,0,0,0,131.609,177.019a50.68668,50.68668,0,0,0,.31242-6.54426V158.945q0-18.69717-.935-35.52534-1.56321.62842-2.80515,1.24637-1.24859.62842-2.80406,1.24692-2.80515.93477-5.92162,1.71389a26.84661,26.84661,0,0,1-6.54315.77884q-10.285,0-14.02357-6.54425a47.41762,47.41762,0,0,1-5.29789-15.58125q-1.86954,6.54426-3.58344,12.77665a28.90729,28.90729,0,0,1-6.3886,11.53027A35.34968,35.34968,0,0,1,66.79123,140.8705a72.66294,72.66294,0,0,1-8.2576,2.02576q-4.20774.7816-8.57,1.40258a5.18086,5.18086,0,0,0-1.24637.15566.74861.74861,0,0,1-.935-.46753.614.614,0,0,1,.31132-.93505c.414-.20423.828-.41343,1.24636-.62318a135.854,135.854,0,0,1,13.86791-7.16744A54.6272,54.6272,0,0,0,76.452,126.84749q9.96873-8.1,12.62044-18.69717A61.20174,61.20174,0,0,0,90.1631,85.40163q-.6276-8.1-1.402-15.73745-.78161-7.63221-1.71444-15.42559-.6276-7.16441-1.71334-14.33433Q84.23706,32.739,83.61884,25.56938a14.0519,14.0519,0,0,1,.62374-5.92107q.93394-2.80434,1.869-5.60921a33.48915,33.48915,0,0,1,2.02576,6.38805q1.088,4.52153,1.8701,9.50507.77332,4.98767,1.402,9.66017.621,4.6747.93506,6.85557.93559,8.72844,2.02576,17.607,1.088,8.88162,2.02576,17.607.621,5.3023,1.24637,10.59523a49.5156,49.5156,0,0,0,2.18141,9.972,39.64707,39.64707,0,0,0,2.49274,6.69991,10.03856,10.03856,0,0,0,4.67415,4.83037,15.36047,15.36047,0,0,0,7.47931,1.86955,21.633,21.633,0,0,0,5.29789-.62318q2.49052-.621,4.67415-1.24637,1.55493-.621,2.80405-1.24692,1.242-.62014,2.80516-1.24637-.6276-9.34858-2.02576-18.69772-1.40258-9.34859-2.96081-18.38585,1.55657-9.96956,2.18141-11.52972c.20534-.828.51666-1.24692.93506-1.24692.414,0,.7253.41895.935,1.24692a147.17689,147.17689,0,0,1,5.14223,22.43682q1.70892,11.53276,2.64839,23.06055a99.0584,99.0584,0,0,0,18.69772-9.972,64.48135,64.48135,0,0,1-13.24417-10.75144,22.75077,22.75077,0,0,1-6.3886-15.42559q-.313-9.03477,5.29789-14.49053a24.77828,24.77828,0,0,1,14.02356-6.69992,23.82,23.82,0,0,1,4.36284-.31131,27.91794,27.91794,0,0,1,10.59468,2.0252,70.49382,70.49382,0,0,1,9.66072,4.83037c.828.41895,1.13929.83238.935,1.24637h-1.24636a55.734,55.734,0,0,0-10.28447-.9345,57.33865,57.33865,0,0,0-12.30912,1.402,70.41827,70.41827,0,0,0-11.68538,3.584,23.03878,23.03878,0,0,0-3.74021,2.02521,2.94682,2.94682,0,0,0-1.24636,3.89531,30.426,30.426,0,0,0,7.32365,11.21841A51.271,51.271,0,0,0,158.721,87.89437a7.0608,7.0608,0,0,0,1.8701,1.24637,10.13588,10.13588,0,0,0,3.11537.62318,3.06063,3.06063,0,0,0,1.40313.31187,3.15819,3.15819,0,0,1,1.402.31131,10.90461,10.90461,0,0,0,3.11647-.31131h1.24637a4.74558,4.74558,0,0,0,1.869-.62319,12.76773,12.76773,0,0,0,2.18142-.62318,7.24672,7.24672,0,0,1,2.02576-.93505,7.01716,7.01716,0,0,0,2.02576-.935,29.15624,29.15624,0,0,0,4.20718-1.55769q2.02356-.93559,4.20718-1.8701a2.73538,2.73538,0,0,1,1.402-.77884,2.70442,2.70442,0,0,0,1.402-.77939,5.77013,5.77013,0,0,1,1.55879-.46753,2.76747,2.76747,0,0,0,1.55768-.77884c.414-.20423.881-.414,1.402-.62318.51665-.20479.98362-.414,1.40313-.62319a2.736,2.736,0,0,1,1.402-.77939,2.70337,2.70337,0,0,0,1.402-.77884,2.10345,2.10345,0,0,0,1.55768-.62319c.414,0,.67231-.10211.77939-.31186.10267-.20424.25833-.10212.46808.31186a.7819.7819,0,0,1,0,1.24637q-.62925,1.86956-1.40313,3.73965-.78161,1.86956-1.402,3.42779a4.25443,4.25443,0,0,1-2.33708,2.64895q-1.7172.78159-2.96081,1.402-3.11812,1.56321-7.16689,3.27213-4.05373,1.71637-6.54426,2.96081a22.03543,22.03543,0,0,0-2.96081,1.402q-2.03018,1.09539-4.20718,2.18142-2.18253,1.09539-5.60921,2.96026-1.86954,1.2494-3.42778,2.18141a19.25071,19.25071,0,0,1-3.42779,2.18142,19.40535,19.40535,0,0,0-3.42778,2.18142q-3.73911,2.498-7.47931,4.67471-3.73911,2.18336-7.47821,4.36228a12.36923,12.36923,0,0,1-2.02576,1.09071,12.61,12.61,0,0,0-2.02576,1.09071q0,4.36836.15566,13.556.154,9.1954,1.09071,19.009a149.66268,149.66268,0,0,0,2.80515,18.23019q1.86956,8.4138,5.60921,11.21841a15.74791,15.74791,0,0,0,5.92052,2.96081,76.0983,76.0983,0,0,0,8.10194,1.869,50.23658,50.23658,0,0,0,8.88133.77939q4.51408,0,7.94739-.31131-.93561-4.0471-1.8701-9.037a44.53993,44.53993,0,0,1-.93506-7.47931,31.18117,31.18117,0,0,1,4.20718-16.36064q4.20607-7.01124,15.11317-7.01123,5.61031,0,22.43793,4.986,9.96873,2.498,15.7369,4.051a78.1484,78.1484,0,0,0,7.94629,1.86955q12.77388,2.18418,17.13893,2.18142,1.86954,0,1.8701.935a5.47361,5.47361,0,0,1-.62374,1.55823L256.26,171.72223c-.41951,1.041-1.04214,1.55769-1.8701,1.55769a39.21369,39.21369,0,0,0-12.46478,1.8701q-3.11979,1.24857-9.037,4.05042-5.92329,2.80515-14.33488,7.47931-22.7509,12.15291-33.65634,12.15346-.93395,4.98768-2.18142,4.98547c-.4184,0-.67672-.51555-.77829-1.55769a30.65626,30.65626,0,0,0-.77939-4.05152,84.40017,84.40017,0,0,1-11.84215.935,62.3831,62.3831,0,0,1-11.68538-1.09071,36.25944,36.25944,0,0,1-10.44012-3.58344,23.86867,23.86867,0,0,1-7.94628-6.85557,23.35069,23.35069,0,0,1-4.20718-10.9071q-1.86956,12.46753-4.36174,16.5163a81.99766,81.99766,0,0,1-11.68648,11.84215,153.99542,153.99542,0,0,1-16.82762,12.46478,121.65508,121.65508,0,0,1-18.3864,9.81638Q74.57909,231.247,67.415,231.24207q-7.79448,0-12.93285-2.96081a25.15912,25.15912,0,0,1-8.41436-7.79063,31.99115,31.99115,0,0,1-4.67416-11.21841,60.102,60.102,0,0,1-1.402-12.93175,70.63912,70.63912,0,0,1,1.24637-13.55659,47.34813,47.34813,0,0,1,4.67415-12.93175ZM66.16749,43.02018a.882.882,0,0,0,.31242.62318c.20423,0,.31132-.20423.31132-.62318q.621-2.49052,1.24636-5.29734.621-2.80515,1.24637-5.29789,1.86956-4.98105,4.67415-4.986,1.242,0,2.49384,1.86955a8.8758,8.8758,0,0,1,1.24637,2.18142,2.49588,2.49588,0,0,0-.31132,1.09071,1.06267,1.06267,0,0,1-.31242.77939q-.313,1.86955-1.24636,1.86955a.27786.27786,0,0,0-.31132-.31131q0-.621-.93505-.935a1.6752,1.6752,0,0,0-1.8701-1.24637q-2.18253,0-4.05042,10.28336a28.97616,28.97616,0,0,1-1.8701,6.54425c-.20976.83239-.62374,1.24637-1.24637,1.24637v-.31131a1.25195,1.25195,0,0,1-.31132-.93506,12.17949,12.17949,0,0,0-.62373-2.64894q-.6276-2.02272-1.402-4.20663a21.36,21.36,0,0,0-1.71444-3.73965C60.8707,37.932,60.34964,37.411,59.93565,37.411c-.4184-.414-.62373-.31187-.62373.31187H59.0006c0,.2092-.20975.31132-.62373.31132a3.35988,3.35988,0,0,1-2.49274-1.55824c-1.04213-1.03717-1.55768-1.76247-1.55768-2.18142a11.79468,11.79468,0,0,1,1.24637-2.49273,4.50371,4.50371,0,0,0,.77939-.93505,2.423,2.423,0,0,1,.467-.62319l.31132-.62318q3.42614,0,5.6092,3.73965Q65.23022,36.47813,66.16749,43.02018Zm8.103,153.00787a23.12447,23.12447,0,0,0,8.88134-2.02465,70.906,70.906,0,0,0,9.65962-4.98658q4.82871-2.95749,9.19375-6.23294,4.36008-3.27047,7.16689-5.76486,7.47986-7.16523,8.41436-9.65962-.93559-4.36174-11.21841-4.36284-12.78216,0-12.7772-8.72568a16.66438,16.66438,0,0,1,4.36284-11.84214q3.73911-4.67388,8.41436-4.67416,4.67305,0,9.34831,6.23239a34.05439,34.05439,0,0,1,4.05152,8.72568,32.39683,32.39683,0,0,1,1.55768,9.66017q0,11.219-6.85557,18.54206A123.97033,123.97033,0,0,1,99.5114,194.47037q-15.271,12.46753-26.17592,12.46478-9.0414,0-13.71114-6.85558-4.36836-5.91664-4.36284-14.64619a65.00078,65.00078,0,0,1,4.67415-23.37187l1.55769-2.49329a.92127.92127,0,0,1,.31131.62318,3.47128,3.47128,0,0,1-.15566,1.09071q-.16062.4678-.467,1.40258-3.11812,11.21814-3.11647,17.76212a15.67028,15.67028,0,0,0,2.80515,9.66072Q64.91616,196.03082,74.27053,196.02805Zm37.083-42.69222a8.94807,8.94807,0,0,0-3.11647-3.73965,6.30374,6.30374,0,0,0-4.36284-2.18142q-4.673,0-4.67415,2.49329,0,3.11812,6.23294,3.11591a37.7573,37.7573,0,0,1,3.89476.15621A19.72749,19.72749,0,0,0,111.35355,153.33583ZM103.87424,77.611a6.80591,6.80591,0,0,1-1.24637-4.36284V68.88534a.55161.55161,0,0,0-.62263-.62319,1.24749,1.24749,0,0,1-.62373-1.24692,4.56205,4.56205,0,0,1,.935-2.8046,4.514,4.514,0,0,1,.93505-.77884q.30634-.15318.93505-.46753.621.62842.62263,3.11647a5.39757,5.39757,0,0,1-.31131,2.18142,2.18422,2.18422,0,0,1-.15566.9345,1.08686,1.08686,0,0,0,.15566.935,9.4257,9.4257,0,0,0,.31131,2.80461c.62374,1.04213,1.24637,1.55823,1.87011,1.55823a4.27652,4.27652,0,0,0,4.05152-4.051,10.97633,10.97633,0,0,0-.62374-3.42834,10.15839,10.15839,0,0,1-.62373-3.11592,2.80919,2.80919,0,0,1,.46807-1.40257,6.10683,6.10683,0,0,1,.7794-1.09071c.62263,0,1.03661,1.04213,1.24637,3.11647a18.12714,18.12714,0,0,1,.93505,4.67415q0,4.36753,3.42778,4.36284c.62264,0,1.13929-.5161,1.55769-1.55824q-2.80517-5.29485-2.80405-7.79062a4.56789,4.56789,0,0,1,.93394-2.8046l.62374-.9345.31132.31131v.93506a3.35259,3.35259,0,0,0,.15565,1.0907,3.4935,3.4935,0,0,1,.15566,1.09071,17.04079,17.04079,0,0,1,1.40313,3.27213,17.35246,17.35246,0,0,1,1.09071,3.58345,12.70843,12.70843,0,0,1-.93505,4.36283q-1.24858,2.80434-3.11647,2.80461-3.11813,0-4.36284-4.051-1.24857,4.98851-4.98547,4.986Q104.1839,78.85738,103.87424,77.611Zm71.36309-59.83226a13.38284,13.38284,0,0,1-2.18142,4.051q-9.664,3.73911-15.42559,6.07674-5.77094,2.33735-9.66073,3.89531-3.89973,1.56319-7.01123,2.8046-3.11977,1.24857-7.47931,3.11647-4.3667,1.86955-11.21841,4.82981-6.85888,2.96578-18.074,7.94684a23.73888,23.73888,0,0,1,.935-3.73966c.41288-1.24637.82687-2.3862,1.24637-3.42778q10.28336-4.04628,16.35954-6.54426,6.07728-2.49053,9.972-3.89531,3.8931-1.40259,6.85668-2.49329,2.95749-1.088,7.01123-2.64839,4.04544-1.55576,10.439-4.05152,6.38364-2.49054,16.98438-6.85558c1.03662-.414,1.55768-.5161,1.55768-.31186v.62373A.90336.90336,0,0,1,175.23733,17.77875ZM146.25625,223.14013l.31132.62263a.90021.90021,0,0,0,.31131-.62263q.621-3.42613,1.402-6.3886.775-2.95749,1.71444-6.07618,2.49054-5.6103,5.29789-5.6092a4.22285,4.22285,0,0,1,2.804,1.71334,4.85384,4.85384,0,0,1,1.55879,2.96081,2.4934,2.4934,0,0,0-.31242,1.09071,2.555,2.555,0,0,1-.31131,1.09071c-.20976,1.24637-.62264,1.869-1.24637,1.869-.4184,0-.935-.51555-1.55769-1.55768a3.4398,3.4398,0,0,0-2.18141-1.24637q-2.49882,0-4.98658,12.15346a47.80419,47.80419,0,0,1-1.8701,7.47931c-.62263,1.041-1.1437,1.55768-1.55768,1.55768-.4184,0-.62374-.51665-.62374-1.55768a15.18187,15.18187,0,0,0-.62263-3.27213c-.4184-1.55879-.935-3.165-1.55768-4.83091a46.19961,46.19961,0,0,0-1.87011-4.36284q-.9356-1.86955-1.8701-1.869a1.27641,1.27641,0,0,0-.935.31131c0,.4184-.31132.62374-.935.62374a6.83809,6.83809,0,0,1-3.11537-1.55879,10.68585,10.68585,0,0,1-1.55879-2.49273,5.40466,5.40466,0,0,1,1.55879-3.11647q1.55493-2.49053,1.869-2.49274,3.74076,0,6.23294,4.36284Q145.31624,215.97546,146.25625,223.14013ZM235.3809,114.07084a13.75134,13.75134,0,0,1-2.49273,4.051q-9.977,3.119-16.98438,5.29789-7.01122,2.18418-12.46478,3.89531-5.45631,1.71639-10.28336,3.27213-4.83533,1.56321-10.90709,3.58345-6.07728,2.031-14.02357,4.83036-7.94517,2.80433-19.78732,6.54426a35.80725,35.80725,0,0,1,1.402-3.584,32.45384,32.45384,0,0,1,1.71334-3.27158q15.89367-4.98187,24.61934-7.635,8.72016-2.64453,16.04822-4.986,7.31759-2.33736,16.36064-5.14168,9.03478-2.80515,25.55329-7.79063c1.03662-.414,1.55769-.414,1.55769,0v.31132A.90235.90235,0,0,1,235.3809,114.07084Zm-75.72482,61.70181q-2.80515-.93394-3.27213-4.67415a26.93444,26.93444,0,0,1,.31132-8.10194,39.05612,39.05612,0,0,1,2.49273-8.41436,24.3186,24.3186,0,0,1,3.27213-5.92052,18.362,18.362,0,0,1-.935,4.98547q-.93395,3.11895-1.71334,6.23294a23.826,23.826,0,0,0-.77939,5.76486,5.189,5.189,0,0,0,1.8701,4.20718q2.49053.6276,3.27213-1.402a4.28892,4.28892,0,0,1,2.33707-2.6495q-.6276,2.80515-1.71444,6.69991Q163.70263,176.40192,159.65608,175.77265Zm20.878-56.40392a24.42991,24.42991,0,0,0,7.79063-1.24692h1.24747l-.93505.93506a14.9067,14.9067,0,0,1-9.34941,3.11647,5.57691,5.57691,0,0,1-2.804-.93506,2.9848,2.9848,0,0,1-.93506-2.18141,13.26218,13.26218,0,0,1,3.11647-8.10194q-2.80515-.621-2.80515-2.80461c0-1.24692.7253-2.69752,2.18142-4.36283q2.49052-2.49054,3.74021-2.49329l.62263.62318a1.82774,1.82774,0,0,1,.31131,1.24692l-.62263,1.24637c-.4184.4184-.62373.73027-.62373.9345h-.31132c0-.62319-.4184-.9345-1.24637-.9345a1.79335,1.79335,0,0,0-1.24637.62318,5.39234,5.39234,0,0,0-.62373,1.55824,3.33864,3.33864,0,0,0,3.11647,1.55823l2.18142-1.55823a8.8304,8.8304,0,0,0,1.8701-1.55824c0-.20478.04858-.25832.15566-.15566a.65452.65452,0,0,1,.15566.467,6.339,6.339,0,0,1-1.24637,3.42834,22.05534,22.05534,0,0,0-7.168,7.47875,1.23309,1.23309,0,0,1-.15566.7794.6308.6308,0,0,0-.15566.467Q176.795,119.369,180.53411,119.36873Zm51.419,50.17208q-30.23074-9.6574-40.82322-9.66072a16.96431,16.96431,0,0,0-7.94628,2.49273q-4.5207,2.49881-4.5185,6.54426a47.52992,47.52992,0,0,1,2.6484,7.16689q1.40257,4.6747,3.27213,10.28446a3.78929,3.78929,0,0,0,1.8701.15566,9.89094,9.89094,0,0,1,1.55768-.15566,72.376,72.376,0,0,0,10.44012-2.6495q6.38364-2.02189,15.11317-5.76486Zm-23.9956,58.58479a5.45744,5.45744,0,0,1-4.05042-1.55768,3.33794,3.33794,0,0,1-1.55879-3.11647,12.08843,12.08843,0,0,1,2.80516-7.16689q1.55491-1.55658,2.95971-3.11647,1.40257-1.55658,2.96081-3.11647a.61932.61932,0,0,0-.31132-.93505,11.76322,11.76322,0,0,0-4.67526-.93506,17.29778,17.29778,0,0,0-3.42778.62374q.9356-3.11149,1.8701-3.42779.93561-.9356,4.05152-.93505,5.915,0,5.92052,2.80516,0,1.86954-3.7391,6.23183l-2.80515,2.80516a33.75218,33.75218,0,0,0-2.49274,2.804,3.59507,3.59507,0,0,0-1.24636,2.49273q0,2.4988,5.6092,2.49384a29.53869,29.53869,0,0,0,5.14223-.46808q2.64288-.467,5.76486-1.0907c1.03662-.414,1.55769-.51555,1.55769-.31132A19.52106,19.52106,0,0,1,207.95751,228.1256Zm25.8646-27.73471q4.6747,2.80515,4.67526,3.74021,0,2.18418-4.05152,8.41325c-.4184.62374-.73082.83349-.93505.62374q-2.49715-1.86956-4.67416-3.42779-2.18417-1.55658-4.67415-3.11647-.31462-.30634,0-.935l3.7391-7.79062.31132-.62264h.31242Q229.45928,197.27552,233.82211,200.39089Z" transform="translate(-21.60517 -14.0391)" fill="#231f20"/>
</svg>
