<svg xmlns="http://www.w3.org/2000/svg" width="223.87346" height="192.96533" viewBox="0 0 223.87346 192.96533">
  <path d="M250.25744,177.414a6.01644,6.01644,0,0,1,2.48145,4.96191,13.77464,13.77464,0,0,1-1.10254,6.06446c-.18555.73632-.46094,1.10254-.82715,1.10254l-.27539-.2754a1.13774,1.13774,0,0,0-.27637-.82714,8.25827,8.25827,0,0,0-7.71777-4.41016q-9.375,0-21.502,12.12891-3.58593,3.86425-6.8916,7.44336-3.30908,3.58593-6.61621,7.44238-6.61669,6.06738-11.02637,6.06445a8.97859,8.97859,0,0,1-8.2705-4.68555,18.32848,18.32848,0,0,1-2.75684-9.373,34.09833,34.09833,0,0,1,1.5166-9.37207,67.85,67.85,0,0,1,5.09961-12.12989q.54931-2.20312,1.92969-6.33984,1.377-4.13525,1.92969-5.51367-1.1045-.54931-3.44532-1.6543-2.3452-1.09716-5.23828-2.75586a32.64386,32.64386,0,0,1-5.65039-4.13574,27.29175,27.29175,0,0,1-4.96289-6.064q-.82617-1.37622-3.7207.82666-2.89453,2.20971-6.47852,5.2373-6.61522,5.78907-6.61621,8.5459,0,3.30762,13.23242,6.34082,7.71387,1.65381,9.92383,3.583,2.48145,1.65381,2.48047,5.78906,0,6.06738-5.65039,11.57812a65.5859,65.5859,0,0,1-13.37012,9.92383,81.97081,81.97081,0,0,1-15.98828,7.0293,47.36817,47.36817,0,0,1-13.7832,2.61914q-10.20264,0-15.71289-6.8916-4.41358-6.06006-4.41114-14.88574a42.72538,42.72538,0,0,1,1.92969-13.50782,9.40146,9.40146,0,0,1-5.375-.96484,19.03838,19.03838,0,0,1-4.54883-3.44629,14.5067,14.5067,0,0,1-4.68652-5.78808,26.715,26.715,0,0,1-2.20508-7.168q-.27831-.82617-.82715-.82715H99.46935v-1.10254a.558.558,0,0,1,.1377-.41309.563.563,0,0,0,.13769-.41406c0-.18066-.18554-.27539-.55078-.27539a15.85569,15.85569,0,0,0-4.41113,1.6543q1.65381,1.38281,3.30762,2.61914,1.65527,1.23925,3.584,2.61816a3.82293,3.82293,0,0,1,1.37891,2.48145,37.25135,37.25135,0,0,1-.41406,4.13476q-.41309,3.03663-1.792,3.30762c-.37011.18555-.55078.18555-.55078,0,0-.18066-.18554-.36621-.55176-.55078a28.11066,28.11066,0,0,1-4.54785-1.24121,13.872,13.872,0,0,0-4.82422-.68848,26.25465,26.25465,0,0,0-13.6455,3.85938,88.44979,88.44979,0,0,0-11.71582,8.26953q-3.30762,3.03661-7.30567,6.7539-3.999,3.72218-7.02929,6.47852-2.7583,2.209-5.23731,3.99707a8.11253,8.11253,0,0,1-4.68652,1.792q-3.30762.27686-4.82422-.68945A16.90789,16.90789,0,0,1,32.483,202.5a15.13508,15.13508,0,0,1-2.75684-4.27344,15.60379,15.60379,0,0,1-.82715-5.65137,28.18681,28.18681,0,0,1,1.6543-10.47461A94.71361,94.71361,0,0,1,34.6881,171.625c.55079-.917,1.00782-1.37793,1.37793-1.37793v.55078a19.34406,19.34406,0,0,1-1.10254,4.41113q-.82617,2.209-1.65429,4.68652-.82617,2.48-1.65332,6.06446a18.49068,18.49068,0,0,0-.55176,6.06445,14.88681,14.88681,0,0,0,.27637,3.16992,6.53289,6.53289,0,0,0,1.37793,2.61914,9.69,9.69,0,0,0,2.20507,1.792,5.02745,5.02745,0,0,0,2.75684.13769,13.261,13.261,0,0,0,5.375-1.792,23.21829,23.21829,0,0,0,4.82422-3.72168q2.48145-2.20312,6.06543-5.5127,3.57861-3.30907,5.78808-5.51367,5.78907-4.96143,11.44043-9.23437a41.09681,41.09681,0,0,1,12.81836-6.47852,5.72391,5.72391,0,0,0-1.792-.27539,2.032,2.032,0,0,1-1.51562-.55176c-.3711-.18066-.46094-.55078-.27539-1.10254q.54785-1.65381.96386-3.16992a17.42164,17.42164,0,0,1,1.24121-3.16992,2.51867,2.51867,0,0,1,1.51563-.96533,8.556,8.556,0,0,0,2.06738-.96485q3.85841-1.37622,7.44336-2.61865,3.57861-1.24072,7.44336-2.61914,1.37548-4.96143,2.48047-9.23437,1.09863-4.27076,2.48144-9.78614a31.25183,31.25183,0,0,0,1.10254-3.584,44.48073,44.48073,0,0,1,1.37793-4.41065c.55176-.55127.918-.82666,1.10254-.82666q.54931.27759.82715,1.65381a24.67424,24.67424,0,0,0,.41406,3.5835,19.14814,19.14814,0,0,0,.96485,3.85937c.18066.92188.41308,2.1626.68847,3.72168a22.59959,22.59959,0,0,1,.41407,3.16993,41.27769,41.27769,0,0,1-.13868,7.71875,22.67278,22.67278,0,0,1-2.34277,6.8916q3.30762-1.37622,6.20215-2.75684a28.87739,28.87739,0,0,0,5.65137-3.58349q3.03075-2.48071,6.06445-5.09961,3.03077-2.61695,6.06543-4.82422a4.81689,4.81689,0,0,1,1.37793-.55127c.36621,0,.55176.27539.55176.82666v1.65429a3.07375,3.07375,0,0,1-.13867.96485,2.19677,2.19677,0,0,0-.1377.689,7.86487,7.86487,0,0,0,1.92969,4.13526,6.44476,6.44476,0,0,0,3.16992,1.7915,15.30312,15.30312,0,0,0,3.44629.41358,26.477,26.477,0,0,0,9.37207-1.65381q.54931-.27174,1.6543-.96485a3.81261,3.81261,0,0,1,1.92968-.68945,31.84134,31.84134,0,0,1-4.82422-3.30762,35.65813,35.65813,0,0,1-4.27246-4.13525,30.85276,30.85276,0,0,1-3.584-6.34033,18.3811,18.3811,0,0,1-1.37793-7.167,15.93287,15.93287,0,0,1,4.96191-12.12939q5.78907-6.06006,15.16114-6.06445a22.88718,22.88718,0,0,1,4.96191.55127q2.48145.55516,4.68652,1.10254,1.377.5559,5.09961,2.34326,3.72217,1.79589,4.54883,3.4458a8.30778,8.30778,0,0,1-2.48144-.27588,35.36658,35.36658,0,0,0-4.96192-.82666q-2.7583-.27173-5.2373-.27588a69.9997,69.9997,0,0,0-7.85645,1.10254q-4.27734.8269-7.30469,1.6543-3.03661,1.10448-4.82421,1.7915a8.19309,8.19309,0,0,0-3.44629,2.89453,22.26569,22.26569,0,0,0,3.03222,7.0293,30.45027,30.45027,0,0,0,5.23828,6.20263,29.05349,29.05349,0,0,0,6.61524,4.54834,19.50155,19.50155,0,0,0,7.44336,2.06788,13.77216,13.77216,0,0,0,4.54883-1.103q2.89306-1.09791,4.27246-1.65381,1.37548-.54931,3.584-1.51611,2.20313-.96241,4.68555-2.06739,2.48145-1.09863,4.41113-1.92968A10.9365,10.9365,0,0,0,192.91955,130a1.517,1.517,0,0,1,.96484-.55176.93374.93374,0,0,0,.68946-.27539h.27539a.78074.78074,0,0,0,.55175.27539c.36524.18555.45606.41357.2754.68945a8.47958,8.47958,0,0,0-.55176.96485q-.55518,1.10448-1.37793,2.75634-.82764,1.65455-1.37891,3.03272a4.48955,4.48955,0,0,1-1.65332,1.37793c-.92187.3706-2.06738.82715-3.44629,1.37842q-2.06689.82691-4.27246,1.792-2.209.969-3.99707,1.7915a20.83572,20.83572,0,0,0-2.61914,1.37842q-1.38281.55591-3.72168,1.6543-2.34522,1.1045-4.54785,2.20508l-3.85938,1.92968a8.79523,8.79523,0,0,1-1.92968.82715,58.54664,58.54664,0,0,1-7.44336,3.4458q-2.7583.969-6.8916,2.06738a29.81512,29.81512,0,0,1-6.33985.41358,11.11662,11.11662,0,0,1-6.06445-2.34326,3.31031,3.31031,0,0,1-1.6543-2.34326c-.18555-1.00782-.37012-2.06739-.55176-3.16993a4.802,4.802,0,0,0-.27539-1.92968,9.66994,9.66994,0,0,1-3.30761,4.13476,42.8313,42.8313,0,0,0-3.85938,3.30811q-1.38281,1.38281-2.48144,2.34326a7.88109,7.88109,0,0,1-2.75684,1.51611,5.47583,5.47583,0,0,1,2.75684,1.24024,9.87556,9.87556,0,0,1,1.92968,2.34375q.54931,1.38133,1.10254,3.03222a9.70221,9.70221,0,0,1,.55176,3.03223,23.09892,23.09892,0,0,1-1.24023,7.85644,7.10763,7.10763,0,0,1-5.10059,4.54786,35.14114,35.14114,0,0,0-1.10254,8.54589q0,8.54738,4.82422,13.50782,4.82081,4.96142,13.64551,4.96191a36.11732,36.11732,0,0,0,8.959-1.24023,78.80991,78.80991,0,0,0,9.64844-3.1709,86.74481,86.74481,0,0,0,9.37305-4.41016q4.54833-2.48143,7.85644-4.68652,7.44288-4.68458,7.44238-5.5127,0-1.377-4.13476-2.48144-2.209-.54932-4.41016-1.10254-2.21045-.54931-4.41113-1.10254a36.23929,36.23929,0,0,1-7.71875-2.61914q-3.8628-1.79-3.85938-6.47754,0-15.1582,13.23243-24.53467,4.68311-3.85693,8.26953-3.85937,2.48144,0,4.96191,4.13525a26.921,26.921,0,0,0,6.34082,5.92676,32.5116,32.5116,0,0,0,8.82129,4.82422q1.9248-3.03077,3.583-5.65137,1.65381-2.61695,3.584-5.65137a78.28329,78.28329,0,0,1,8.40821-10.3374,15.72717,15.72717,0,0,1,11.71484-5.37549,13.72617,13.72617,0,0,1,5.376,1.24073,24.44157,24.44157,0,0,1,5.375,3.16992A18.8109,18.8109,0,0,1,240.61,143.2314a9.29718,9.29718,0,0,1,1.65332,5.2378,20.38558,20.38558,0,0,1-1.10254,5.23779,38.64407,38.64407,0,0,1-1.51562,3.58349,8.40464,8.40464,0,0,1-1.51661,2.20557,18.849,18.849,0,0,1-5.78906,5.09961,49.20616,49.20616,0,0,1-8.26953,3.99707,64.15184,64.15184,0,0,1-8.82129,2.61914,36.61377,36.61377,0,0,1-7.71875.96484,25.76723,25.76723,0,0,1-9.92383-1.92968,60.85364,60.85364,0,0,1-2.06738,6.20215q-1.519,3.999-2.61914,6.20214-.55518,1.38282-1.10254,3.1709-.55518,1.79591-1.37793,3.99707-3.03661,8.269-3.0332,12.4043a8.92831,8.92831,0,0,0,1.65429,5.51367q1.377,2.209,4.96192,2.20508,5.23389,0,11.02637-5.78906a21.73469,21.73469,0,0,0,3.17089-3.30762q2.61621-3.03077,8.13184-8.82129,15.71339-16.812,27.8418-16.81543A8.207,8.207,0,0,1,250.25744,177.414ZM64.45959,155.3608a11.45234,11.45234,0,0,1-2.75684,6.89209,18.40512,18.40512,0,0,1-6.61523,6.8916l-1.92969,1.37793V170.247a.79459.79459,0,0,1,.27539-.55176l1.10254-1.10254q6.6167-7.44286,6.61621-9.64844,0-2.48072-2.20508-2.481a4.71132,4.71132,0,0,0-2.20605.82714.56411.56411,0,0,0-.41309.1377,1.07986,1.07986,0,0,1-.68945.13818,1.1989,1.1989,0,0,1,.13769-.55127,1.91885,1.91885,0,0,0,.13868-.82714q1.37548-4.96216,5.2373-4.96192Q64.45959,151.226,64.45959,155.3608Zm23.43164,42.45263q.54932-.54932.82715,0,1.65381-3.58008,3.584-3.584a2.84951,2.84951,0,0,1,2.75586,2.06738,9.6985,9.6985,0,0,1,.82715,3.44629,3.10712,3.10712,0,0,1-.27539,1.37793q-.82764,3.58595-1.92969,3.584a6.66027,6.66027,0,0,1-3.584-1.65429c-.55078-.36621-1.05957-.73242-1.51563-1.10254a13.79991,13.79991,0,0,1-1.24023-1.10254,15.1294,15.1294,0,0,1-3.03321,5.78906,26.29685,26.29685,0,0,1-9.09668,6.8916q-4.13525,2.48145-5.51269,2.48047a11.50211,11.50211,0,0,0-2.20606.41407q-1.6538.41308-3.44531.82714-1.79589.41309-3.584.82618a13.0579,13.0579,0,0,0-2.34278.68945H56.19006l.55078-.27539a6.53962,6.53962,0,0,1,1.3789-.82715q2.20313-.82764,6.20215-2.48047,3.99317-1.65527,8.13184-3.72168a77.08426,77.08426,0,0,0,7.71875-4.41113,14.47637,14.47637,0,0,0,4.68652-4.27246c.36621-.73242.7793-1.5166,1.24024-2.34375A18.99229,18.99229,0,0,1,87.89123,197.81343ZM71.62756,149.29634a18.29332,18.29332,0,0,1,3.8584-2.48095,40.63086,40.63086,0,0,1,4.27343-2.34327,39.52891,39.52891,0,0,0,4.27246-2.34326c.73243-.36621,1.10254-.73193,1.10254-1.10254,0-.18115-.46093-.45654-1.37793-.82714a12.69,12.69,0,0,0-3.99707-.41358c-1.19726.09522-2.52832.13818-3.99707.13818h-3.584c-.55078,0-.73633-.27587-.55078-.82714a24.80081,24.80081,0,0,0,1.37793-2.61866,6.37261,6.37261,0,0,1,1.92968-2.34326,5.77936,5.77936,0,0,1,3.03223-.82715h7.44336a11.892,11.892,0,0,1,4.68555.82715q1.92627.82691,1.10254,2.481a49.92025,49.92025,0,0,1-3.8584,5.51318l-2.48145,2.481a8.99222,8.99222,0,0,1-2.20508,1.24072,22.6898,22.6898,0,0,0-2.20507.96485q-2.21046.55516-4.41114,1.24023Q73.82873,148.747,71.62756,149.29634ZM77.692,127.51851q4.40625-3.03,8.54492-5.92676,4.13526-2.89452,8.27051-6.20214c-1.28809-1.10254-2.11523-1.835-2.48145-2.20557a4.51533,4.51533,0,0,1-.68847-3.4458,17.34225,17.34225,0,0,1,1.24023-3.16992,8.191,8.191,0,0,1,3.584-3.85938q2.48-1.92553,3.8584.82715a8.96481,8.96481,0,0,1,.55175,6.34033,7.57464,7.57464,0,0,0-.41308,2.61865,7.29968,7.29968,0,0,0,2.06738,1.792,2.49226,2.49226,0,0,1,1.37793,1.6538.92232.92232,0,0,1,.13769,1.24024,7.49755,7.49755,0,0,0-.68847,1.51611l-.55176.55176q-.55518,1.38209-1.6543,0c-.55078-.36621-1.05957-.73242-1.51562-1.103-.46094-.36572-.96485-.73193-1.5166-1.10254-.55078-.36621-1.01172-.36621-1.37793,0a41.81854,41.81854,0,0,1-12.40528,8.82129q-1.38281.55591-2.89453,1.24073A6.07384,6.07384,0,0,1,77.692,127.51851Zm16.54,72.77539a3.42218,3.42218,0,0,0-.41406-.68847,2.88226,2.88226,0,0,1-.41309-.68946,2.38178,2.38178,0,0,0-1.6543-.82715,1.85207,1.85207,0,0,0-1.65429.82715,27.40522,27.40522,0,0,0,3.85937,2.20508A1.12216,1.12216,0,0,0,94.23205,200.2939Zm3.8584-91.24463q0-1.92554-.82617-2.20556a.838.838,0,0,0-1.24122,0,15.38411,15.38411,0,0,0-1.24023,1.103q-1.1045,1.65381.55176,2.20508c.18066.18506.31836.27588.41308.27588.09082,0,.22852.09473.41407.27539,1.2832.55127,1.92871.18555,1.92871-1.10254Zm5.23828,42.17676q2.20313-1.37622,4.82422-3.03223a5.48475,5.48475,0,0,0,2.61816-4.9624,10.38881,10.38881,0,0,0-.96484-4.13476q-.96827-2.20312-1.791-4.41065-1.38281,3.86354-2.75683,7.99414A44.08322,44.08322,0,0,0,103.32873,151.226Zm65.332-90.69385L168.11,57.77535a5.35014,5.35014,0,0,0-1.10254-2.481l1.92969-5.78857a4.2595,4.2595,0,0,1,.82617-1.103l1.10351,1.103q1.65381,2.4807,3.03223,4.686,1.37548,2.20972,2.75586,4.13526a4.07464,4.07464,0,0,1,1.10352,2.20507.48689.48689,0,0,1-.55176.55127,4.47568,4.47568,0,0,1-1.37793-.27539q-.82764-.27172-2.20606-.82715.54933,1.38282,1.10352,3.30811a33.65349,33.65349,0,0,0,1.65332,4.41064q1.92627,5.78834,2.89453,9.78614a29.76735,29.76735,0,0,1,.96485,6.75341,22.18925,22.18925,0,0,1-1.6543,8.82129q-2.48,6.616-8.82129,6.61621a11.98579,11.98579,0,0,1-10.47461-5.78906q-2.48145-3.30834-4.13477-10.4751a28.51257,28.51257,0,0,1-4.68652,12.40479q-3.86425,5.78905-11.30273,5.78906-7.17187,0-9.78614-5.51367a26.62064,26.62064,0,0,1-2.61816-11.57764,56.63636,56.63636,0,0,1,1.65332-13.7832l.55176-2.20557-.27539-.27539c-.3711,0-.82715.55127-1.37891,1.65381q-1.93213,3.03663-3.583,11.02686-2.75976,11.02807-3.30859,12.68017a11.30725,11.30725,0,0,1-2.75684,4.96192,3.96473,3.96473,0,0,1-2.75586,1.37842q-4.96289,0-7.71875-6.06446A35.35472,35.35472,0,0,1,105.25842,81.207a40.16529,40.16529,0,0,1,1.65332-11.02637,4.87573,4.87573,0,0,1,.55175-2.20557c.36622-.73193.55176-.82714.55176-.27539a1.58518,1.58518,0,0,1,.1377,1.10254,7.21518,7.21518,0,0,0-.1377,1.65381,31.88472,31.88472,0,0,0-1.10351,8.27q0,14.88575,6.34082,14.88574,2.75244,0,4.41015-3.85888a63.223,63.223,0,0,0,2.75684-9.64844q1.09863-3.85694,1.792-6.75391.68555-2.89452,1.24024-4.82422.82762-1.9248,1.65429-3.85937a10.44812,10.44812,0,0,1,2.20508-3.30762q1.92627-3.57934,3.85938-3.584,1.37694,0,1.3789,3.03271c0,.73633-.09472,1.9292-.27637,3.5835q-.27685,2.48072-1.10253,6.34033-.55518,3.86352-.96485,6.34033a25.17408,25.17408,0,0,0-.41308,3.85938q0,5.51733,2.48046,8.82129,1.92627,3.03661,6.34083,3.03222,14.33057,0,14.334-14.05908a54.8057,54.8057,0,0,0-.82617-9.78613,69.50742,69.50742,0,0,0-2.48145-9.51026,14.02,14.02,0,0,1,.27539-2.06738c.18067-1.0083.41407-2.06787.68946-3.17041s.55175-2.06738.82714-2.89453c.2754-.82666.59375-1.24023.96485-1.24023.18066,0,.45605.46093.82715,1.37793q3.02929,6.616,4.68554,17.91845a49.1046,49.1046,0,0,0,1.792,9.78614,34.59408,34.59408,0,0,0,2.61914,6.478q2.48144,4.96216,8.54589,4.96192,4.96143,0,6.61524-3.5835,0-1.65381-2.20508-5.23779a86.07008,86.07008,0,0,1-4.13476-10.3374A65.10532,65.10532,0,0,1,168.66076,60.53218ZM122.901,170.247a12.45309,12.45309,0,0,0-6.34082-4.41114q-1.93212-.54931-3.72168-.96484a16.54672,16.54672,0,0,0-3.7207-.41309,14.17542,14.17542,0,0,0,4.68555,6.06446,8.57631,8.57631,0,0,0,3.44629,2.06738,6.86809,6.86809,0,0,0,3.44531.41406c1.835,0,2.84766-.457,3.0332-1.3789C123.90881,171.25875,123.63342,170.79781,122.901,170.247Zm-9.92382-51.54981a18.31,18.31,0,0,1,3.85937-2.481,40.70817,40.70817,0,0,1,4.27246-2.34278,39.61385,39.61385,0,0,0,4.27246-2.34326,1.78217,1.78217,0,0,1,.68946-.41357.63354.63354,0,0,0,.41308-.689c-.18457-.36621-.41308-.55127-.68847-.55127a.925.925,0,0,1-.68946-.27588,13.27729,13.27729,0,0,0-4.13476-.41357c-1.28809.09473-2.57617.13769-3.85938.13769h-3.85937c-.37012,0-.46094-.27539-.27539-.82666a24.75761,24.75761,0,0,0,1.37793-2.61914,4.58909,4.58909,0,0,1,1.92968-2.06738,3.74877,3.74877,0,0,1,2.75684-1.10254h7.71875a11.87991,11.87991,0,0,1,4.68555.82715q2.20313.82691.82714,2.481a16.82106,16.82106,0,0,1-3.85937,5.51318,19.46715,19.46715,0,0,1-2.20508,2.481,8.97367,8.97367,0,0,1-2.20508,1.24023q-1.10448.41382-2.48144.96485-2.209.5559-4.27246,1.24072Q115.18274,118.1484,112.97717,118.69722Zm9.09668,7.71875v-.55127l2.75683-5.78906.55078-.27539q.82764,0,3.85938,2.20508,3.30762,1.93212,3.30859,2.75683,0,1.9314-3.0332,6.06446a.4862.4862,0,0,1-.55078.55127,39.44165,39.44165,0,0,0-3.30762-2.481Q124.00255,127.799,122.07385,126.416ZM137.51135,78.726q-1.106-15.43506-1.6543-23.98291-.55518-8.54151-.55176-10.4751a17.44418,17.44418,0,0,0-1.10254-6.8916q0-1.37622,2.20606-7.44287l.55078-.55127q.54931,0,.82715.82666.54931,1.10523,3.30761,8.27,1.377,3.58595,2.06739,5.65137.68554,2.0669.96484,2.894a6.186,6.186,0,0,1,.27637,1.92969q0,2.20971-3.584-2.20508c-.37011-.73242-.55175-.6416-.55175.27539q0,.27833.41406,7.02979.41308,6.75805,1.51562,20.26123.54931,4.69043.68946,8.82129.13623,4.13525.41406,7.44287a18.135,18.135,0,0,1-2.20606.41357,22.2931,22.2931,0,0,1-2.75683.1377Q138.06067,85.34175,137.51135,78.726Zm-1.10254,124.32471q-2.48145-.82617-1.92969-3.03223a5.83267,5.83267,0,0,1,2.75586-4.96191q1.09863-.82764,2.06738-1.5166c.64258-.45606,1.42188-.96485,2.34375-1.51563a11.98028,11.98028,0,0,0,3.583-3.30762,1.60163,1.60163,0,0,0-1.10254-.55175,2.42339,2.42339,0,0,1-1.10254-.27539,3.94176,3.94176,0,0,1-2.20508-3.85938,1.08066,1.08066,0,0,1,.1377-.68945.562.562,0,0,0,.13769-.41309,11.20289,11.20289,0,0,0,.55176-4.68652,2.048,2.048,0,0,1,.82715-2.20508,2.98761,2.98761,0,0,1,2.48047-.55176q2.20313,0,5.09961,2.48145a22.70108,22.70108,0,0,1,3.99707,4.13476q1.09863,2.48145.27637,3.85938a1.093,1.093,0,0,1-.1377.68847.56077.56077,0,0,0-.13867.41407,6.532,6.532,0,0,1-1.37793,2.34277q-.55518.41456-2.75684-.1377a9.12377,9.12377,0,0,0-2.75683-.55078,1.73125,1.73125,0,0,0-.82617.96485,3.699,3.699,0,0,1-.82715,1.24023,22.10912,22.10912,0,0,1-4.13477,4.13477,32.59639,32.59639,0,0,1-4.96191,3.03222q-1.106,1.1045,0,1.10254a7.601,7.601,0,0,0,3.30761.55176,29.18923,29.18923,0,0,0,4.13477-.27539,40.1049,40.1049,0,0,0,4.13477-.82715,10.37862,10.37862,0,0,1,2.89453-.68945,10.14242,10.14242,0,0,0,2.89453-.68945v.55175a30.67783,30.67783,0,0,1-6.8916,3.72168,26.02427,26.02427,0,0,1-7.71875,1.791A9.59774,9.59774,0,0,1,136.40881,203.05074Zm2.75586-98.96338a11.89708,11.89708,0,0,0,4.68652-.82715,30.36117,30.36117,0,0,1,.27539,3.4458v1.792a51.67079,51.67079,0,0,1-3.03223,17.918,4.64757,4.64757,0,0,0-.68847,1.37842,5.65222,5.65222,0,0,1-.41407,1.10254c-.55078.55127-.82714.646-.82714.27588v-1.24072a11.52469,11.52469,0,0,1,.27636-2.06739,28.67988,28.67988,0,0,0,.27539-3.99707v-4.273q0-2.48071-.82714-13.50732Zm6.06445,80.77q1.377.27686,1.37891-1.10254a2.70222,2.70222,0,0,0-.55176-1.92969q-.55518-1.92627-1.92969-.55176a1.488,1.488,0,0,0-.68848.55176,4.01134,4.01134,0,0,1-.68945.82617c-.55176.55176-.37012,1.10352.55176,1.6543A4.39374,4.39374,0,0,0,145.22912,184.85738Zm11.30273-141.6919a8.80491,8.80491,0,0,1-.55175,2.481c-.55079,1.2876-1.19727,1.92969-1.92969,1.92969q-1.65381,0-2.48047-2.481-.82764,3.03663-3.03223,3.03223a2.38375,2.38375,0,0,1-1.65429-.82715,6.09483,6.09483,0,0,1-.55078-2.75684V42.06246c0-.18067-.18555-.27539-.55176-.27539a1.10746,1.10746,0,0,1-.27539-.82715,2.24408,2.24408,0,0,1,.55078-1.65381c.36621-.36621.59472-.55127.68945-.55127.09082,0,.22852-.09082.41309-.27588a2.70385,2.70385,0,0,1,.55175,1.92969,1.09478,1.09478,0,0,1-.13769.689,1.08071,1.08071,0,0,0-.1377.68946v1.10254a7.37408,7.37408,0,0,0,.27539,1.6538c.18067.73682.55176,1.103,1.10254,1.103q2.48145,0,2.48145-2.75683a11.78189,11.78189,0,0,0-.55176-1.92969,7.98779,7.98779,0,0,1-.27539-1.92969v-.27539l.27539-.55127.55176-.82715.27539.55127a1.1743,1.1743,0,0,0,.1377.55127,1.94527,1.94527,0,0,1,.13769.82715c.18066.73633.31934,1.335.41406,1.7915a6.57678,6.57678,0,0,1,.1377,1.24073q0,2.4807,1.92969,2.481c.73242,0,1.10253-.27588,1.10253-.82715a12.8073,12.8073,0,0,1-1.65429-4.686,4.18986,4.18986,0,0,1,.55176-1.6543l.27539-.55127q.271,0,.41308.82715a8.77942,8.77942,0,0,1,.13867,1.10254l.82618,2.20557A11.76737,11.76737,0,0,1,156.53185,43.16548Zm-7.167-7.71875-.55176.55127v-.82714a10.80262,10.80262,0,0,0-.55078-3.85938,8.65061,8.65061,0,0,0-2.48144-3.03223.34255.34255,0,0,1,0-.55127l.55176-1.10253a7.60748,7.60748,0,0,1,3.30761,6.34033A8.47018,8.47018,0,0,1,149.36486,35.44673Zm-1.10254,149.41065c0,.55078.18067.82617.55078.82617a6.65293,6.65293,0,0,1,1.792.27637,3.92429,3.92429,0,0,0,2.06738,0,4.78,4.78,0,0,0-4.13477-3.85938A11.74988,11.74988,0,0,1,148.26232,184.85738Zm17.918-59.81983q8.54151-3.3076,12.95606-4.96191,4.40625-1.65381,6.61621-2.481,2.20313-.8269,3.44531-1.24023c.82715-.27588,2.02051-.73242,3.584-1.37842q2.33936-.9624,6.89161-2.61865,4.54833-1.65455,13.37011-4.9624a4.61045,4.61045,0,0,1,1.37793-.27539,2.47247,2.47247,0,0,1-.27539,1.10253,7.5499,7.5499,0,0,1-1.92969,3.30811q-7.9995,3.03661-12.12988,4.54834-4.13379,1.51831-6.33984,2.481c-1.47364.646-2.61914,1.1499-3.44629,1.51611-.82617.37061-2.16211.92188-3.99707,1.6543q-2.7583,1.10449-7.71875,3.16992-4.96143,2.06763-14.334,5.65137a15.27664,15.27664,0,0,1,.82715-2.75684C165.444,126.87691,165.8092,125.95943,166.18029,125.03755Zm19.02051,87.38623q0,1.65381-2.75684,6.33985a1.11852,1.11852,0,0,1-.82617.27539,15.12071,15.12071,0,0,0-3.0332-2.34277q-1.65381-.96241-3.583-2.34278a20.9592,20.9592,0,0,1-2.48144,4.68555.48636.48636,0,0,1-.55079.55176,39.67359,39.67359,0,0,0-3.30859-2.48145q-1.65381-1.09716-3.583-2.48047c-.37109,0-.37109-.18066,0-.55175l2.75684-5.78907.55078-.27539c.36621,0,1.46875.64649,3.30762,1.92969a18.30305,18.30305,0,0,1,2.20605,1.5166,7.41768,7.41768,0,0,0,1.37793.96484l2.48145-4.41113a.486.486,0,0,1,.55078-.55078,4.42659,4.42659,0,0,1,1.3789.68848c.73145.46093,1.51563.96484,2.34278,1.5166a23.05677,23.05677,0,0,1,2.20508,1.6543C184.87756,211.872,185.2008,212.24214,185.2008,212.42378ZM190.43908,81.207a4.60081,4.60081,0,0,1,4.41016,3.03222,18.623,18.623,0,0,1,2.75683,7.44288.77973.77973,0,0,0,.27539.55175l.27539-.55175c.18164-.917.41407-2.06739.68946-3.44581q.41309-2.06688,1.24023-4.82373,1.65381-3.85766,3.584-3.85937a1.95956,1.95956,0,0,1,1.92968,1.37842c.73243.73633,1.10254,1.2876,1.10254,1.65381a4.23647,4.23647,0,0,1-.55078,1.6538c-.37109.92188-.64648,1.37842-.82715,1.37842l-.27636-.27539c0-.18115-.18457-.457-.55079-.82715a2.38372,2.38372,0,0,0-1.65429-.82714q-1.65381,0-3.30762,8.27a15.046,15.046,0,0,1-1.37891,4.96192c-.18457.73682-.55078,1.10254-1.10254,1.10254V97.747a1.11144,1.11144,0,0,1-.27539-.82715,9.73873,9.73873,0,0,0-.41308-2.06738,26.95767,26.95767,0,0,0-1.10352-3.17041c-.46093-1.10254-.9209-2.11036-1.37793-3.03223-.46093-.91748-.874-1.37842-1.24023-1.37842-.3711,0-.55176.09522-.55176.27588H191.817c0,.18506-.18555.27588-.55176.27588-.37011,0-.96484-.36621-1.791-1.103q-1.24073-1.09789-1.24121-1.65381a4.04319,4.04319,0,0,1,1.10253-2.20508C189.88732,81.75826,190.25353,81.207,190.43908,81.207Zm33.0791,61.19775q-10.4795,0-22.3291,20.12354a22.86248,22.86248,0,0,0,8.27051,1.37793,40.76157,40.76157,0,0,0,13.23144-2.06739,65.24265,65.24265,0,0,0,12.12989-5.65087q4.40625-2.75245,4.41015-3.5835a5.07428,5.07428,0,0,0-1.792-3.4458,21.46193,21.46193,0,0,0-4.41016-3.30811,34.50267,34.50267,0,0,0-5.2373-2.481A13.08294,13.08294,0,0,0,223.51818,142.40474ZM206.152,126.416a.34255.34255,0,0,1,0-.55127l2.75586-5.78906.55176-.55127,3.85937,2.20557q3.30762,2.48072,3.30762,2.75634,0,1.10523-3.03223,6.34034c-.37011.3706-.6455.46093-.82714.27588a39.335,39.335,0,0,0-3.30762-2.481Q207.80578,127.52291,206.152,126.416Zm37.49024,68.916a3.19836,3.19836,0,0,1,2.20507,1.10254,3.40724,3.40724,0,0,1,.82715,1.92968,3.87828,3.87828,0,0,1-.27539,1.6543c-.18555.73633-.46094,1.10254-.82715,1.10254-.18554,0-.55175-.27539-1.10254-.82715a2.38595,2.38595,0,0,0-1.65429-.82617q-1.93213,0-3.03223,8.26953a25.63074,25.63074,0,0,1-1.6543,4.96192c-.18554.73632-.46093,1.10253-.82714,1.10253-.18458,0-.2754-.36621-.2754-1.10253a19.52509,19.52509,0,0,0-1.65429-5.51368q-1.93067-4.13379-2.48047-4.13476a1.126,1.126,0,0,0-.82715.27539c0,.18555-.18555.27637-.55176.27637A4.19956,4.19956,0,0,1,229.58264,202.5c-.9209-.73243-1.37793-1.28418-1.37793-1.6543a4.04319,4.04319,0,0,1,1.10253-2.20508c.55176-1.10254,1.00782-1.6543,1.37891-1.6543q2.48,0,4.41016,3.03223a12.87149,12.87149,0,0,1,2.48144,7.44336l.27539.55078h.27539v-.55078c.18067-.918.41407-2.06738.68946-3.44629q.41308-2.06689,1.24023-4.82422Q241.712,195.33443,243.64221,195.332Z" transform="translate(-28.86542 -26.62545)" fill="#231f20"/>
</svg>
